<svg width="72" height="80" viewBox="0 0 72 80" fill="none" xmlns="http://www.w3.org/2000/svg">
<path d="M24.5983 2.10771L24.4088 3.02131L23.8575 3.64186L23.9609 4.46926L24.7361 5.12429V5.38285L25.3219 5.83103L25.7698 7.77887L26.2177 7.53754L26.2866 7.07213L26.166 6.62395L26.8034 6.19302L27.0618 5.84826L27.5097 5.53799L27.5269 4.69335L27.1824 4.52097L26.924 4.00384L26.4416 3.98661L26.2521 3.38329L26.8379 2.83169L26.924 1.86639L26.5967 1.59059L26.5794 1.07346L27.0101 0.521861L26.9412 0.297772L26.1832 0.711475L26.2004 0.142635L25.563 0.0219727L24.5983 0.470147L24.426 1.03899L24.5983 2.10771Z" fill="#C6C6C6"/>
<path d="M59.6901 54.2853L59.6729 54.3198L59.6557 54.3716H59.604H59.5695H59.5006L59.6384 54.4578L59.7246 54.5441L59.759 54.5786L59.7762 54.5441L59.7935 54.4233L59.7418 54.2681L59.6901 54.2853Z" fill="#C6C6C6"/>
<path d="M58.7081 53.7683L58.7254 53.5268L58.6909 53.4923H58.6392L58.622 53.5096L58.6048 53.5613L58.5531 53.9063L58.622 54.0097L58.6737 54.027L58.7771 54.0787L58.8115 54.027L58.7771 53.9063L58.7081 53.7683Z" fill="#C6C6C6"/>
<path d="M59.001 54.4576H58.9321V54.4921L58.9493 54.5611L59.1388 54.5956L59.0699 54.5266L59.001 54.4576Z" fill="#C6C6C6"/>
<path d="M71.8698 63.0592L71.8009 62.9385L71.7147 62.9557L71.663 63.0247L71.6286 63.111L71.5425 63.1627L71.5252 63.2145L71.4908 63.3352L71.4735 63.4042L71.4391 63.4215V63.456L71.4908 63.5077L71.6286 63.525L71.7492 63.4905L71.8009 63.4387L71.8353 63.3697L71.887 63.318L71.9042 63.1972L71.8698 63.0592Z" fill="#C6C6C6"/>
<path d="M23.3752 40.5816L23.289 40.6506L23.2374 40.7196V40.7713L23.2546 40.892L23.2718 40.9438L23.3235 40.9783L23.4096 40.892L23.4958 40.7541V40.6678L23.4441 40.5816H23.3752Z" fill="#C6C6C6"/>
<path d="M24.1509 39.1681L24.1162 39.1854L24.0642 39.2722L24.0815 39.3069L24.1162 39.3416L24.1509 39.3069L24.1855 39.2375V39.2028L24.1682 39.1854L24.1509 39.1681Z" fill="#C6C6C6"/>
<path d="M70.526 46.0802L70.5605 46.132L70.6121 46.1665L70.6294 46.2355L70.681 46.27V46.1665L70.5949 46.0285L70.526 46.0802Z" fill="#C6C6C6"/>
<path d="M69.8197 63.9555L69.7508 63.9211L69.613 63.9038L69.4924 63.9555L69.4235 64.059L69.389 64.1108L69.4579 64.3005L69.4924 64.3522L69.6819 64.4557H69.768L69.9058 64.4212L69.9403 64.3522L69.9575 64.2142L69.8886 64.0763L69.8197 63.9555Z" fill="#C6C6C6"/>
<path d="M60.3447 54.9576L60.3102 54.9058L60.2585 54.9576L60.3102 55.0439L60.293 55.0956L60.2758 55.1647L60.293 55.2337L60.3275 55.2682L60.3791 55.2509V55.1992L60.4136 55.1129V55.0956L60.4308 55.0094L60.3791 54.9576H60.3447Z" fill="#C6C6C6"/>
<path d="M66.1331 27.8433H65.7713L65.3234 28.2226L64.8238 28.326L64.3931 28.4811L64.083 28.5156L63.5318 28.5501L63.2044 28.7397L62.7221 28.8259L61.8952 29.1534L60.8443 29.2913L59.9485 29.5671H59.4661L59.0182 29.1017L58.8115 28.6535L58.5014 28.4467L58.0707 28.1536L58.6048 27.8951L58.622 27.4296L58.3808 27.1021L57.8985 26.7746L57.5711 26.3954L57.0199 25.7576L56.4686 25.1371L55.1077 24.1028L54.5564 23.5685L54.2463 22.5515L53.6089 21.2931L53.161 21.9137L53.6089 21.2931L53.0748 20.8794L52.6959 20.6036L52.2652 19.2936L52.0757 18.1731L52.2652 17.9663L51.9034 16.8976L51.7311 16.6735L50.5597 15.691L50.4908 14.967L50.663 14.7774L49.75 13.5708L49.4055 12.9502L49.0092 12.3469L48.1823 10.6404L47.5105 9.5372L47.0281 8.38229L47.1142 8.27886L47.9067 9.84747L48.3718 10.3474L48.7164 10.6921L48.9231 10.5025L49.1298 9.93366L49.2504 9.10626L49.4744 8.67533L49.3538 8.38229L48.6819 6.79645L48.2512 7.07225L47.5277 7.0033L46.7697 6.74473L46.5802 7.10672L46.2873 6.55512L45.6155 6.41722L44.8058 6.52065L44.444 6.83092L43.7722 7.17567L43.3243 7.0033L42.3768 6.67578L41.4637 6.38275L40.2406 6.41722L39.9822 6.05524L39.0519 5.91734L38.7418 5.72773H38.3973L38.0527 5.24508L36.7952 5.02099L36.175 5.15889L35.5376 5.67602L35.2792 6.21037L35.5376 7.03777L35.1241 7.55489L34.6934 7.83069L33.677 7.29633L32.3505 6.83092L31.5064 6.62407L31.024 5.64154L29.7837 5.15889L29.0085 4.96928L28.6295 5.07271L27.5269 4.69348L27.5097 5.53812L27.0618 5.84839L26.8034 6.19314L26.166 6.62407L26.2866 7.07225L26.2177 7.53765L25.7697 7.77898L26.0971 8.74428L26.166 9.2614L26.0109 10.1577L26.0971 10.6576L25.9937 11.2609L26.0798 11.9504L25.7181 12.3986L26.3038 13.2088L26.3382 13.6742L26.6828 14.2947L26.3382 13.6742L26.3038 13.2088L25.7181 12.3986L26.0798 11.9504L25.9937 11.2609L26.0971 10.6576L26.0109 10.1577L26.166 9.2614L26.0971 8.74428L25.7697 7.77898L25.3218 5.83115L24.7361 5.38298V5.12442L23.9609 4.4694L23.8575 3.642L24.4088 3.02145L24.5983 2.10787L24.426 1.03915L24.5983 0.470311L23.9781 0.539262L23.5991 0.280701H22.6344L21.7903 0.728872L21.3251 0.556498L19.8264 0.642685L18.2931 0.849536L17.4318 1.19428L16.8461 1.64246L15.8641 1.8493L14.9855 2.45261L14.5893 2.43538L13.6418 2.19405L12.7804 2.263L12.2464 1.79759H11.5745L11.2644 2.46985L10.627 3.62476L9.93795 4.07293L9.00769 4.57282L8.40473 5.31403L8.24969 5.9001L7.88792 6.83092L8.07742 8.19268L7.26774 9.10626L6.80261 9.3993L6.04461 10.1577L5.16602 10.2784L4.68366 10.6921L4.66643 10.7093L4.04625 11.8298L3.40885 12.2262L3.04708 12.9157L3.01262 13.4846L2.73699 14.1396L2.40967 14.312L1.87563 15.0015L1.53108 15.7771L1.58277 16.1564L1.25545 16.7252L0.87645 17.0182L0.824769 17.5354L0.773087 18.0008L1.25545 18.4662L1.49663 18.9833L1.37604 19.5349L1.4794 20.0865L1.56554 21.1725L1.42772 22.1895L1.13486 22.7411L1.20377 23.3271L1.54831 22.9824L1.20377 23.3271L0.979814 23.896L0.497452 24.6544L0.0667725 24.8613L0.531906 25.2577L0.910905 26.1196L1.96176 26.0851L2.18572 25.8266L2.49581 25.8093L2.85758 26.0679L3.16767 26.0851L3.47776 25.8955L3.16767 26.0851L2.85758 26.0679L2.49581 25.8093L2.18572 25.8266L1.96176 26.0851L0.910905 26.1196L0.790314 26.6022L0.928132 27.4469L1.44495 27.2573L1.75504 27.2917L2.01345 27.1711L3.78785 27.2228L4.25298 27.24L4.94207 27.4986L5.16602 27.4814L5.23493 27.3607L5.75175 27.4469L5.88956 27.3779L5.94125 27.0332L5.87234 26.6195L5.51057 26.3092L5.32107 25.6714L5.28661 24.9992L5.61393 24.7923L5.7862 24.1545L6.09629 24.1201L5.7862 24.1545L5.61393 24.7923L5.28661 24.9992L5.32107 25.6714L5.51057 26.3092L5.87234 26.6195L5.94125 27.0332L5.88956 27.3779L5.94125 27.7744L5.88956 27.3779L5.75175 27.4469L5.23493 27.3607L5.16602 27.4814L4.94207 27.4986L4.25298 27.24L3.78785 27.2228L3.77062 27.5848L3.66726 27.7054L3.77062 27.5848L3.78785 27.2228L2.01345 27.1711L1.75504 27.2917L1.44495 27.2573L0.928132 27.4469L0.979814 27.671L1.27268 27.9123V28.0674L1.4794 28.3777L1.89286 28.4639L2.39244 28.9121L2.84035 28.3777L3.13321 28.3949L3.37439 28.2226H3.59835L3.73616 28.0674L3.59835 28.2226H3.37439L3.13321 28.3949L2.84035 28.3777L2.39244 28.9121L2.66808 29.1017L2.8059 29.343L2.92649 29.8256L3.15044 30.0325L3.40885 30.1876L3.77062 30.6186L4.18407 31.2564L4.30466 32.0665L4.45971 32.463L4.9593 33.0663L5.66561 33.4972L5.92402 33.5834L6.14797 33.2387L6.19965 32.9111L6.64756 32.3251L7.09547 31.808L7.30219 31.7735L7.5606 31.6528L7.30219 31.7735L7.09547 31.808L6.64756 32.3251L6.19965 32.9111L6.14797 33.2387L5.92402 33.5834L6.56142 34.2901L7.38833 34.8935L8.26692 35.7208L9.24887 36.2552L9.50728 36.238L9.69677 36.2724L10.6615 35.8587L11.3334 35.5485L12.4704 35.3589L13.0905 35.3416L13.7624 35.5657L14.2103 35.5485L14.2448 35.1175L13.8313 34.1695L14.0897 32.9284L14.4859 32.0148L14.2448 30.4462L13.5901 30.1704L14.2448 30.4462L14.4859 32.0148L14.0897 32.9284L13.8313 34.1695L14.2448 35.1175L14.2103 35.5485L15.0717 35.8587L15.933 35.5312L16.4843 35.1693L17.9831 34.5142L18.7755 34.2901L19.568 34.1522L19.6196 32.394L19.6024 31.6873L19.6196 32.394L19.568 34.1522H20.4121H21.1529L21.8247 34.8762L22.152 35.6691L22.6688 36.3414L23.4441 36.3759L23.8231 36.1345L24.1848 36.1863L25.184 35.7898L25.4252 35.0141L25.8903 33.9626L25.4252 35.0141L25.184 35.7898V36.1001L25.4252 36.2552L25.6147 36.7379L26.0626 36.9275L26.4416 37.6514L26.3038 38.5133L27.8887 38.5478L28.3366 38.4788L28.9223 38.6167L29.508 38.4788L29.6286 38.5305L30.8518 38.5823L31.627 38.8753L32.4022 39.1339L31.627 38.8753L30.8518 38.5823L29.6286 38.5305V38.5478V38.5305L29.508 38.4788L28.9223 38.6167L28.3366 38.4788L27.8887 38.5478L26.3038 38.5133L25.9765 39.7544L26.1487 39.9095L25.9592 40.7369L25.7353 41.5299L25.5113 41.8746L25.4769 42.2366L26.0626 43.3743L26.7 44.2878L27.6992 45.391L28.4916 46.546L28.8706 46.0805L29.1807 45.8909L28.8706 46.0805L28.4916 46.546L28.7328 47.3733L28.9912 47.2527L29.0257 46.7873L29.1807 46.4942L29.5253 46.2701L29.1807 46.4942L29.0257 46.7873L28.9912 47.2527L28.7328 47.3733L28.8706 47.7181L28.7845 47.9249L29.2669 48.6144L29.4564 49.3557L29.732 50.4071L29.4391 50.8553L29.3875 51.0794L29.6114 51.7344L29.8698 52.4067L30.1455 52.7859L30.1971 53.4064L30.0765 54.2338L29.7665 54.7165L29.198 55.4405L28.974 55.8886L28.6467 56.8712L28.595 57.3366L28.2505 58.3536L28.0954 59.3016L28.1816 59.9911L28.6467 59.7843L29.2152 59.6119L28.6467 59.7843L28.1816 59.9911L28.216 60.8358L28.974 61.9045L29.1635 62.594L29.6459 63.9213L30.111 64.8176L30.4728 65.2658L30.5761 65.8691V67.1792L30.8518 68.8684L31.0585 69.6613L31.2308 70.7301L31.5581 71.5402L32.2299 72.3676L32.6951 71.816L33.0568 72.1263L32.6951 71.816L32.2299 72.3676L32.8329 73.7811V73.7983L33.2636 74.7119L33.8148 75.7461L33.7804 76.5735L33.4875 76.7804L33.7287 77.5044L33.6943 78.1594L33.7976 78.4524L33.8493 78.2973L34.2111 78.7972L34.5212 78.8144L34.8829 79.2109L35.2964 79.1764L35.8993 78.7627L36.6918 78.5903L37.6565 78.1594L38.0355 78.2111L38.604 78.0732L39.586 78.28L40.0511 78.0732L40.6024 78.2456L40.7402 77.9353L41.2053 77.8836L42.2045 77.4527L42.9453 76.9528L43.6516 76.2977L44.8058 75.1773L45.3915 74.3844L45.7016 73.8328L46.1323 73.264L46.339 73.1088L47.0109 72.5572L47.2865 72.0573L47.476 71.161L47.7689 70.3508H47.0626H47.7689L47.8895 69.782L47.6483 69.6958L47.5966 69.2476L48.0445 68.8339L49.216 68.2479L50.0084 67.8687L50.4391 67.4722L50.5941 67.024L50.3874 66.8344L50.5769 66.3173L50.663 65.2486L50.4908 65.3003V64.9728L50.353 64.335L49.9395 63.5076L50.0601 62.7147L50.4563 62.4733L51.1626 61.6804L51.5416 61.4908L52.6959 60.3186L53.7984 59.7843L54.6942 59.3534L55.3316 58.6811L55.7451 57.9227L56.0724 57.1297L55.9173 56.5954L55.9518 54.8889L55.8829 53.9236L55.9518 52.8376L55.814 52.3377L55.4694 52.0964L55.0904 51.0104L54.7803 50.3382L54.8492 49.8038L54.7976 49.4763L55.0904 48.8041L55.056 48.5283L54.453 48.1318L54.4013 47.5112L54.8837 46.1495L55.2627 45.7875L55.4694 45.0635L55.7795 44.6154L55.9346 43.8397L56.2963 43.7707L56.5375 43.3053L57.2266 42.8744L56.6581 41.9608L56.6236 37.9617L57.1232 37.2205L56.6236 37.9617L56.6581 41.9608L57.2266 42.8744L57.4506 42.6158L57.6745 42.0297L58.7254 40.7025L59.6384 39.8751L61.0683 38.7719L62.033 37.8928L63.1355 36.3931L63.9452 35.1693L64.7377 33.5662L65.2889 32.1527L65.7196 30.9288L65.9436 29.7567L66.1331 29.3602L66.0986 28.7742L66.1675 28.1364L66.1331 27.8433ZM62.2742 32.2561L63.1011 32.2389L62.2742 32.2561L59.0871 30.9461L62.2742 32.2561ZM57.9329 28.8431L57.709 28.9293L57.9329 28.8431ZM58.1569 29.0327L58.4153 28.5846L58.1569 29.0327ZM54.453 24.8613L53.9018 25.1198L54.453 24.8613ZM52.1273 23.1548L51.8 24.7751L51.9206 25.206L51.8 26.1541L51.4383 27.2228L50.887 27.7744L50.4908 28.6018L50.4046 29.05L49.9567 29.3602L49.7155 30.5151V30.6358H49.6811H49.7155V30.5151L49.9567 29.3602L50.4046 29.05L50.4908 28.6018L50.887 27.7744L51.4383 27.2228L51.8 26.1541L51.9206 25.206L51.8 24.7751L52.1273 23.1548ZM49.0092 51.631L49.216 52.5618L49.0437 52.8721L48.837 53.7512L48.992 54.6648L48.6819 55.044L48.3546 56.061L48.8542 56.354L48.3546 56.061L48.6819 55.044L48.992 54.6648L48.837 53.7512L49.0437 52.8721L49.216 52.5618L49.0092 51.631L48.5613 51.1483L48.0101 50.8208L47.4071 50.6312L47.0281 50.4416L47.4071 50.6312L48.0101 50.8208L48.5613 51.1483L49.4916 51.3552L49.6811 51.6482L49.75 51.4414L49.6466 51.7689L49.6811 51.6482L49.4916 51.3552L48.5613 51.1483L49.0092 51.631ZM45.96 58.0261L46.0117 58.4398L45.96 58.0261L45.9083 57.2504L45.96 58.0261ZM29.7837 46.3736L30.111 45.9599L29.7837 46.3736ZM31.024 15.9495L30.3522 16.3632L31.024 15.9495ZM31.3341 30.067L31.8682 30.0842L31.3341 30.067L31.0585 30.1359L30.6278 30.0325L31.0585 30.1359L31.3341 30.067ZM46.8041 42.8916L46.7352 43.5294L46.8041 42.8916L46.4079 42.2711L45.8394 42.5986L45.5982 42.4952L45.8394 42.5986L46.4079 42.2711L46.7525 42.1332L47.7689 42.1504L46.7525 42.1332L46.4079 42.2711L46.8041 42.8916ZM44.0478 54.4752L43.307 54.3373L43.1003 53.7512L43.307 54.3373L44.0478 54.4752L44.3923 54.9578L44.7541 55.5611L44.3923 54.9578L44.0478 54.4752ZM36.7779 49.0281L36.8641 48.6317L36.7779 49.0281ZM37.9494 49.0281V49.7176L38.1561 50.1313L38.0011 50.7864L38.0527 51.4759L38.3801 51.8723L38.2939 53.1824L38.3801 51.8723L38.0527 51.4759L38.0011 50.7864L38.1561 50.1313L37.9494 49.7176V49.0281ZM37.9149 58.6639L38.0527 55.1647L40.0511 55.1819L38.0527 55.1647L37.9149 58.6639ZM40.12 54.389L39.965 54.8027L40.12 54.389ZM40.0855 53.3547L39.965 53.8719L40.0855 53.3547ZM40.3267 53.0272L40.3784 53.372L40.3267 53.0272ZM39.4998 35.9622L39.0519 35.8587L38.9141 35.9449L38.6385 36.6L37.9149 36.3931L37.2086 36.2897L37.9149 36.3931L38.6385 36.6L38.9141 35.9449L39.0519 35.8587L39.4998 35.9622L40.5679 35.4278L39.4998 35.9622ZM38.0527 27.2228L38.3973 27.1538L38.0527 27.2228ZM48.0617 28.2053L47.8205 27.8951L48.0617 28.2053L48.1651 28.8776L47.6483 29.4809L47.1831 30.2566L46.7008 30.3772L47.1831 30.2566L47.6483 29.4809L48.1651 28.8776L48.0617 28.2053ZM46.4596 43.6673L46.5113 44.0982L46.718 44.3568V44.7015L46.4768 44.9429L46.0978 45.5117L45.7361 45.9082L45.6499 45.9254L45.7361 45.9082L46.0978 45.5117L46.4768 44.9429L46.718 44.7015V44.3568L46.5113 44.0982L46.4596 43.6673ZM45.1676 36.2035L45.7016 35.9794L45.1676 36.2035ZM44.4612 36.3242L44.7197 36.1345L44.4612 36.3242ZM45.1848 54.5786L45.4432 54.3717L45.1848 54.5786ZM46.4596 48.6144L45.7016 47.8905L46.4596 48.6144ZM48.7853 32.4802L49.371 32.5664L48.7853 32.4802ZM48.4063 27.8433L48.458 27.5848L48.4063 27.8433ZM45.5121 29.9635L45.426 30.2911L44.9264 30.4979L44.8919 30.722L44.9264 30.4979L45.426 30.2911L45.5121 29.9635L45.8739 29.7395L45.5121 29.9635ZM43.1003 30.4462L42.7558 30.6358L43.1003 30.4462L43.8066 30.4979L43.1003 30.4462ZM40.0166 31.5666L40.3095 31.446L40.6368 31.2391L40.8608 30.2566L41.1192 29.7567L41.8083 29.6016L41.1192 29.7567L40.8608 30.2566L40.6368 31.2391L40.3095 31.446L40.0166 31.5666ZM43.2726 34.9279L42.549 34.497L42.2906 33.842L41.8772 33.3766L41.2225 32.7905L41.2053 32.4457L40.6713 31.9976L40.5507 31.9114L40.6713 31.9976L41.2053 32.4457L41.2225 32.7905L41.8772 33.3766L42.2906 33.842L42.549 34.497L43.2726 34.9279L43.4276 35.2899L43.1175 35.3933L42.4973 35.3761L41.7566 35.2554L41.412 35.3589L41.257 35.6174L40.9469 35.6519L41.257 35.6174L41.412 35.3589L41.7566 35.2554L42.4973 35.3761L43.1175 35.3933L43.4276 35.2899L43.2726 34.9279ZM46.2529 50.0624L46.3907 50.0969L46.2529 50.0624ZM49.1643 43.1329L49.4744 42.6675L49.1643 43.1329ZM49.2332 40.668L48.8197 40.9265L48.2168 41.0817L47.7689 41.7195L48.2168 41.0817L48.8197 40.9265L49.2332 40.668ZM47.8722 43.9948L47.855 43.9603L47.8722 43.9948ZM39.8444 23.896L39.0175 23.827L39.8444 23.896ZM35.3136 49.7866L34.7968 49.6314L35.3136 49.7866ZM39.138 60.2497L37.3636 60.6806L39.138 60.2497ZM40.0855 60.6462H40.3612L40.9124 60.3876L40.3612 60.6462H40.0855L39.4481 61.0771L40.0855 60.6462ZM40.8263 53.3547L41.4293 53.4582L41.7394 53.9408L42.5146 54.0959L41.7394 53.9408L41.4293 53.4582L40.8263 53.3547ZM43.3243 59.9911L44.2028 59.0776L43.3243 59.9911L42.773 60.6979L43.3243 59.9911ZM44.668 58.6122L45.2365 58.1812L44.668 58.6122L44.5474 58.9914L44.668 58.6122ZM50.5941 53.6133L50.4219 53.372L50.5941 53.6133ZM49.9395 55.6473L49.9567 55.2164V55.1991L49.9912 55.3026L49.9395 55.6473ZM50.3185 54.7165V54.6993V54.7682V54.7165ZM50.6286 56.0955L50.6803 56.2506L50.6286 56.0955ZM49.7155 42.4262L49.9567 42.1849L49.7155 42.4262ZM35.796 17.4492L39.6549 19.5521L35.796 17.4492L31.9543 15.3462L35.796 17.4492ZM36.3128 31.1357L35.3825 31.0667L36.3128 31.1357ZM33.0913 32.7905L32.8501 32.5492L32.6951 32.5147L32.8501 32.5492L33.0913 32.7905ZM22.376 19.5349L25.0979 17.3802L28.3021 15.2773L27.8715 14.5878L27.1307 14.0879L27.8715 14.5878L28.3021 15.2773L29.8181 15.7599L30.0765 16.0702L29.8009 15.7599L28.2849 15.2773L25.0979 17.3802L22.376 19.5349L21.0323 20.0175L21.0495 22.5342L20.5327 23.2754L20.4465 23.9477L20.5327 23.2754L21.0495 22.5342L21.0323 20.0175L19.9814 20.121L21.0323 20.0175L22.376 19.5349ZM26.6828 26.4643L27.2513 26.4988L26.6828 26.4643ZM28.7845 26.7229L28.0437 26.4126L27.5269 26.3437L28.0437 26.4126L28.7845 26.7229ZM17.449 32.8939L17.6557 31.9114L17.449 32.8939ZM17.3112 30.6358L17.3284 29.8429L17.3112 30.6358ZM16.915 29.274L16.9839 28.9465L16.915 29.274ZM11.2989 18.38L11.7124 23.1203L11.8846 23.2582L11.6607 24.0166L7.81901 24.0339L7.66396 24.2752L7.81901 24.0339L11.6607 24.0166L11.8846 23.2582L11.7124 23.1203L11.2989 18.38L10.8855 13.6569L12.3325 13.6397L10.8855 13.6569L11.2989 18.38ZM9.02491 32.1182L8.97323 32.6009L9.02491 32.1182L8.956 31.9114L9.05937 31.7562L9.40391 31.6183L9.17996 30.7392L8.956 30.2911L9.04214 29.9118L9.23164 29.8256L8.93878 29.5154L8.99046 29.1879L8.86987 29.0672L8.99046 29.1879L8.93878 29.5154L9.23164 29.8256L9.04214 29.9118L8.956 30.2911L9.17996 30.7392L9.40391 31.6183L9.05937 31.7562L8.956 31.9114L9.02491 32.1182ZM6.76815 27.9468L6.50974 27.671L6.76815 27.9468ZM6.75092 24.4303L7.30219 24.2062L6.75092 24.4303ZM8.6976 28.8086L8.66314 29.1706L8.6976 28.8086L8.90432 28.5328L8.5081 28.0674L8.40473 27.7744L8.18078 27.5331L8.40473 27.7744L8.5081 28.0674L8.90432 28.5328L8.6976 28.8086ZM8.80096 32.6698L8.81819 32.6009L8.80096 32.6698ZM19.0511 27.1711L18.6721 27.0849L19.0511 27.1711ZM17.828 28.9638H17.7763H17.828ZM17.3112 24.7751L17.3284 24.6544L17.3112 24.7751ZM14.8649 25.3956L15.0544 25.0509L14.8649 25.3956L14.6065 25.568L14.8649 25.3956ZM17.7074 29.5326L17.9658 29.8256L17.7074 29.5326ZM17.9486 24.6027L18.2931 24.2235L17.9486 24.6027ZM19.7058 27.602L20.4465 28.2398L19.7058 27.602ZM14.1242 6.24485L14.5548 5.83115L15.7607 5.65878L14.5548 5.83115L14.1242 6.24485L13.5901 6.33104L14.1242 6.24485ZM10.4031 8.58914L11.3334 8.41676L12.0914 8.12373L12.4531 7.57213L13.5384 7.1412L12.4531 7.57213L12.0914 8.12373L11.3334 8.41676L10.4031 8.58914L8.86987 9.3993L10.4031 8.58914ZM8.85264 10.6921H8.71482H8.85264ZM7.07824 11.4161L7.40556 11.5712L7.07824 11.4161L6.28579 11.5367L7.07824 11.4161ZM5.95847 12.3986L5.73452 12.4503L5.95847 12.3986ZM5.18325 13.8638L3.83953 15.0359L5.18325 13.8638ZM2.01345 23.0686L2.25463 22.9479L2.01345 23.0686ZM5.71729 12.5882L8.80096 12.6399L5.71729 12.5882ZM6.50974 30.3945L6.25134 29.998H5.47611L5.25216 30.2049L4.99375 30.2393L5.25216 30.2049L5.47611 29.998H6.25134L6.50974 30.3945L6.71647 30.8599L6.68201 31.1702L6.71647 30.8599L6.50974 30.3945ZM8.35305 33.0146L8.54255 32.5664L8.35305 33.0146ZM8.93878 34.2384L9.24887 34.3074L8.93878 34.2384ZM12.367 30.2566L12.1947 29.8946L11.764 29.6533L11.6951 29.0155L11.9708 28.5501L11.9363 28.1709L12.7115 27.2745L12.8494 26.5161L13.125 26.2403L12.8494 26.5161L12.7115 27.2745L11.9363 28.1709L11.9708 28.5501L11.6951 29.0155L11.764 29.6533L12.1947 29.8946L12.367 30.2566L12.7977 30.4807L12.367 30.2566ZM13.5901 26.3954L13.9863 26.1713L14.1242 25.8955L13.9863 26.1713L13.5901 26.3954ZM18.3793 30.7909L18.5688 31.015L18.3793 30.7909ZM23.513 26.6367L23.1512 26.223L22.1865 25.8093L23.1512 26.223L23.513 26.6367L24.0126 26.654L23.513 26.6367ZM25.6319 26.9642L24.4605 26.3954L25.6319 26.9642L26.1143 26.9298L25.6319 26.9642ZM26.166 33.9454L26.7345 33.3076L26.166 33.9454ZM29.7837 29.8774L29.6631 30.4462L29.4564 30.6875L29.2669 31.4632L28.75 31.9114L28.6122 32.463L28.4055 32.9111L28.3194 33.3593L27.6475 33.7385L28.3194 33.3593L28.4055 32.9111L28.6122 32.463L28.75 31.9114L29.2669 31.4632L29.4564 30.6875L29.6631 30.4462L29.7837 29.8774L30.0421 29.1879L30.8345 28.326L30.8862 27.964L30.9896 27.7744L30.5934 27.3262L30.4211 27.3607L29.7492 26.1541L29.5253 26.1196L29.7492 26.1541L30.4211 27.3607L30.5934 27.3262L30.9896 27.7744L30.8862 27.964L30.8345 28.326L30.0421 29.1879L29.7837 29.8774ZM31.6442 45.7875L32.2127 45.2531L32.4539 44.9084L32.4194 43.9948L32.8501 42.9261L33.298 42.3745L33.9354 41.8401L34.0388 41.4954L34.0733 41.0817L34.2283 40.7025L34.1766 40.0819L34.2972 39.1166L34.4867 38.4271L34.7623 37.841L34.814 37.186L34.1938 37.1171L33.5392 36.9275L32.9707 37.5135L32.4711 38.5305L32.9707 37.5135L33.5392 36.9275L34.1938 37.1171L34.814 37.186L34.9002 36.4103L35.2792 35.8587L35.796 35.514L36.5884 35.876L35.796 35.514L35.2792 35.8587L34.9002 36.4103L34.814 37.186L34.7623 37.841L34.4867 38.4271L34.2972 39.1166L34.1766 40.0819L34.2283 40.7025L34.0733 41.0817L34.0388 41.4954L33.9354 41.8401L33.298 42.3745L32.8501 42.9261L32.4194 43.9948L32.4539 44.9084L32.2127 45.2531L31.6442 45.7875L31.0585 46.477L31.6442 45.7875ZM33.8321 49.8728L33.4703 49.3039L33.2463 48.9419L32.9707 48.2869L32.7468 47.4768L32.9707 48.2869L33.2463 48.9419L33.4703 49.3039L33.8321 49.8728ZM28.4055 43.788L29.0601 43.6501L28.4055 43.788ZM29.1463 43.1674L29.6631 43.6845L30.5072 43.7362L29.6631 43.6845L29.1463 43.1674ZM30.5417 60.0601L30.3866 60.129L30.5417 60.0601L34.4178 60.0084L30.5417 60.0601ZM35.7271 68.1789L35.5376 72.2469L34.6762 72.7985L34.1766 72.8847L33.6081 72.6779L33.1947 72.5917L33.6081 72.6779L34.1766 72.8847L34.6762 72.7985L35.5376 72.2469L35.7271 68.1789L35.8304 64.99L36.7607 64.9555L36.9157 61.0426L37.6221 61.0081L39.1036 60.6289L37.6221 61.0081L36.9157 61.0426L36.7607 64.9555L35.8304 64.99L35.7271 68.1789L35.9682 68.3513L36.4851 69.4028L35.9682 68.3513L35.7271 68.1789ZM44.289 73.1088L43.9961 72.7813L43.5999 72.4366L43.152 72.6607L42.6179 73.0916L42.0667 73.7811L42.6179 73.0916L43.152 72.6607L43.5999 72.4366L43.9961 72.7813L44.289 73.1088ZM46.2701 70.9541L45.7533 70.3508L45.7705 69.9716L46.0462 69.5579L46.1667 69.2476L46.4424 69.1615L46.1667 69.2476L46.0462 69.5579L45.7705 69.9716L45.7533 70.3508L46.2701 70.9541L46.8386 70.8335L46.2701 70.9541ZM48.3201 60.7496L48.0962 61.508L48.0101 62.3182L48.1479 62.6457L48.0101 63.2835L47.855 63.3869L47.5794 64.1798L46.5113 65.4209L46.8903 66.9723L47.0798 67.748L46.8386 68.9718L46.9075 69.3683L46.8386 68.9718L47.0798 67.748L46.8903 66.9723L46.5113 65.4209L46.0117 65.3175L45.6844 65.4554L45.2365 65.2658L44.8575 65.2486L43.4793 66.0587L42.5835 66.8689L42.2389 67.6101L41.9461 68.0238L41.4293 68.11L41.2225 68.6271L41.1192 68.9718L40.499 69.2304L39.741 69.1787L39.3103 68.8684L38.9141 68.7305L38.449 68.9891L38.1906 69.5234L37.7254 69.851L37.2431 70.3336L36.554 70.4543L36.3645 70.0578L36.554 70.4543L37.2431 70.3336L37.7254 69.851L38.1906 69.5234L38.449 68.9891L38.9141 68.7305L39.3103 68.8684L39.741 69.1787L40.499 69.2304L41.1192 68.9718L41.2225 68.6271L41.4293 68.11L41.9461 68.0238L42.2389 67.6101L42.5835 66.8689L43.4793 66.0587L44.8575 65.2486L44.2718 64.7487L43.5482 64.5935L43.2898 63.8868L43.307 63.5076L42.9108 63.3869L41.8772 62.1803L41.6015 61.5425L41.412 61.3529L41.0847 60.4738L41.412 61.3529L41.6015 61.5425L41.8772 62.1803L42.9108 63.3869L43.307 63.5076L43.2898 63.8868L43.5482 64.5935L44.2718 64.7487L44.8575 65.2486L45.2365 65.2658L45.6844 65.4554L46.0117 65.3175L46.5113 65.4209L47.5794 64.1798L47.855 63.3869L48.0101 63.2835L48.1479 62.6457L48.0101 62.3182L48.0962 61.508L48.3201 60.7496L48.3718 59.3534L47.8895 59.0086L47.4416 58.9224L47.2521 58.6466L46.8041 58.4225L47.2521 58.6466L47.4416 58.9224L47.8895 59.0086L48.3718 59.3534L48.3201 60.7496ZM49.371 56.8712L49.6466 56.7677L49.371 56.8712ZM50.7836 58.6811L50.4563 59.4568L50.7836 58.6811L51.2143 58.457L51.1971 57.0435L50.8181 56.2506L50.5941 56.0093L50.8181 56.2506L51.1971 57.0435L51.2143 58.457L50.7836 58.6811ZM50.9559 53.5616L52.1101 53.8719L50.9559 53.5616ZM53.3849 53.3892L53.9534 53.4064L53.3849 53.3892ZM54.5908 37.186L54.3841 37.0654L54.1602 37.0826H53.8501L52.6097 36.1518H51.9379L51.5933 35.7898V35.1693L51.0937 34.9796L51.5933 35.1693V35.7898L51.9379 36.1518H52.6097L53.8501 37.0826H54.1602L54.3841 37.0654L54.5908 37.186L55.2455 37.2722L54.5908 37.186ZM56.7959 36.7206L56.3997 36.3586L56.7959 36.7206H57.4506H56.7959Z" fill="#C6C6C6"/>
</svg>
