<svg width="83" height="76" viewBox="0 0 83 76" fill="none" xmlns="http://www.w3.org/2000/svg">
<rect width="83" height="76" fill="#E5E5E5"/>
<g clip-path="url(#clip0)">
<rect width="1440" height="1662" transform="translate(-50 -347)" fill="#F6F6F6"/>
<g filter="url(#filter0_d)">
<rect x="-12.8998" y="-94.8405" width="369.86" height="654.005" rx="5" fill="white"/>
</g>
<mask id="mask0" mask-type="alpha" maskUnits="userSpaceOnUse" x="0" y="-13" width="344" height="101">
<rect x="1.13141" y="-12.2538" width="341.798" height="99.8664" rx="4.75" fill="#FCFCFC" stroke="#E4E4E4" stroke-width="0.5"/>
</mask>
<g mask="url(#mask0)">
<rect x="1.13141" y="-12.2538" width="341.798" height="99.8664" rx="4.75" fill="#FCFCFC" stroke="#E4E4E4" stroke-width="0.5"/>
<path d="M57.6561 74.2844L57.2782 73.8808L57.0137 73.6286L56.6862 73.5655L56.3964 73.7925L56.409 74.1456L56.3082 74.3979L55.6784 74.1961L54.9226 73.843L54.5195 73.7294L55.3761 74.3348L55.9303 74.6123L56.5854 74.915L57.0515 74.9907L57.4294 75.1546L57.6939 75.1925L57.9081 75.2051L58.1852 75.0411L58.223 74.8393L58.5127 75.0159L58.8906 74.9907L58.9788 74.7258L58.3364 74.5997L57.6561 74.2844Z" fill="#C6C6C6"/>
<path d="M68.5021 47.3608L68.3132 47.1843L67.8849 47.1717L67.5069 47.0078L66.8645 46.3776L66.1213 45.9113L65.3781 45.9365L64.4207 45.634L63.8538 45.8104L63.9294 45.5079L63.6901 45.1676L62.8587 44.8273L62.2288 44.6256L61.8635 44.9911L61.8383 44.4365L60.9691 44.3483L60.8179 44.1718L61.1833 43.7181L61.1707 43.3273L60.9061 43.2391L60.6416 42.256L60.5282 41.9535L60.3644 41.9787L60.2889 41.7518L59.7724 41.2728L59.4071 41.1468L59.2433 41.0837L58.9662 41.5627L59.2433 41.0837L58.7142 40.9325L58.3111 40.9703L58.2607 41.0711L57.6687 40.9703L57.4797 40.7686L57.2278 40.4913L57.0388 40.4787L57.0262 40.1888L56.7365 39.8233L56.4216 39.609L56.0185 39.9493L55.9681 40.151L56.1319 40.3527L56.0059 40.4535L55.7036 40.5544V40.8064L55.565 40.9703L55.8925 41.3989L55.9555 41.5627L55.8925 41.3989L55.565 40.9703L55.7036 40.8064V40.5544L56.0059 40.4535L56.1319 40.3527L55.9681 40.151L56.0185 39.9493L56.4216 39.609L56.2326 39.483L55.9807 39.4956L55.9177 39.0418L55.5524 38.7645L55.1619 38.7267L54.9981 38.462L55.4264 38.2982L54.8344 38.3108L54.2297 38.3486L54.2171 38.4872L53.94 38.6511L53.5747 38.5881L53.2975 38.336L52.7685 38.399L52.3276 38.3864L52.315 38.1973L52.0126 37.8948L51.6725 37.8822L51.5214 37.4915L51.3324 37.6679L51.3828 37.9326L50.7529 38.1595V38.5881L50.8915 38.7771L50.7655 39.1805L50.5514 39.2183L50.3876 38.7771L50.627 38.4494L50.6522 38.1595L50.501 37.9074L50.7907 37.8318L50.8159 37.7057L50.4884 37.8066L50.8159 37.7057L50.9167 37.5167L50.8033 37.3654L50.627 37.3276L50.375 37.6049L50.1735 37.731L49.7704 38.0083L49.3925 37.9704L49.3547 38.0839L49.0397 38.0965L48.75 38.3612L48.624 38.8401L48.6114 39.0292L48.3973 39.0922L48.0068 39.483L47.7548 39.4704L47.5785 39.3065L47.4273 39.1427L47.2132 39.0418L46.936 39.0292L46.9612 38.9788L46.6841 38.941L46.5077 39.1048L46.2054 39.2183L45.9913 39.3569L45.7519 39.3947L45.626 39.2561L45.5882 39.2939L45.3866 39.2687L45.3992 39.1553L45.2354 38.9536L45.0465 39.004L45.2354 38.9536L45.0213 38.7141L44.8449 38.4872L44.7442 38.1847L44.6686 38.0839L44.656 37.9326L44.7568 37.794L44.7442 37.6427L44.8071 37.4032L44.8827 37.3402L44.8953 37.0881L44.8827 36.9369L44.9205 36.6848L44.9961 36.4705L45.1221 36.2814L45.0969 36.0798L45.1347 35.9537L45.1851 35.9033L45.0717 35.7394L44.9079 35.6512L44.782 35.5252L44.6434 35.4243L44.5678 35.4117L44.3537 35.3361L44.2529 35.3739L44.1269 35.3865L44.0135 35.3487L43.8624 35.3109L43.7868 35.3739L43.623 35.4369L43.3963 35.4495L43.1821 35.3991L43.1066 35.4369L43.0688 35.3865L42.9302 35.3991L42.8168 35.5L42.7664 35.4874L42.6405 35.4117L42.5901 35.4874L42.4389 35.3865H42.2751H42.4137L42.5397 35.1975L42.6279 35.1849L42.7412 35.0336L42.8294 34.7563L42.8042 34.7059L42.8798 34.5042L42.842 34.416L42.9554 34.1765L42.9806 34.0126H42.8798L42.8924 33.937L42.9932 33.9244L43.094 34.0631L43.2703 33.6219L43.3711 33.3824L43.2955 33.2816L43.4593 32.9413L43.7616 32.6009L43.812 32.3236L43.7112 32.2102L43.4089 32.248L42.9806 32.2354L42.4515 32.3615L42.0988 32.5127L41.998 32.6766L41.8972 33.1555L41.7335 33.4832L41.3934 33.7101L41.0784 33.811L40.7005 33.9118L40.3226 33.9622L39.8691 34.1261L39.7054 33.8992L39.2141 33.7479L39.0503 33.4706L38.9873 33.1555L38.7228 32.7396L38.685 32.2984L38.5842 32.0211L38.5464 31.7186L38.6472 31.4413L38.811 30.6851L38.9747 30.2943L39.2519 29.8027L39.2015 29.6137L39.2393 29.3364L39.3274 28.9456L39.4912 28.6936L39.8187 28.4163L40.3478 28.1768L40.8895 27.7608L41.3178 27.6348L41.6201 27.597L41.9224 27.723L42.3507 27.6474L42.6405 27.9499L42.9806 27.9625L43.1947 27.8617L43.3459 27.9373L43.4593 27.8617L43.3837 27.7482L43.4467 27.5339L43.4089 27.3827L43.623 27.2945L43.9883 27.2566L44.404 27.3197L44.9457 27.244L45.2102 27.3701L45.3866 27.6348L45.4622 27.66L46.0039 27.4079L46.1676 27.4961L46.4322 27.9625L46.5077 28.265L46.3314 28.6305L46.3692 28.8448L46.5077 29.2734L46.6841 29.7523L46.8479 29.8784L46.8857 30.1305L47.1124 30.2061L47.2636 30.1305L47.4399 29.7901L47.5029 29.5759L47.5785 29.1977L47.4777 28.5423L47.5155 28.3028L47.3895 27.9121L47.3265 27.4331L47.3391 27.0424L47.5029 26.6516L47.8052 26.3113L48.1328 26.0466L48.7374 25.6811L48.8508 25.492L49.1405 25.2903L49.3925 25.2525L49.783 24.9122L50.312 24.7484L50.7151 24.3198L50.7907 23.7526L50.8033 23.5635L50.6774 23.5257L50.8033 22.9837L50.5388 22.7947L50.8159 22.8829V22.5174L50.9797 22.2779L50.8915 22.7442L51.0679 22.9585L50.8159 23.3493L50.8537 23.3619L51.2442 22.9081L51.4584 22.6938L51.5088 22.4795L51.4332 22.3787L51.4206 22.0762L51.5214 22.2149L51.6221 22.2527L51.6095 22.3913L52.063 21.9628L52.2772 21.572L52.1512 21.5468L52.3402 21.383L52.3024 21.4586H52.5921L53.2723 21.2947L53.1716 21.1939L52.4787 21.2947L52.907 21.1309L53.1842 21.1057L53.3983 21.0805L53.7636 20.9796L53.9778 20.9922L54.3179 20.904L54.4061 20.7527L54.3053 20.6267L54.2927 20.8158L54.1037 20.8032L54.0533 20.5133L54.1541 20.2233L54.2801 20.1099L54.6202 19.7822L55.1367 19.6183L55.6658 19.4293L56.22 19.1646L56.2074 18.9881L56.7239 18.9125L57.4419 18.8999L56.5224 19.3536L56.3964 19.8074L56.7239 19.8452L57.3538 19.4545L57.8702 19.2402L58.941 18.9125L59.596 18.547L59.3693 18.3579L59.4575 17.9671L58.8276 18.5848L58.0718 18.6604L57.5931 18.3831L57.5805 17.9798L57.6309 17.3747L58.1726 17.0092L57.8828 16.7319L57.2152 16.7823L56.1445 17.2361L55.1871 17.9545L54.784 18.0428L55.4642 17.5386L56.3586 16.8075L56.9884 16.5681L57.4923 16.1773L57.9458 16.1395L58.5883 16.1521L59.4701 16.2655L60.2259 16.1773L60.9061 15.7236L61.6745 15.5345L62.0399 15.3454L62.4052 15.1437L62.5815 14.5387L62.4807 14.3371L62.1784 14.2614V13.8077L61.9769 13.6438L61.3722 13.5052L61.1203 13.2027L60.692 12.9002L60.9943 12.5724L60.8179 11.9422L60.5912 11.2868L60.503 10.833L60.1251 11.0725L59.4701 11.6397L58.752 11.917L58.6135 11.6145L58.2859 11.5263L58.4749 10.8834L58.7016 10.4549L58.0214 10.4171L58.0088 10.228L57.6939 9.9381L57.4293 9.76164L57.0388 9.88768L56.6735 9.84987L56.0941 9.71122L55.7539 9.82466L55.4138 10.6187L55.3256 11.0851L54.5572 11.6271L54.8344 12.0178L54.8722 12.459L54.721 12.8119L54.3053 13.1774L53.6502 13.543L52.8566 13.7951L53.0078 14.0724L52.8188 14.9169L52.3276 15.4715L51.9245 15.6353L51.5339 15.1185L51.5214 14.5135L51.6725 13.9841L51.9874 13.5304L51.5591 13.48L50.9041 13.4421L50.5892 13.2279L50.1609 13.0892L50.0097 12.8371L49.72 12.6481L49.1027 12.4212L48.4729 12.522L48.5359 12.1313L48.6618 11.6523L48.1328 11.5641L48.5611 10.9591L48.9894 10.5557L49.8208 9.98852L50.5766 9.58518L51.0679 9.52215L51.3198 9.19444L51.7733 8.98016L52.3402 8.94235L53.0204 8.60203L53.2723 8.38775L53.9274 7.97181L54.2045 7.71972L54.4816 7.87097L55.0485 7.79534L55.9933 7.45502L56.1948 7.21554L56.1193 6.96345L56.5602 6.71136L56.7113 6.47187L56.409 6.24499L55.9303 6.16937L55.4516 6.13155L55.0485 6.64834L54.4816 7.05168L53.8518 7.40461L53.7384 7.07689L54.1037 6.72396L53.9148 6.42146L53.1464 6.78699L53.5243 6.30802L52.9448 6.21978L53.4487 5.9929L53.4109 5.46352L53.2471 5.26184L52.8566 5.18622L52.1386 5.52654L51.6599 6.04332L51.9119 6.23239L52.0504 6.52229L51.4962 7.00126L51.219 6.98866L50.6774 7.37939L51.0427 6.92564L50.6144 6.76178L50.2239 6.8374L50.0097 7.13991L49.4932 7.12731L48.8634 7.20293L48.4099 6.98866L47.969 7.02647L47.843 6.77438L47.6541 6.66094L47.314 6.69875L46.8605 6.72396L46.4699 6.88782L46.6463 7.08949L46.0291 7.34158L45.9031 7.05168L45.5126 7.13991L44.4796 7.19033L43.9128 7.08949L44.656 6.86261L44.404 6.61052L44.0135 6.64834L43.5978 6.5601L42.9428 6.39625L42.6027 6.19458L42.2122 6.16937L41.9224 6.30802L41.406 6.38364L41.7461 6.01811L40.9147 6.33323L40.7887 5.91728L40.5997 5.86686L40.2596 6.08114L39.8691 6.18197L39.8565 5.9929L39.1385 6.11895L38.3701 6.32062L37.9166 6.2702L37.2993 6.40885L36.7577 6.61052L36.4301 6.57271L36.1404 6.34583L35.6239 6.23239L35.3216 6.16937L34.9563 6.03072L34.3894 6.10634L34.2005 6.04332L33.5706 6.00551L33.0289 5.86686L32.6006 5.90467L32.1723 5.82905L32.3487 5.72821L31.7944 5.703L31.5047 5.79123L31.5425 5.57696L31.152 5.47612L30.2576 5.72821L29.9805 5.703L29.0105 5.90467L28.5822 5.95509L27.902 6.16937L27.4737 6.39625L26.7178 6.61052L26.0502 6.62313L25.4959 6.87522L25.7731 7.02647L25.8361 7.22814L25.7605 7.46763L25.962 7.65669L25.8613 7.9592L25.055 7.97181L25.433 7.71972H25.1432L23.9843 7.9592L23.1781 8.16087L23.2663 8.45077L23.1655 8.63984L23.556 8.76589L24.1607 8.70286L24.3244 8.81631L24.5764 8.70286L25.118 8.60203H25.3574L24.8409 8.7911L24.9417 8.87933L24.7275 9.10621L24.2488 9.27006L24.0347 9.23225L23.4174 9.47174L23.2537 9.39611L22.8884 9.43392L22.4223 9.69862L21.7546 9.97592L21.2382 10.2784L21.2633 10.4927L20.9106 10.7826L21.0366 10.9086L21.0744 11.1481L21.7042 11.0473L21.742 11.2364L21.4523 11.4254L21.1374 11.7279H21.3893L22.0192 11.5263L21.8806 11.7784L22.1955 11.5893L22.1577 11.854L22.586 11.6649L22.6238 11.7657L23.2537 11.6019L22.712 11.9044L22.2081 12.2951L21.7042 12.4842L21.5027 12.585L20.5957 12.9002L20.1674 13.1144L19.6005 13.1774L18.8573 13.4674L18.2779 13.6312L17.5598 13.8833L17.522 13.9715L18.4038 13.8203L18.9329 13.6438L19.5376 13.4674L20.0792 13.3161L20.3312 13.3539L21.0492 13.127L21.4397 12.8749L22.3593 12.5976L22.6994 12.3708L23.2789 12.2069L23.9465 11.9926L24.7275 11.6271L24.7149 11.375L25.6975 11.0095L26.3525 10.6692L27.1587 10.3919L27.121 10.5179L26.5289 10.6818L25.7983 11.1859L25.5211 11.4885L26.088 11.375L26.6297 11.2112L27.1965 11.0977L27.4485 11.0725L27.7508 10.707L28.3051 10.6061L28.5318 10.8204L29.0609 11.0599L29.6529 11.0221L30.1568 11.1985L30.434 11.2994L30.7237 11.8414L31.0512 11.9926L31.6811 12.0052L32.0464 12.043L31.807 12.522L31.9456 12.9506L31.6559 13.4043L31.87 13.5682L31.9204 13.7573L31.7063 14.0346L31.8952 14.4253L31.6181 14.8538L31.9834 15.0807L31.6685 15.4084L31.5551 15.8874L32.1598 16.1017L32.2983 16.3412L32.777 16.8832H32.84L32.7014 17.3369L32.4873 17.7907L32.2857 17.9293L32.3865 17.4126L31.87 17.2235L31.7441 17.3243L31.7063 17.5764L31.5425 18.0554L31.1772 18.7864L30.8245 19.278L30.4718 19.7696L29.9931 20.2864L29.8923 20.7023L29.6404 21.1687L29.3002 21.6224L29.3884 21.925L29.2247 22.3787L29.3506 22.8577L29.464 23.0468L29.3884 23.1728L29.4262 23.9669L29.6404 24.5341L29.5648 24.8366L29.6529 24.9248L30.0561 24.9878L30.1694 25.1391L30.4214 25.1643L30.4088 25.3282L30.5977 25.3912L30.7867 25.7189L30.7615 25.9962L30.7741 26.5004L30.8371 26.9541L30.9001 27.3197L30.9756 27.6726L31.2024 27.8364L31.4543 28.2272L31.3661 28.4793L31.1268 28.6809L30.9378 28.6557L30.8875 28.6936L31.089 29.0213L31.341 29.1473L31.4291 29.2986L31.5047 29.2229L31.7818 29.475L31.9708 29.6515L31.9834 29.954L31.8826 30.3699L32.0968 30.5086L32.3865 30.7859L32.6384 31.101L32.7014 31.4413H32.7896L33.0289 31.2397L33.0667 31.1388L32.9408 30.8867L32.8022 30.6346L32.5755 30.622L32.6132 30.3195L32.5377 30.0548L32.4495 29.8027L32.4117 29.286L32.1849 29.0087L32.1346 28.807L32.0338 28.6683V28.3028L31.9456 28.3154L31.933 28.1263L31.87 28.0885L31.8322 27.9625L31.5929 27.5718L31.4921 27.3449L31.5803 26.9163L31.5929 26.6516L31.7566 26.4247L31.9708 26.576L32.1346 26.5634L32.4117 26.7777L32.3361 26.9919L32.3739 27.4205L32.4999 27.8364L32.4621 28.0129L32.6132 28.2902L32.8148 28.5927L33.0541 28.6305L33.0793 29.0213L33.2935 29.2986L33.5076 29.4246L33.3439 29.7775L33.4069 29.9036L33.7722 30.1305L33.9359 30.4834L34.3264 30.9119L34.6666 31.4791L34.7799 31.7564V31.9707L34.9059 32.2228L34.8807 32.4119L34.7421 32.5505L34.7673 32.7144L34.6036 32.7774L34.6792 33.0547L34.8681 33.4076L35.3342 33.7227L35.498 33.9748L35.9766 34.1513L36.2412 34.1891L36.342 34.3404L36.7073 34.605L37.2237 34.8697L37.5765 34.9454L38.0048 35.1975L38.3575 35.2983L38.685 35.4495L38.9369 35.3865L39.3652 35.1722L39.6424 35.1344L40.0329 35.2731L40.2596 35.4622L40.7383 36.0672L40.7761 35.9033L40.8517 35.7773L40.7887 35.6764L41.0784 35.2227L40.7887 35.6764L40.8517 35.7773L40.7761 35.9033L40.7383 36.0672L40.9777 36.294L41.1918 36.4075L41.4941 36.4201L41.7461 36.5209L41.872 36.6344L42.1492 36.6722L42.3381 36.7856L42.5019 36.836L42.7916 36.8486L42.8546 36.7226L42.905 36.5083L42.8546 36.7226L43.0058 36.773L43.0688 36.9495L43.031 36.9873L42.9554 36.8991L42.8924 36.9873L43.1192 37.2394L43.3081 37.4158L43.3963 37.6049L43.6104 37.8318L43.7742 38.0083L43.6482 38.1091L43.7742 38.1847L43.6986 38.3612L43.686 38.5376L43.749 38.6511L43.9002 38.7015L44.0009 38.8654L44.1017 38.7267L44.0765 38.5628L44.2025 38.6637L44.2277 38.8275L44.3914 38.9032L44.5804 39.0166L44.7064 39.1427L44.719 39.2687L44.656 39.3695L44.7568 39.483L45.0087 39.609L45.0591 39.6973L45.0843 39.5712H45.2984L45.4244 39.6342L45.626 39.672L45.7141 39.8863L45.8779 39.9241L45.9535 39.8233L46.0291 40.1636L46.2558 40.1384L46.3314 40.0628L46.4574 39.9872L46.2432 39.6846L46.2936 39.5712L46.407 39.546L46.6085 39.4073L46.7093 39.2183L46.9234 39.1805L47.1628 39.3443L47.251 39.5334L47.3769 39.5712L47.251 39.7225L47.3391 40.025L47.5029 40.1888L47.6919 40.4913L47.7422 40.9703L47.6415 41.109L47.7422 41.6257L47.6415 41.9535L47.8178 42.0795L47.6289 42.3694L47.4147 42.7223L47.1628 42.7601L47.0368 42.9618L47.0494 43.2391L46.8605 43.2769L46.936 43.4534L46.5959 43.6677L46.3188 43.7937L46.3566 44.0206L46.1676 44.3861L46.0794 44.7264L45.9157 44.8147L46.0039 45.3314L45.9031 45.4953L46.2054 45.7348L46.3944 45.4827L46.5077 45.7348L46.2558 46.1507L46.3188 46.3902L46.1928 46.5163L46.2054 46.7179L46.1928 46.5163L46.3188 46.3902L46.2558 46.1507L45.8653 46.5037L45.7267 46.8944L45.9913 47.4364L45.8401 47.6885L46.2054 47.9154L46.5959 48.2809L46.7723 48.6968L46.9864 48.9489L47.5155 50.0707L48.0572 51.1043L48.5359 51.848L48.4603 52.0118L48.7122 52.4782L49.1153 52.8185L50.0601 53.4235L51.0805 53.9907L51.1434 54.2176L51.6599 54.5453L51.8993 54.4067L52 54.1168L52.252 53.5117L52 54.1168L52.2772 54.4949L52.3779 54.8982L52.6551 55.1377L52.5543 55.6797L52.8818 56.3099L52.9322 56.4612L52.8818 56.3099L52.5543 55.6797L52.6551 55.1377L52.3779 54.8982L52.2772 54.4949L52 54.1168L51.8993 54.4067L51.6599 54.5453L51.8489 55.3394L51.9748 56.2595L51.9622 57.5074V58.667L52.0378 59.751L51.8741 60.4316L52.063 61.1122L52.0252 61.5786L52.3024 62.4105L52.2898 63.2424L52.189 64.1373L52.1386 65.0574L51.9496 65.07L52.1638 65.7129L52.4535 66.2675L52.3528 66.6456L52.5165 67.6666L52.6425 68.4354L52.9448 68.5111L52.844 67.8304L53.1968 67.9691L53.3605 69.0909L52.7936 68.9018L52.97 69.7967L52.7307 70.2757L53.4487 70.4395L53.1464 70.8681L53.159 71.3975L53.5999 72.3302L53.9652 72.6957L53.9778 73.0109L54.2675 73.3512L54.9225 73.6537L55.5776 74.0192L56.1193 74.1957L56.2956 74.1831L56.1319 73.6789L56.4342 73.4898L56.5853 73.3638H56.9507L57.1396 73.4016L56.7239 73.0865L56.3586 72.5319L56.4342 72.2798L56.7365 72.0655L56.7743 71.4353L57.19 71.1328L57.1774 70.6412L56.7239 70.5278L56.1571 70.137L56.1445 69.7211L56.3964 69.4438L56.8121 69.4312L56.8247 69.1413L56.7239 68.5993L56.9759 68.259L57.3412 68.0951L57.127 67.8178L56.9381 67.9943L56.5853 67.8304L56.3712 67.2884L56.4972 67.1498L56.9884 67.3515L57.4293 67.2758L57.6435 67.0868L57.4797 66.8095L57.4671 66.3809L57.2908 66.0406L57.8073 66.091L58.7016 65.9776L59.3063 65.6751L59.596 64.944L59.5708 64.6667L59.2307 64.4146L59.2181 64.0239L58.5379 63.5449L58.5127 63.255L58.8528 63.5575L59.1677 63.5449L59.6464 63.7844L59.8858 63.734L60.2511 63.8348L60.7172 63.5323L60.8557 63.1794L60.6668 62.8517L60.8305 62.587L60.4904 62.2088L60.0621 61.9063L59.5204 61.5408L59.3567 61.5534L58.815 61.1248L58.5127 61.1879L59.0292 60.4316L59.4953 59.8896L59.0292 60.4316L58.5127 61.1879L58.815 61.1248L59.3567 61.5534L59.5204 61.5408L60.0621 61.9063L60.4904 62.2088L60.8305 62.587L60.6668 62.8517L60.8557 63.1794L61.1077 62.8517L61.2336 62.3223L61.5108 62.0576L61.8509 61.6164L62.2414 60.6333L62.5437 60.3308L62.6193 60.0535L62.6445 59.4863L62.5311 59.1838L62.5563 58.7552L62.9216 58.2006L63.4507 57.7468L63.9798 57.583L64.2947 57.3309L65.0379 57.1166H65.5544L65.6552 56.7763L66.0205 56.5242L66.0709 55.957L66.5244 55.226L66.5622 54.4823L66.7007 54.2554L66.7259 53.8899L66.8267 53.0202L66.7385 51.974L66.8645 51.5581L66.9905 51.5454L67.3306 51.0665L67.6203 50.4363L68.3006 49.6674L68.5399 49.3019L68.7163 48.3817L68.6281 48.0414L68.5021 47.3608ZM42.4515 34.2395L42.4389 34.3277L42.4515 34.2395ZM50.9041 19.7318L51.3072 19.6561L51.471 19.757L51.6347 19.6309L51.7985 19.5553L51.8741 19.5931L51.8867 19.6057L51.8993 19.6814L51.8489 19.8956L51.4458 20.0721L51.1057 20.0343L50.7529 20.0217L50.5262 20.0847L50.501 20.2486L50.4884 20.299L49.9719 20.6267L49.5814 20.7905L49.3295 20.8662L49.0019 21.0174L48.6492 21.0931L48.4351 21.0678L48.1957 20.9544L48.4351 20.7401L48.6744 20.7779L49.0649 20.6015L49.3169 20.4502L49.4554 20.425L49.6822 20.4754L49.8334 20.3998L50.0853 20.3242L50.501 20.2486L50.5262 20.0847L50.501 20.0973L50.3498 20.1225L50.1861 20.0721L50.3876 19.883L50.5514 19.82L50.9041 19.7318ZM45.3236 17.1605L45.7267 17.2487L46.0668 17.4126L46.4574 17.3369L46.9234 17.4756L47.2006 17.2613L47.4777 17.1731L47.6415 17.047L47.7674 16.9714L48.1202 17.0722L48.4099 17.0848L48.4855 17.1605L48.4981 17.463L48.9516 17.5512L48.8004 17.7025L48.9012 17.8663L48.7374 18.068L48.9012 18.1436L48.7374 18.3327L48.8382 18.3453L48.9516 18.2697L48.9894 18.3957L49.2917 18.4587L49.6318 18.4713L49.9719 18.5217L50.3246 18.6226L50.4002 18.799L50.5262 19.215L50.312 19.3915L49.9719 19.3158L49.8837 18.9755L49.8082 19.3158L49.468 19.6183L49.3925 19.8704L49.2917 20.0217L48.9264 20.1981L48.9894 19.9839L49.0271 19.6814L48.8886 19.6183L48.5107 19.8704H48.4477L48.4729 19.7444L48.813 19.5301L48.9516 19.278L49.0145 19.0259L48.7752 18.8116L48.4477 18.6982L48.2965 18.9125L48.1705 18.9629L47.9816 19.2402L48.0194 19.0511L47.7926 19.1772L47.6037 19.3536L47.3769 19.6309L47.2636 19.8578L47.2762 20.1981L47.1124 20.5511L46.8227 20.8158L46.6967 20.8914L46.5581 20.9544H46.3944L46.3692 20.9166L46.3566 20.6267L46.4196 20.488L46.4825 20.362L46.5329 20.0973L46.7471 19.7948L46.999 19.4167L47.4021 19.0007H47.3391L46.8605 19.3536L46.8227 19.2906L47.0746 19.0889L47.4903 18.736L47.8178 18.6982L48.2083 18.5848L48.5359 18.6478H48.5485L48.9642 18.61L48.8382 18.3957L48.7374 18.3831L48.6114 18.3579L48.5737 18.2066L48.1202 18.2444L47.6793 18.3705L47.4651 18.1688L47.251 18.0932L47.5281 17.8033L47.062 17.9798L46.6337 18.1688L46.2306 18.2949L46.0417 18.1058L45.563 18.2192L45.6008 18.1436L46.0039 17.9167L46.4196 17.7025L46.936 17.5134L46.4699 17.3747L46.0794 17.4504L45.7393 17.2865L45.3236 17.1605L45.0465 17.1226L45.3236 17.1605ZM44.8827 16.7445H45.0213H44.8827L44.7694 16.9588L44.8827 16.7445ZM31.8574 26.097L31.9456 25.9836L31.8574 26.097L32.3991 26.3365L31.8574 26.097ZM33.4195 26.7525L32.651 26.4374L33.4195 26.7525ZM34.7421 26.7525L34.8177 26.5256L34.7421 26.7525ZM41.5319 34.3277L41.4941 34.6429L41.5319 34.3277ZM41.6705 35.2983L41.7083 35.1092L41.6327 35.0714L41.5949 34.9454L41.4311 34.8193L41.2674 34.6303L41.4311 34.8193L41.5949 34.9454L41.6327 35.0714L41.7083 35.1092L41.6705 35.2983ZM42.124 36.231L42.2374 36.0924L42.124 36.231L42.25 36.2688L42.124 36.231ZM42.5019 36.5461L42.4893 36.4705L42.5019 36.5461ZM42.2626 35.8655L42.2248 35.9663L42.2626 35.8655L42.5145 35.7016L42.2626 35.8655ZM44.3537 36.0041L44.4292 36.0798L44.3537 36.0041ZM46.7849 47.0835L46.5707 46.8062L46.3692 46.7431L46.5707 46.8062L46.7849 47.0835ZM51.282 45.8356L50.9797 46.4028L51.282 45.8356ZM50.1861 38.2477L50.375 38.0839L50.1861 38.2477ZM49.6444 49.0246L49.4177 48.5078L49.6444 49.0246L49.6822 49.0624L49.6444 49.0246ZM49.8208 48.0162L49.531 48.1801L49.8208 48.0162ZM50.8663 46.7684L50.4632 46.8692L49.9215 47.2473L50.4632 46.8692L50.8663 46.7684ZM51.2064 50.4741L51.1938 49.617L51.2064 50.4741ZM50.9293 46.6801L50.8789 46.7558L50.9293 46.6801L51.3828 46.7053L50.9293 46.6801ZM51.3828 43.6929L51.6725 43.7559L51.3828 43.6929ZM52.6425 43.3399L52.5039 43.1635L52.6425 43.3399L52.7307 43.6803L52.6425 43.3399ZM58.223 42.8988L58.4245 42.9492L58.6639 42.8862L58.941 43.0122L58.6639 42.8862L58.4245 42.9492L58.223 42.8988L58.1852 43.0626L58.223 42.8988ZM58.223 43.2895L58.2607 43.1761L58.223 43.2895L57.9458 43.2517L58.223 43.2895ZM57.7317 55.1755L57.845 54.9234L57.8828 54.4823L57.7443 54.1294L57.8828 54.4823L57.845 54.9234L57.7317 55.1755ZM57.7947 55.4906L57.7443 55.2386L57.7947 55.4906L57.6561 55.6041L57.8199 55.9192L57.8576 56.6755L57.8199 55.9192L57.6561 55.6041L57.7947 55.4906ZM57.316 41.7392L57.2908 41.6131L57.316 41.7392L57.2152 42.0291L57.4293 42.4324L57.5931 42.445L57.6183 42.5711L57.5931 42.445L57.4293 42.4324L57.2152 42.0291L57.316 41.7392ZM57.4671 53.9907L57.3916 53.7638L57.4419 53.4487L57.3916 53.7638L57.4671 53.9907ZM56.3838 41.8274L56.4846 42.0921L56.346 42.2812L56.2578 42.7601L56.3838 43.05L56.409 43.3021L56.7113 43.5668L56.409 43.3021L56.3838 43.05L56.2578 42.7601L56.346 42.2812L56.4846 42.0921L56.3838 41.8274ZM56.409 52.7555L56.2704 52.7681L56.5098 53.4235L56.2704 52.7681L56.409 52.7555ZM56.2326 52.0244L56.2704 52.3017L56.2326 52.0244ZM56.3208 52.4152L56.3838 52.516L56.409 52.7429L56.3838 52.516L56.3208 52.4152ZM56.1696 41.3736L56.283 41.4997L56.2074 41.7518L56.283 41.4997L56.1696 41.3736ZM55.6784 55.7932L55.8673 55.3016L56.6987 55.1377L57.1522 55.1503L57.6309 55.4402L57.1522 55.1503L56.6987 55.1377L55.8673 55.3016L55.6784 55.7932ZM54.5446 42.9492L54.5698 43.0752L54.5446 42.9492L54.1163 42.9114L54.0533 42.5585L54.0785 42.2307L54.0533 42.5585L54.1163 42.9114L54.5446 42.9492ZM53.877 42.0417L54.0911 42.1803L53.877 42.0417ZM53.7258 49.7808L53.688 50.1968L53.7636 50.411L53.7384 50.7892L53.7636 50.411L53.688 50.1968L53.7258 49.7808ZM57.5931 58.188L56.9633 57.7721L56.5602 57.6838L55.5776 56.7637L55.4894 56.6503L54.9351 56.625L54.7966 57.0788L54.469 56.6755L53.814 56.5494L53.4613 57.0536L53.1212 57.1292L53.4613 57.0536L53.814 56.5494L54.469 56.6755L54.7966 57.0788L54.9351 56.625L55.4894 56.6503L55.5776 56.7637L55.7036 56.0957L55.691 55.831L55.7036 56.0957L55.5776 56.7637L56.5602 57.6838L56.9633 57.7721L57.5931 58.188L58.1096 58.4023L58.2104 58.6544L58.1096 58.4023L57.5931 58.188ZM58.3363 59.6501L57.8325 59.4863L58.3363 59.6501L58.878 59.7384L58.3363 59.6501ZM59.1929 57.7216L59.1173 57.5074L59.0292 56.9906L58.9284 56.8267L59.0292 56.9906L59.1173 57.5074L59.1929 57.7216L59.3693 57.7468L59.1929 57.7216ZM60.2133 59.3854L60.1629 58.9443L59.8858 58.6166L59.659 58.7174L59.6338 59.2216L59.659 58.7174L59.722 58.4023L59.7472 58.062L59.722 57.7594L59.533 57.6586L59.722 57.7594L59.7472 58.062L59.722 58.4023L59.659 58.7174L59.8858 58.6166L60.1629 58.9443L60.2133 59.3854Z" fill="#C6C6C6"/>
<path d="M52.3402 3.91359L52.6173 3.98926L53.222 3.93881L53.7259 3.61093L53.9778 3.39654L53.9652 3.19476L53.8644 3.25782L53.4361 3.21999L52.7685 3.37132L52.441 3.35871L52.063 3.68659L52.6425 3.66137L52.3402 3.91359Z" fill="#C6C6C6"/>
<path d="M53.3731 2.52779L53.7258 2.65392L54.1919 2.70438L54.2801 2.52779L54.2927 2.33859L53.6376 2.18723L53.1086 2.13678L52.9196 2.28814L53.1715 2.37643L52.7054 2.50256L53.3731 2.52779Z" fill="#C6C6C6"/>
<path d="M51.3954 4.9597L50.7403 4.89663L50.5892 5.04798L51.1057 5.38852L51.1812 5.56509L51.4836 5.61554L52.2142 5.43897L52.6677 5.02276L52.3276 4.83357L52.8566 4.61916L52.907 4.48043L52.2394 4.54349L51.9371 4.4552L51.3072 4.657L51.3954 4.9597Z" fill="#C6C6C6"/>
<path d="M55.2626 3.37147L55.3886 3.54803L55.1871 3.76243L55.0611 4.01465L55.8043 4.15338L56.2956 4.20383L57.001 4.19122L58.0214 4.12816L58.3993 4.1786L58.9788 4.09032L59.2937 3.96421L59.3819 3.78765L59.1803 3.6237L58.6638 3.59848L57.9584 3.63631L57.3537 3.72459L56.9003 3.68676L56.472 3.66153L56.3712 3.57325L56.094 3.47236L56.346 3.30841L56.22 3.16969H55.5776L55.376 3.03096L54.7462 3.00574L54.4186 3.1823L54.6454 3.30841L55.2626 3.37147Z" fill="#C6C6C6"/>
<path d="M50.0223 6.18204L49.5814 5.96777L49.2161 5.74089L49.4303 5.41318L49.6696 4.97203L49.468 4.79557L49.2035 4.71994L48.8382 4.78296L48.5863 5.24932L48.2083 5.43839L48.4099 4.98463L48.2587 4.83338L47.6163 5.07286L47.3895 4.84598L46.47 4.97203L46.8857 4.77036L46.6337 4.68213L45.3992 4.95942L44.9457 5.13588L44.2655 5.4762L44.7442 5.60224L45.2858 5.58964L44.2655 5.7787V5.94256L44.7694 5.95516L45.5504 5.91735L46.1298 6.03079L45.5882 6.11902L45.0969 6.08121L44.4796 6.16943L44.1773 6.21985L44.2403 6.58538L44.6056 6.53496L44.9709 6.67361L44.9457 6.88788L45.626 6.85007L46.6085 6.77444L47.4399 6.61058L47.8808 6.58538L48.3847 6.71142L48.9768 6.78704L49.2413 6.61058L49.1783 6.43412L49.7956 6.39631L50.0223 6.18204Z" fill="#C6C6C6"/>
<path d="M55.4894 2.64039L55.754 2.48906L55.5524 2.35033L55.4013 2.32511L55.0108 2.3125L54.8344 2.46383L54.7714 2.62778L54.91 2.72867L55.4894 2.64039Z" fill="#C6C6C6"/>
<path d="M46.6086 3.48506L47.4778 3.29586L47.8053 3.27064L48.2714 3.13189L48.7753 2.80396L48.2462 2.86702L47.7675 2.85441L46.6968 3.13189L45.6764 3.45984L45.9913 3.54813L46.6086 3.48506Z" fill="#C6C6C6"/>
<path d="M55.1241 2.84182L55.691 2.86703L55.8547 2.85443L55.9429 2.8166L55.8169 2.72833H55.1871L55.1241 2.84182Z" fill="#C6C6C6"/>
<path d="M42.6279 5.77957L43.7994 5.56517L44.0388 5.36338L44.8324 5.03547L46.0543 4.72017L46.6085 4.60666L46.47 4.41748L46.3062 4.29136L45.4748 4.27875L45.1221 4.17786L43.8876 4.24092L43.8624 4.51838L43.1948 4.80845L42.5397 5.14897L42.1618 5.33815L42.6783 5.57778L42.6279 5.77957Z" fill="#C6C6C6"/>
<path d="M47.8556 3.42173L46.8353 3.83793L47.2006 3.9136L48.7626 3.86315L47.8304 4.06494L47.7045 4.20367L48.2209 4.19106L49.2917 4.00188L50.5136 3.92621L50.9545 3.72442L51.156 3.52263L50.8411 3.49741L50.4632 3.57308L50.5136 3.40912L50.6774 3.20733L50.4002 3.16949L49.9089 3.30823L49.846 3.72442L49.3043 3.68658L49.0523 3.43435L48.3343 3.29561L47.8556 3.42173Z" fill="#C6C6C6"/>
<path d="M50.7277 2.7916L51.0048 2.6655L50.6395 2.58984L50.123 2.64028L49.6696 2.76638L49.9593 2.90509L50.7277 2.7916Z" fill="#C6C6C6"/>
<path d="M50.8285 6.63603L51.1939 6.78738L51.5592 6.61081L51.4836 6.43423L51.4584 6.34594L51.3198 6.25766L51.0553 6.13153L50.627 6.33333L50.1861 6.48468L50.4884 6.6991L50.8285 6.63603Z" fill="#C6C6C6"/>
<path d="M50.1735 4.54346L49.6948 4.55607L49.5184 4.61913L49.7074 4.93442L50.3246 4.63174L50.1735 4.54346Z" fill="#C6C6C6"/>
<path d="M51.408 2.41335L51.1183 2.33768L50.9797 2.32507L50.4758 2.43857L50.3876 2.48901H50.9167L51.408 2.41335Z" fill="#C6C6C6"/>
<path d="M53.5117 9.87522V10.0013L53.7762 10.0266L54.3935 9.73651L54.469 9.64823L53.94 9.63562L53.5117 9.87522Z" fill="#C6C6C6"/>
<path d="M58.4623 7.34183L58.5883 7.14003L58.3868 7.01392L58.0215 7.07698L57.6813 7.34183L57.6183 7.58145L58.0466 7.55623L58.3742 7.40489L58.4623 7.34183Z" fill="#C6C6C6"/>
<path d="M54.721 3.95123L54.7462 3.81249L54.6329 3.66113L54.0156 3.77465L53.6377 3.96385L53.9148 4.07736L54.3683 4.1152L54.721 3.95123Z" fill="#C6C6C6"/>
<path d="M53.222 4.63182L52.9952 4.85884L52.8441 5.2498L53.222 5.27502L53.9022 4.92189L54.3935 4.83361L55.2753 4.44265L54.7336 4.32914L54.0534 4.31653L53.5873 4.44265L53.222 4.63182Z" fill="#C6C6C6"/>
<path d="M59.0165 4.88399H59.3818L59.7472 4.8966L59.7975 4.77048L59.4196 4.53086L58.6764 4.48041L58.4875 4.50563L58.3363 4.66959L58.5127 4.92183L58.6008 4.94705L59.0165 4.88399Z" fill="#C6C6C6"/>
<path d="M57.9458 18.2951L57.8828 18.0302L57.6687 18.1942L57.7065 18.3833L58.1978 18.6104L58.3741 18.5725L58.6639 18.3581H58.2482L57.9458 18.2951Z" fill="#C6C6C6"/>
<path d="M58.8402 1.54362L59.2181 1.68227L60.3141 1.64446L60.9439 1.69488L60.3141 1.82092L60.1251 1.79571L59.3063 1.77051L59.2055 1.97218L59.4701 2.11083L59.2181 2.26208L58.5631 2.35031L58.1348 2.50156L58.5505 2.57719L58.7017 2.84189L58.0466 2.66542L57.8199 2.70324L57.6435 2.99314L56.9381 3.09398L56.7617 3.29565L57.3538 3.32086L57.7821 3.37127L58.815 3.30825L59.5583 3.4343L60.6668 3.1696L60.755 3.06877L60.1881 3.08137L60.2385 2.99314L60.8054 2.86709L61.1203 2.70324L61.7249 2.57719L62.1658 2.43854L62.0903 2.24948L62.38 2.17385L62.0021 2.12343L62.9846 2.08562L63.2618 2.00999L63.9546 1.93436L64.7734 1.63186L65.3781 1.53102L66.2851 1.31674H65.63L65.9701 1.24112L66.7637 1.16549L67.6203 1.02684L67.7085 0.926006L67.255 0.837775L66.663 0.799961L65.9197 0.774752L65.3025 0.762148L64.6978 0.736938L63.8034 0.787357L63.6775 0.749544L62.7705 0.774752L62.2036 0.799961L61.7501 0.862983L61.3218 1.03945L61.1077 0.951215L60.7676 0.926006L60.1755 1.05205L59.5331 1.10247L59.1677 1.11507L58.6387 1.17809L58.5505 1.29154L58.7646 1.40498L58.8402 1.54362Z" fill="#C6C6C6"/>
<path d="M62.5563 7.66935L62.2792 7.21559L61.7501 7.11475L61.0825 6.79963L61.8761 6.58535L61.8005 6.14419L61.6115 5.95512L60.8809 5.76605L60.7046 5.47614L59.9865 5.58959L60.0873 5.38791L59.7724 5.16103L59.1677 4.93414L58.7142 5.12321L57.9206 5.24926L58.2104 4.94675L58.0088 4.48038L56.9884 4.66945L56.3586 5.03498L56.3334 4.74508L56.8373 4.46777L55.8547 4.58121L55.3382 4.77028L54.721 5.17363L54.4312 5.6274L54.9225 5.64L54.3809 5.84168L54.5446 6.00554L55.0611 6.08117L55.7035 6.20721L56.9129 6.32066L57.6057 6.25763L57.8954 6.11898L58.0718 6.28284L58.3615 6.30805L58.5379 6.59796L58.2229 6.724L58.8528 6.87526L59.2559 7.11475L59.3063 7.27861L59.2685 7.49289L58.5127 7.95926L58.2229 8.19875L58.2481 8.37521L57.4293 8.43824L56.7365 8.45084L56.2578 8.81637L56.472 8.98024L57.6057 8.90461L57.6939 8.76595L58.1096 9.00544L58.5127 9.25754L58.3111 9.39619L58.6386 9.64828L59.3063 9.93819L60.2511 10.1399L60.2763 9.9634L60.0369 9.64828L59.722 9.21972L60.4652 9.62307L60.8809 9.76172L61.1958 9.39619V8.90461L61.1077 8.77856L60.7298 8.55168L60.4904 8.26177L60.692 7.98447L61.1958 7.92144L61.536 8.40042L61.8887 8.6021L62.8335 8.03489L63.1232 7.69456L62.5563 7.66935Z" fill="#C6C6C6"/>
<path d="M62.4178 18.2571L62.6193 18.2319L62.9216 17.7529L62.8838 17.4126L62.909 17.1227L62.5815 17.2109L62.8335 16.8076L62.4556 16.6437L62.2162 16.7824L61.8761 16.6311L62.0776 16.442L61.8257 16.3286L61.4982 16.5051L61.9265 16.0261L62.2666 15.6984L62.3926 15.5471L62.2036 15.5219L61.7753 15.711L61.41 16.0135L60.692 16.8832L60.2259 17.2109L60.3644 17.3622L60.0369 17.5512L60.0495 17.7151L60.8935 17.7277L61.3722 17.7025L61.7501 17.8285L61.3722 18.0932L61.6241 18.1058L62.2666 17.6269L62.3674 17.7025L62.1532 18.1436L62.4178 18.2571Z" fill="#C6C6C6"/>
<path d="M55.2375 9.06893L54.9352 9.10677L55.0486 8.86715L54.721 8.71581L54.4313 8.55186L54.2927 8.42575L54.0534 8.50142L54.129 8.27441L53.8896 8.23657L53.4488 8.69059L53.1338 9.08154L52.6299 9.33377L53.1842 9.27072L53.1212 9.57339L53.8393 9.30855L54.3809 9.04371L54.4565 9.27072L54.973 9.38422L55.4013 9.23288L55.2375 9.06893Z" fill="#C6C6C6"/>
<path d="M54.8092 10.0642L54.784 10.0894V10.2408L54.9352 10.2912L55.2501 10.0264L55.2123 9.91284H55.0611L54.8092 10.0642Z" fill="#C6C6C6"/>
<path d="M30.5222 14.1606L30.3584 14.3372L30.2324 14.5642L30.3206 14.7282L30.2576 14.9804L30.3206 15.2327H30.497L30.4718 14.7913L31.1016 14.1859L30.6733 14.2363L30.5222 14.1606Z" fill="#C6C6C6"/>
<path d="M56.9885 2.11152L56.6106 2.21242L56.4216 2.35115L56.5602 2.52771L57.1523 2.57816L57.7569 2.54032L58.6765 2.23764L59.2434 2.12414L59.0166 1.99802L59.067 1.74579L58.6513 1.68273L58.2356 1.59445L58.097 1.40527L57.379 1.41788L57.4042 1.50617L57.0515 1.53139L56.6988 1.64489L56.2705 1.80885L56.2327 1.9728L56.409 2.11152H56.9885Z" fill="#C6C6C6"/>
<path d="M59.2181 16.8961L59.2307 16.7952L58.8654 16.5682L58.3489 16.4294L58.1852 16.4799L58.4875 16.7321L58.9914 16.8961H59.2181Z" fill="#C6C6C6"/>
<path d="M32.0842 17.2998L32.3487 17.2116L32.3613 16.9215L32.0842 16.6945L32.0464 16.4296V16.2531L31.6811 16.19L31.4669 16.1017L31.1016 15.9882L30.9883 16.1143L30.9379 16.4044L31.3158 16.5053L31.278 16.6566L31.5299 16.8584V17.0476L32.0842 17.2998Z" fill="#C6C6C6"/>
<path d="M49.1531 33.1682L49.4806 33.143L49.8208 33.08L49.8837 32.9413L49.5436 32.7145L49.1909 32.6893L49.2413 32.538L48.9768 32.4246H48.8004L48.5359 32.1725L48.1705 31.8196L48.0068 31.6935L47.5533 31.7566L47.3895 31.5549L46.9612 31.3658L46.5707 31.3532L46.1676 31.3154L46.0416 31.3784L45.6763 31.4289L45.4118 31.5423L45.1725 31.6683L45.0339 31.87L44.7693 32.0465L44.9583 32.0969L45.2102 32.0339L45.2984 31.8952L45.5 31.8826L45.8779 31.5927L46.3566 31.6179L46.155 31.7566L46.3188 31.8826L46.9234 31.9582L47.062 32.0843L47.4903 32.2229L47.7674 32.2103L47.843 32.5254L47.9942 32.6893L48.2965 32.7271L48.4855 32.8657L48.1202 33.1808L48.8256 33.1304L49.1531 33.1682Z" fill="#C6C6C6"/>
<path d="M52.6425 33.8744L52.4158 33.6726L52.2142 33.66L52.2394 33.4834L51.9749 33.496L51.8993 33.3069H51.7733L51.5088 33.1681L51.1183 33.1555L51.0427 33.2564L50.6396 33.1681L50.3373 33.1555L50.2239 33.3069L50.5136 33.3951L50.4884 33.5969L50.69 33.8492L50.501 33.9753L50.1357 33.9248L49.6948 33.8492L49.6318 34.0383L49.8712 34.2023L50.1105 34.1014L50.4003 34.1392L50.6396 34.1014L50.9545 34.2023V34.3536L51.0805 34.4419L51.3072 34.0635L51.4836 33.9753L51.534 34.1266L51.7355 34.0888L51.8363 33.9753L51.9875 34.0131L52.2142 33.9879L52.441 34.1014L52.6425 33.8744Z" fill="#C6C6C6"/>
<path d="M82.0943 1.24106L81.2125 1.17804L79.7261 1.30408L78.9199 1.44273L79.3104 1.24106L79.1088 1.11502L78.4916 1.21585L77.635 1.08981L76.5768 1.14023L76.4509 1.0772L78.0633 1.03939L79.197 1.02679L79.7765 0.900742L78.0381 0.648653L75.758 0.61084L74.7125 0.636049L74.2716 0.749489L73.2638 0.736884L72.1427 0.92595L72.0041 1.0772L72.5962 1.26627L72.0545 1.15283L71.6514 1.12762L71.0342 1.00158L70.102 1.17804L69.8752 1.0772H68.9557L67.9983 1.12762L67.2173 1.21585L67.1921 1.37971L66.726 1.41752L65.4411 1.68222L65.038 1.82086L65.756 1.95951L65.5041 2.09816L64.194 2.28723L62.8335 2.4889L62.632 2.64015L63.1988 2.81661L64.4711 2.91745L63.8161 2.93005L62.8587 3.0687L63.1862 3.346L63.4508 3.47204L64.2822 3.44683L65.1766 3.43423L65.8442 3.45944L66.537 3.71153L66.4237 3.90059L66.7386 4.06445L66.8646 4.53082L66.9527 4.84593L67.0661 5.00978L66.4489 5.43833L66.6882 5.55177L67.0661 5.47615L67.3054 5.64L67.7715 5.94251L67.1039 5.81647H66.7764L66.5118 6.05595L66.3733 6.38366L66.7512 6.53492L67.0913 6.4719L67.3306 6.39627L67.8093 6.23241L67.57 6.59794L67.3306 6.79961L66.7134 6.97607L66.0961 7.53067L66.2725 7.70713L65.9702 8.06005L66.2977 8.51381L66.1591 8.95497L66.2221 9.28268L66.6504 9.9129L66.7134 10.4045L66.9905 10.6818H67.7715L68.2124 11.0977L68.7919 11.0725L69.1446 10.5683L69.4595 10.1524L69.4343 9.76165L70.1902 9.35831L70.4799 9.03059L70.6059 8.69027L71.009 8.37516L71.5884 8.26172L72.1175 8.13568L72.382 8.12308L73.289 7.78276L73.9315 7.27858L74.3598 7.08951L74.7629 7.07691L75.8588 6.92565L76.9296 6.54752L77.9751 6.14418L77.4838 6.11897L76.5516 6.09376L77.0177 5.85428L76.9799 5.52656L77.3453 5.79126L77.5846 5.98032L78.2271 5.89209L78.1767 5.51396L77.7862 5.23666L77.3453 5.12322L77.5468 5.00978L78.1893 5.18624L78.2271 4.98457L77.8617 4.68207H78.3404L78.8317 4.61905L78.9829 4.45519L78.6301 4.27873L79.386 4.24091L79.0333 3.86278L79.3986 3.82497L79.4112 3.45944L78.8569 3.23256L79.4238 3.09391L79.9402 3.08131L79.6253 2.80401L79.7135 2.35025L80.0284 2.09816L80.4693 1.82086L79.7639 1.79566L80.759 1.73263L80.948 1.6444L82.2329 1.39231L82.0943 1.24106Z" fill="#C6C6C6"/>
<path d="M48.1202 33.9497L48.0194 33.9244L47.8053 33.9623L47.7423 34.101L47.9942 34.3028L48.2588 34.3911L48.41 34.3028L48.7627 34.2902L48.6871 34.1262L48.4477 34.0001L48.1202 33.9497Z" fill="#C6C6C6"/>
<path d="M20.6839 9.40884L20.7217 9.50975L20.8602 9.61066L21.3011 9.50975L21.4019 9.44668L21.1122 9.38362L20.9736 9.24487L20.6713 9.29533L20.5579 9.20703L20.2808 9.39623L20.3186 9.44668L20.6839 9.40884Z" fill="#C6C6C6"/>
<path d="M20.1044 11.2492L20.4572 11.1735L20.6587 10.9592L20.3942 10.9213L19.9029 11.0096L19.9659 11.1483L20.1044 11.2492Z" fill="#C6C6C6"/>
<path d="M10.4929 33.1052L10.43 33.0548L10.2662 32.9539H10.2284L10.1906 33.0043V33.1178L10.0898 33.2061L10.052 33.2692L10.0898 33.471L10.0269 33.6349L10.1402 33.7106L10.2284 33.6097L10.4048 33.534L10.6189 33.4079L10.6441 33.3701L10.5559 33.1809L10.4929 33.1052Z" fill="#C6C6C6"/>
<path d="M23.9339 12.2448L23.3671 12.434L23.1781 12.6736L23.2411 12.8123L23.8583 12.6105L24.463 12.3709V12.207L24.2362 12.1691L23.9339 12.2448Z" fill="#C6C6C6"/>
<path d="M10.2284 32.6767L10.115 32.5884L9.96386 32.5379L9.90088 32.5758V32.6136L9.93867 32.6641L10.0017 32.7776L10.178 32.7398L10.2284 32.6767Z" fill="#C6C6C6"/>
<path d="M9.37181 32.1346L9.22064 32.2229L9.23324 32.2355L9.27103 32.3743L9.42219 32.3869L9.45998 32.3995L9.49778 32.3616L9.397 32.1725L9.37181 32.1346Z" fill="#C6C6C6"/>
<path d="M8.59077 31.9077L8.55298 31.9456L8.69155 32.0465L8.76713 31.996L8.79232 31.8573L8.67895 31.8447L8.59077 31.9077Z" fill="#C6C6C6"/>
<path d="M9.68676 32.4246L9.62378 32.4871L9.88832 32.4996L9.91351 32.4371L9.68676 32.4246Z" fill="#C6C6C6"/>
<path d="M51.5087 37.2394V37.2519L51.4962 37.277L51.5212 37.3021L51.5463 37.3397H51.5713V37.3272V37.3146L51.5337 37.2645L51.5087 37.2394Z" fill="#C6C6C6"/>
<path d="M55.2118 34.0755L55.1992 34.063L55.1241 34.1129V34.1253L55.2118 34.1004V34.0755Z" fill="#C6C6C6"/>
<path d="M55.7538 34.3909H55.7413H55.7288L55.7413 34.4415L55.7789 34.4795L55.7914 34.4542V34.4162L55.7789 34.3909H55.7538Z" fill="#C6C6C6"/>
<path d="M55.691 34.7434L55.7035 34.7684L55.7536 34.781L55.7661 34.7684L55.7912 34.7559V34.7434V34.7308L55.7787 34.7183L55.7661 34.7057L55.7411 34.6807L55.691 34.7308V34.7434Z" fill="#C6C6C6"/>
<path d="M50.5136 32.2851L50.5762 32.2602L50.5386 32.2229L50.501 32.2602L50.5136 32.2851Z" fill="#C6C6C6"/>
<path d="M50.1357 31.7188L50.1105 31.7314V31.744L50.0853 31.7566L50.0475 31.7944L49.9719 31.8449L49.9594 31.8827L49.9971 31.8575L50.0475 31.807L50.1105 31.7818L50.1987 31.6809L50.1861 31.6053L50.1987 31.5674L50.1483 31.5801L50.1357 31.6053V31.6305L50.1609 31.6683V31.6809L50.1357 31.7188Z" fill="#C6C6C6"/>
<path d="M49.5814 31.3155L49.5688 31.3281L49.6066 31.3533L49.6822 31.3785L49.7326 31.492V31.4794V31.4164L49.6948 31.3785L49.6444 31.3407V31.2398L49.6066 31.1768L49.594 31.1137L49.5562 31.0507V31.0885L49.5688 31.1011L49.5814 31.1515L49.6066 31.2398L49.6192 31.265L49.6066 31.3029L49.5814 31.3155Z" fill="#C6C6C6"/>
<path d="M50.6018 31.7695L50.6396 31.7823L50.69 31.8205L50.7152 31.795H50.7026L50.6648 31.7568H50.6144H50.6018L50.5766 31.7441L50.5388 31.7313L50.5136 31.7695L50.5388 31.7823L50.6018 31.7695Z" fill="#C6C6C6"/>
<path d="M49.9968 30.7985H49.9718L49.9467 30.8871H49.9718L50.0219 30.8238L50.0093 30.7985H49.9968Z" fill="#C6C6C6"/>
<path d="M50.0471 31.5546L50.0221 31.5296L49.997 31.517L49.9845 31.5296V31.5546L49.997 31.5797H50.0095L50.0847 31.6173L50.1098 31.5797H50.0972L50.0471 31.5546Z" fill="#C6C6C6"/>
<path d="M50.4507 32.4371L50.4003 32.4624H50.3751L50.3121 32.4371H50.2617L50.2239 32.475L50.1735 32.4876H50.1861V32.5128L50.1735 32.538V32.5506V32.5759H50.3121L50.4255 32.5506L50.4884 32.475L50.501 32.4371L50.5136 32.3741H50.4884L50.4507 32.4371Z" fill="#C6C6C6"/>
<path d="M48.8508 29.3364L48.8256 29.3238L48.8004 29.2734L48.7627 29.2355L48.6997 29.2229H48.6493L48.6115 29.2103L48.5611 29.2355H48.6367L48.7627 29.2608L48.8256 29.3995L48.876 29.4247L48.8886 29.4626L48.8634 29.5004V29.5382L48.8382 29.5761L48.8256 29.6517L48.8004 29.6896L48.7375 29.7274L48.7752 29.74L48.8004 29.8031L48.8256 29.7905L48.8382 29.7652L48.876 29.6013L48.939 29.5508L48.9516 29.4499L48.9138 29.3995L48.876 29.3869L48.8634 29.3617L48.876 29.3491L48.8508 29.3364Z" fill="#C6C6C6"/>
<path d="M48.561 29.349L48.5484 29.3238L48.4729 29.3364H48.3847L48.3721 29.349H48.3343L48.2839 29.3364L48.2461 29.2986L48.2209 29.3364L48.2083 29.3616L48.1705 29.3994L48.1201 29.412L48.0698 29.3616L48.0446 29.349L48.1201 29.4499H48.1453H48.1831L48.2587 29.4246L48.3973 29.3868L48.5484 29.3616L48.561 29.349Z" fill="#C6C6C6"/>
<path d="M48.2839 30.6601L48.2965 30.698L48.3217 30.6727L48.3721 30.6475L48.3847 30.6349L48.4477 30.5971V30.5845L48.4603 30.534L48.4729 30.471L48.4225 30.4205L48.3973 30.3322L48.3847 30.2944V30.2566L48.3595 30.2187L48.3091 30.1809L48.2839 30.1935L48.2965 30.2944L48.2713 30.3449L48.2084 30.4457V30.471L48.221 30.4962L48.1832 30.534V30.5088H48.1202L48.158 30.5592L48.2084 30.5971H48.2336L48.2587 30.5845V30.6223L48.2839 30.6601Z" fill="#C6C6C6"/>
<path d="M48.4729 31.0005L48.5107 30.9374V30.9122V30.8996V30.8869V30.8617V30.786L48.4855 30.7356L48.4477 30.7987L48.4099 30.7608L48.4729 30.7356V30.723L48.4477 30.6978L48.4225 30.7104H48.3847L48.3596 30.723H48.3344L48.2966 30.7356L48.3344 30.8113L48.3596 30.8365L48.3722 30.9248L48.3847 30.9374V31.0005H48.4729Z" fill="#C6C6C6"/>
<path d="M49.468 30.4708H49.4428L49.4302 30.496L49.468 30.5338V30.5591L49.4932 30.5843L49.531 30.6852L49.5562 30.7104V30.7357L49.5184 30.7609L49.5058 30.7861H49.5184L49.5688 30.7735H49.6066V30.7483L49.5184 30.6221V30.6095L49.468 30.4708Z" fill="#C6C6C6"/>
<path d="M49.2539 30.1936L49.1909 30.118L49.1279 30.0927L49.0523 30.0297L49.0271 29.9792V29.9919L49.0145 30.0297L48.9893 30.0675L49.0271 30.0549L49.0649 30.0675L49.1153 30.1054L49.1783 30.118L49.2035 30.181L49.2665 30.2315V30.2819L49.2287 30.3324L49.2161 30.3954L49.1657 30.408L49.1783 30.4206L49.2035 30.4459V30.4711L49.2287 30.4963V30.4333L49.2539 30.3576L49.2917 30.2441L49.2791 30.2189L49.2539 30.1936Z" fill="#C6C6C6"/>
<path d="M49.2287 31.0507L49.2035 31.0885H49.2413L49.3169 31.1516L49.3547 31.1768H49.3799L49.3295 31.1516L49.3169 31.1137L49.2539 31.0633L49.2287 31.0507Z" fill="#C6C6C6"/>
<path d="M48.5988 30.2694L48.5862 30.2822V30.295H48.6238H48.6739L48.724 30.2694L48.699 30.2566H48.6363L48.5988 30.2694Z" fill="#C6C6C6"/>
<path d="M55.451 26.1727H55.4385L55.3884 26.21L55.3383 26.2349H55.3508H55.3633L55.4134 26.2225L55.451 26.1727Z" fill="#C6C6C6"/>
<path d="M56.6357 36.8486V36.9364L56.6483 36.9615L56.6858 36.9866L56.7109 36.9741L56.736 36.9364L56.7109 36.9113L56.6608 36.8361L56.6357 36.8486Z" fill="#C6C6C6"/>
<path d="M46.9863 33.2695H46.9738L46.9612 33.2827H46.9738L47.0113 33.2695H47.0364L47.0239 33.2563H47.0113L46.9863 33.2695Z" fill="#C6C6C6"/>
<path d="M46.369 33.4704L46.3439 33.4828L46.3314 33.4704L46.3188 33.4456V33.458V33.5077H46.3564H46.369L46.4065 33.4828H46.4566L46.4441 33.4704L46.369 33.458V33.4704Z" fill="#C6C6C6"/>
<path d="M47.1247 33.244H47.1122L47.0746 33.2697H47.0872L47.0997 33.2569L47.1498 33.244L47.1373 33.2312L47.1247 33.244Z" fill="#C6C6C6"/>
<path d="M55.9177 35.6135L55.9051 35.5756L55.8295 35.5504V35.563V35.6135L55.8547 35.6765V35.7774L55.9051 35.7648L55.9303 35.7017L55.9177 35.6135Z" fill="#C6C6C6"/>
<path d="M60.3514 72.9597L60.3639 72.9348L60.3514 72.9099L60.3138 72.8975H60.2637L60.2887 72.9348L60.3013 72.9597H60.3514Z" fill="#C6C6C6"/>
<path d="M61.158 73.2882L61.1455 73.3006L61.1706 73.3255L61.1956 73.338L61.1831 73.2882H61.158Z" fill="#C6C6C6"/>
<path d="M61.347 73.074L61.3092 73.0614L61.3218 73.0362L61.3596 73.0236L61.284 72.9731L61.2588 72.9605L61.1707 72.9731H61.1455V72.9984L61.1581 73.0236L61.1833 73.0488L61.1959 73.0614H61.1707L61.0825 73.0236L61.0573 73.011L61.0447 72.9731H61.0573H61.0825L61.0951 72.9479L61.0573 72.9227L61.0195 72.9101L60.9439 72.9227L60.8809 72.8975H60.8431L60.8809 72.9353L60.8054 73.011L60.818 73.0614L60.8557 73.0993V73.1119V73.1245L60.818 73.1371L60.7928 73.1497L60.7676 73.1749L60.692 73.2506L60.7046 73.2632L60.6794 73.3263L60.7046 73.3515L60.7676 73.4146L60.8431 73.4524V73.3894L60.8809 73.3767L60.9061 73.402L60.9439 73.3767L60.8683 73.2885H60.8935L61.1077 73.3389V73.3011L61.0951 73.2885L61.0699 73.2506L61.1959 73.2128L61.2462 73.1876L61.2588 73.1623L61.3218 73.1497L61.3848 73.1245L61.3722 73.1119L61.3848 73.0867L61.347 73.074Z" fill="#C6C6C6"/>
<path d="M60.6541 73.3637L60.6416 73.3513V73.3761L60.6541 73.401L60.6667 73.4135L60.6792 73.4259L60.7042 73.401L60.6917 73.3761L60.6541 73.3637Z" fill="#C6C6C6"/>
<path d="M60.6542 73.0867L60.6794 73.0614L60.692 73.0488L60.7046 73.0236L60.7298 72.9984V72.9731L60.692 72.9605L60.6668 72.9353L60.6416 72.9731L60.6164 72.9605L60.5408 72.9858H60.503L60.4778 72.9731L60.44 72.9605L60.4149 72.9731L60.3645 73.011L60.3015 72.9984L60.2133 72.9731L60.1755 72.9353H60.1503L60.1881 72.9731L60.2007 72.9984L60.2133 73.011L60.2637 73.0362L60.3141 73.0614L60.3519 73.0867L60.3393 73.0993L60.2637 73.1245H60.2385L60.2259 73.1371L60.2637 73.1497H60.3141L60.3267 73.1371H60.3519L60.3771 73.1497V73.1623L60.3645 73.1749L60.3519 73.2002L60.3141 73.2254L60.2637 73.2632H60.1881L60.1251 73.3263L60.2133 73.3641L60.2637 73.3893H60.3519V73.3767H60.3645H60.3897L60.4023 73.3641L60.4149 73.3263V73.2758H60.44L60.4652 73.2884L60.5282 73.2758L60.5534 73.2632L60.6038 73.1875L60.6416 73.1119L60.6542 73.0867Z" fill="#C6C6C6"/>
<path d="M60.0868 73.1747H60.0492L60.0367 73.1874L59.9991 73.2001L60.0242 73.2254L60.0743 73.2635H60.1119L60.1244 73.2381L60.1119 73.1747H60.0868Z" fill="#C6C6C6"/>
<path d="M55.5774 37.5666L55.6275 37.554L55.64 37.4537H55.615L55.5899 37.4788L55.5648 37.5164V37.554L55.5398 37.5791L55.5774 37.5666Z" fill="#C6C6C6"/>
<path d="M55.3378 34.6299L55.3253 34.6173L55.3002 34.5922L55.2752 34.5546L55.2501 34.5672V34.5797V34.5922L55.2752 34.6173H55.3002L55.3253 34.6549H55.3378V34.6299Z" fill="#C6C6C6"/>
<path d="M55.3884 34.7055V34.6805L55.3633 34.6681H55.3383V34.7055L55.3633 34.7304L55.3884 34.7055Z" fill="#C6C6C6"/>
<path d="M56.0437 36.5589L56.0563 36.458L56.0437 36.4075L56.0311 36.4201L56.0059 36.458L55.9681 36.5084L55.9555 36.5336V36.5841L56.0059 36.6219L56.0437 36.5589Z" fill="#C6C6C6"/>
<path d="M55.5396 34.8824L55.5146 34.9198V34.9446L55.5396 34.9571L55.5522 34.9322L55.5396 34.8824Z" fill="#C6C6C6"/>
<path d="M24.0598 57.9233L24.0473 57.9358L24.0598 57.9607L24.0724 57.9731H24.0849V57.9607L24.0724 57.9358L24.0598 57.9233Z" fill="#C6C6C6"/>
<path d="M53.9526 34.1518L53.9652 34.1646H53.9777H54.0153L54.0779 34.1518V34.139L54.0528 34.1262H53.9902L53.9526 34.1518Z" fill="#C6C6C6"/>
<path d="M53.1464 34.2271L53.1716 34.2397H53.2345H53.2597L53.2849 34.2523L53.3227 34.2397L53.3605 34.2271L53.4361 34.2397L53.4865 34.2271L53.5369 34.2523L53.5747 34.2397L53.5873 34.2523H53.6125H53.6754L53.751 34.2397L53.814 34.1893L53.8392 34.1515L53.877 34.1262L53.9274 34.0884V34.0127L53.877 34.0001L53.814 33.9749L53.7258 33.9623H53.7132L53.7258 33.9749H53.7132H53.7006L53.688 33.9497H53.6754H53.3605L53.2471 33.9244L53.2219 33.9371L53.1968 33.9497L53.1842 33.9749L53.1716 34.0001L53.1464 34.0127V34.0379L53.159 34.0632L53.1716 34.101V34.1388L53.1464 34.2271Z" fill="#C6C6C6"/>
<path d="M52.7936 34.1514V34.1642V34.1769L52.8187 34.1897H52.8312V34.1769L52.8438 34.1642V34.1514H52.8312H52.8062H52.7936Z" fill="#C6C6C6"/>
<path d="M11.929 53.6882V53.7504L11.954 53.7628L11.9791 53.7504H11.9916L11.954 53.7007L11.929 53.6882Z" fill="#C6C6C6"/>
<path d="M11.9288 53.5998L11.8912 53.5874L11.9037 53.6123V53.6372H11.9288V53.6123V53.5998Z" fill="#C6C6C6"/>
<path d="M12.773 54.0917V54.1041L12.7855 54.129H12.7981L12.8231 54.1539L12.8356 54.129V54.1041L12.8231 54.0917H12.773Z" fill="#C6C6C6"/>
<path d="M13.0879 54.2177L13.0627 54.1547L13.0375 54.1169L12.9745 54.1042L12.9241 54.1295V54.1421V54.1799L12.9745 54.2429H13.0123H13.0879L13.1257 54.2934L13.1383 54.306H13.1761L13.1887 54.2808L13.1635 54.2429L13.0879 54.2177Z" fill="#C6C6C6"/>
<path d="M14.763 53.398L14.7505 53.3603L14.7129 53.3102L14.7254 53.3478V53.3603L14.7505 53.3729L14.763 53.4105L14.7755 53.4356L14.8006 53.4607H14.8131L14.788 53.423L14.763 53.398Z" fill="#C6C6C6"/>
<path d="M19.1219 54.5453L19.1845 54.5838L19.1469 54.5453H19.1219Z" fill="#C6C6C6"/>
<path d="M18.6936 55.9445H18.681L18.6936 55.9569L18.7061 55.9818V55.9943H18.7186L18.7061 55.9694L18.6936 55.9445Z" fill="#C6C6C6"/>
<path d="M19.4869 54.6586H19.4619L19.4494 54.6462L19.4368 54.6586H19.4494H19.4619L19.4869 54.6835H19.512L19.537 54.6959L19.512 54.6835L19.4869 54.6586Z" fill="#C6C6C6"/>
<path d="M16.8917 49.277V49.2517V49.239L16.804 49.2263V49.2643L16.8165 49.315H16.8416L16.8917 49.3023V49.277Z" fill="#C6C6C6"/>
<path d="M17.2699 54.2301L17.2449 54.2426V54.2677L17.2324 54.2928L17.2449 54.3054V54.3179H17.2699L17.2574 54.3054H17.2449V54.2803L17.2699 54.2426L17.32 54.2176V54.205L17.295 54.2176L17.2699 54.2301Z" fill="#C6C6C6"/>
<path d="M17.3331 54.5706V54.5954L17.3706 54.6079L17.3832 54.6203V54.5954L17.3331 54.5706Z" fill="#C6C6C6"/>
<path d="M17.2447 54.4573L17.2322 54.432L17.2072 54.4193V54.432L17.2447 54.47L17.2698 54.508H17.2948L17.2823 54.4953L17.2447 54.4573Z" fill="#C6C6C6"/>
<path d="M17.4212 49.8566L17.4087 49.869V49.9063L17.4463 49.869L17.4337 49.8566H17.4212Z" fill="#C6C6C6"/>
<path d="M17.648 50.1464L17.6605 50.2086L17.6856 50.1961V50.1837V50.1588L17.648 50.1464Z" fill="#C6C6C6"/>
<path d="M14.9019 53.1337L14.9144 53.1461L14.9645 53.1959V53.2084V53.1835L14.9144 53.1337H14.9019Z" fill="#C6C6C6"/>
<path d="M17.4465 49.7305L17.3835 49.7815L17.3961 49.807L17.4339 49.8197L17.4465 49.807L17.5221 49.7942L17.5473 49.756L17.5221 49.7687L17.4465 49.7305Z" fill="#C6C6C6"/>
<path d="M17.1189 49.264V49.2765L17.1064 49.2889L17.1189 49.3138H17.144L17.169 49.3014V49.2889L17.1565 49.2765L17.1189 49.264Z" fill="#C6C6C6"/>
<path d="M16.8796 49.5412V49.5661L16.9046 49.6034L16.9172 49.5785L16.9297 49.5412L16.9172 49.5287L16.8796 49.5412Z" fill="#C6C6C6"/>
<path d="M16.2371 53.3234L16.2496 53.285H16.2245L16.2371 53.3234Z" fill="#C6C6C6"/>
<path d="M15.7205 53.6H15.6955L15.7581 53.6264H15.7832L15.7581 53.6132L15.7205 53.6Z" fill="#C6C6C6"/>
<path d="M15.8213 53.6126H15.7962H15.7837L15.8338 53.6258L15.8714 53.639L15.8463 53.6126H15.8213Z" fill="#C6C6C6"/>
<path d="M55.1868 34.2155V34.2023V34.1891H55.1367L55.1618 34.2023L55.1868 34.2155Z" fill="#C6C6C6"/>
<path d="M51.2185 32.0963L51.1934 32.0839L51.1308 32.059L51.1183 32.0714V32.0963H51.1684L51.1934 32.1087L51.2185 32.0963Z" fill="#C6C6C6"/>
<path d="M50.954 32.1088L50.9665 32.0963V32.0839L50.929 32.0963L50.8789 32.059L50.8663 32.0963V32.1088L50.8914 32.1212L50.9415 32.1088H50.954Z" fill="#C6C6C6"/>
<path d="M51.0552 32.0458L51.0677 32.0583L51.0928 32.0831L51.1053 32.0707L51.0928 32.0583L51.0802 32.0085H51.0427V32.021V32.0458H51.0552Z" fill="#C6C6C6"/>
<path d="M0.994146 56.1585H0.98162L0.956567 56.1334H0.918988L0.893935 56.1208V56.1083L0.881409 56.1334L0.893935 56.1585L0.98162 56.1961L1.00667 56.2086L1.0192 56.1585V56.1459H0.994146V56.1585Z" fill="#C6C6C6"/>
<path d="M1.10815 56.2598V56.2851L1.14573 56.3231L1.13321 56.2344L1.10815 56.2598Z" fill="#C6C6C6"/>
<path d="M1.18362 54.7092L1.15857 54.7465V54.759L1.18362 54.7714H1.19615L1.20867 54.7465L1.2212 54.7341V54.7217L1.18362 54.7092Z" fill="#C6C6C6"/>
<path d="M56.1311 37.9959L56.1436 37.9579H56.1186L56.056 37.9832L56.0059 38.034V38.0466L56.0309 38.034L56.1311 37.9959Z" fill="#C6C6C6"/>
<path d="M55.8799 38.3361L55.8925 38.2982L55.9429 38.2352H55.8548L55.8044 38.2478L55.7162 38.2604L55.6658 38.273L55.6028 38.2856L55.565 38.2982L55.5776 38.3108L55.628 38.3361L55.6406 38.3487L55.6532 38.3613V38.3991L55.628 38.5505V38.5631H55.565L55.5524 38.5883L55.4265 38.664L55.502 38.6514L55.5776 38.664L55.7918 38.6514L55.8673 38.6262L55.8799 38.6136V38.5631L55.8925 38.5253L55.8799 38.4874L55.8673 38.437L55.8799 38.3865V38.3361Z" fill="#C6C6C6"/>
<path d="M55.8421 37.0122V37.0246H55.8295L55.8421 37.0371L55.8546 37.0246V37.0122L55.8671 36.9997L55.8546 36.9873V36.9997L55.8421 37.0122Z" fill="#C6C6C6"/>
<path d="M55.9047 36.9113L55.9172 36.8611L55.9047 36.8235H55.8922L55.8546 36.836L55.8421 36.8611L55.8295 36.8987L55.8796 36.9238L55.9047 36.9113Z" fill="#C6C6C6"/>
<path d="M55.7918 37.1775V37.1912H55.8048V37.1775V37.1638H55.7918V37.1775Z" fill="#C6C6C6"/>
<path d="M54.4687 33.9749H54.4561H54.4185L54.3935 33.988V34.0012H54.4436L54.4687 33.9749Z" fill="#C6C6C6"/>
<path d="M54.5195 33.9499V33.9626H54.532H54.5445L54.5696 33.9244L54.532 33.9372L54.5195 33.9499Z" fill="#C6C6C6"/>
<path d="M54.6073 33.8246V33.7983H54.5947H54.5446L54.5571 33.8115H54.5822L54.6073 33.8246Z" fill="#C6C6C6"/>
<path d="M54.4058 34.0258L54.3682 34.0127L54.3431 34.039H54.3682L54.4058 34.0258Z" fill="#C6C6C6"/>
<path d="M54.3174 34.039L54.2924 34.0127H54.2673H54.2297L54.2798 34.039H54.3174Z" fill="#C6C6C6"/>
<path d="M54.4187 34.3528H54.3683L54.3305 34.3278L54.2675 34.3528L54.2549 34.3904H54.3557L54.4187 34.3528Z" fill="#C6C6C6"/>
<path d="M55.9681 36.105L56.0059 36.1302L55.9807 36.1681V36.1933H56.0689L56.0815 36.2311L56.0941 36.2185V36.1807L56.0815 36.1176L56.0689 36.105L56.0563 36.0798L56.0689 36.0546V36.042H56.0437L56.0185 35.9915L55.9681 35.9663H55.9429L55.9177 35.9915V36.0167L55.9429 36.0924L55.9681 36.105Z" fill="#C6C6C6"/>
<path d="M55.8295 35.2101L55.8673 35.2227L55.9303 35.2101L56.0059 35.1975L55.9177 35.1471L55.9051 35.1093V35.0841L55.8673 35.0588L55.8547 35.0714L55.8421 35.0967L55.8547 35.1471L55.8295 35.1723V35.2101Z" fill="#C6C6C6"/>
<path d="M55.9553 35.4108L55.9804 35.3859V35.3611L55.9553 35.3362L55.9428 35.3486L55.9177 35.3735V35.3984L55.9303 35.4108H55.9553Z" fill="#C6C6C6"/>
<path d="M55.8044 35.2102L55.817 35.1849L55.8044 35.1723L55.7792 35.1597L55.7288 35.1471H55.7162L55.7036 35.1723L55.7162 35.3111L55.7288 35.3489L55.7414 35.3615L55.7918 35.3363L55.8044 35.3237V35.2102Z" fill="#C6C6C6"/>
<path d="M52.365 37.5663L52.3901 37.5037V37.4535L52.3149 37.4159V37.441L52.3275 37.4535L52.3525 37.466V37.4786V37.5413L52.365 37.5663Z" fill="#C6C6C6"/>
</g>
</g>
<defs>
<filter id="filter0_d" x="-16.8998" y="-94.8405" width="377.86" height="662.005" filterUnits="userSpaceOnUse" color-interpolation-filters="sRGB">
<feFlood flood-opacity="0" result="BackgroundImageFix"/>
<feColorMatrix in="SourceAlpha" type="matrix" values="0 0 0 0 0 0 0 0 0 0 0 0 0 0 0 0 0 0 127 0"/>
<feOffset dy="4"/>
<feGaussianBlur stdDeviation="2"/>
<feColorMatrix type="matrix" values="0 0 0 0 0 0 0 0 0 0 0 0 0 0 0 0 0 0 0.25 0"/>
<feBlend mode="normal" in2="BackgroundImageFix" result="effect1_dropShadow"/>
<feBlend mode="normal" in="SourceGraphic" in2="effect1_dropShadow" result="shape"/>
</filter>
<clipPath id="clip0">
<rect width="1440" height="1662" fill="white" transform="translate(-50 -347)"/>
</clipPath>
</defs>
</svg>
