<svg width="83" height="69" viewBox="0 0 83 69" fill="none" xmlns="http://www.w3.org/2000/svg">
<path d="M40.3754 54.3129L39.86 53.8727L39.6212 55.1682L39.7972 56.3127L40.1491 56.9541L40.7525 56.7654L41.0416 56.5391L41.117 55.709L40.7399 54.8789L40.3754 54.3129Z" fill="#C6C6C6"/>
<path d="M9.2282 6.31942L10.2212 6.4955L10.4977 6.78476L12.182 6.8728L12.4586 6.8225L11.2142 6.28169L10.8245 5.74088L11.2393 5.12462L11.5913 4.49577L12.6722 3.90466L13.904 3.60281L15.3244 3.30097L15.4878 3.11231L14.9599 2.87335L14.1303 2.94881L13.5144 3.1752L12.0438 3.28839L10.7742 3.67827L9.91952 4.01785L10.2338 4.29454L9.40417 4.84792L9.89438 4.93596L9.21563 5.47677L9.41674 5.82892L8.98938 5.96727L9.2282 6.31942Z" fill="#C6C6C6"/>
<path d="M24.8521 1.42752L25.8577 1.64145L27.3032 1.80505L28.1956 1.72955L27.63 1.22617L25.9205 0.710199L24.739 0.445923L23.9597 0.559185L23.2935 0.924136L24.0225 1.02481L24.8521 1.42752Z" fill="#C6C6C6"/>
<path d="M30.9357 2.05679L30.7471 1.83025L29.176 1.50303L28.7989 1.46527L28.5223 1.5282L28.6732 2.28333L30.9357 2.05679Z" fill="#C6C6C6"/>
<path d="M4.69066 9.84161L5.15574 9.47666L4.95462 9.02361L4.45184 8.69641L4.69066 9.84161Z" fill="#C6C6C6"/>
<path d="M3.82336 0.974513L4.37642 1.10034L4.82892 1.01226L4.84149 0.92418L5.206 0.886431L5.73392 0.810935L5.84705 0.735437L5.13059 0.622192L4.77864 0.710272L4.61524 0.836101L4.42669 0.685107L3.77308 0.697688L2.99377 0.798352L3.96162 0.810935L3.82336 0.974513Z" fill="#C6C6C6"/>
<path d="M51.6502 4.84796L51.5496 5.09964L51.6879 5.12481L52.794 5.20032H53.523L53.2088 5.02414L52.1655 4.78503L51.6502 4.84796Z" fill="#C6C6C6"/>
<path d="M49.9533 4.30762L50.519 4.15661L52.3038 4.18178L51.9267 3.71618L49.6768 3.389L48.3947 3.36383L47.9673 3.47708L48.3947 3.90493L49.9533 4.30762Z" fill="#C6C6C6"/>
<path d="M82.2569 12.4569L81.7792 12.1676L81.2639 11.9664L80.1201 11.3879L79.1019 11.0106L79.8687 11.0609L80.1201 10.7465L75.9847 7.99211L74.8032 7.70284L72.8298 7.37584L71.8368 7.41357L69.9262 7.23749L70.1525 7.52676L71.2209 7.95438L70.9066 8.18076L69.1218 7.57707L68.267 7.65253L67.1107 7.51419L66.2308 7.53934L65.7406 7.67769L64.8356 7.47646L64.1945 6.99853L63.3775 6.72184L62.2211 6.60865L60.3734 6.73442L58.3497 6.23134L57.3693 5.85403L52.329 5.42642L52.065 5.70311L53.234 6.3068L52.2912 6.21876L52.1656 6.40742L50.9463 6.20619L50.3178 6.38226L49.1489 6.08042L49.526 6.77215L48.4073 6.50803L47.1503 5.99238L47.1001 5.71569L46.3459 5.30065L45.1141 4.97365H44.3473L43.1784 4.86046L43.7691 5.35095L41.6072 5.25034L41.117 4.96107L39.4452 4.84788L38.7791 4.94849L38.7665 5.11199L38.0375 4.70953L37.7484 4.82272L36.8434 4.6718L36.1395 4.58376L36.2777 4.39511L37.1073 4.04295L37.3964 3.8543L37.0948 3.53988L36.4034 3.30092L34.9579 3.01165L33.6004 2.99907L33.3616 3.14999L32.8463 2.84815L31.6899 2.76011L32.1172 2.60919L31.0865 2.42053L30.3198 2.65949L30.1941 2.91103L30.3827 3.17515L29.5154 3.16257L28.8492 3.48957L28.3087 3.35122L27.1397 3.41411L27.1774 3.57761L26.0211 3.66565L25.4051 3.96749L24.8772 3.99265L24.7264 4.40768L25.4177 4.73469L24.4499 4.82272L23.2558 4.78499L22.5267 4.92334L23.1301 5.60249L23.9974 6.1433L22.7907 5.76599L21.7977 5.80372L21.1567 6.05526L21.7223 6.53319L21.1064 6.40742L20.8424 5.77857L20.3145 5.42642L20.0883 5.43899L20.5408 5.90434L19.9626 6.34453L20.9807 6.87276L21.031 7.55192L21.3955 7.91665L21.9863 7.97953L22.0365 8.41973L22.5896 8.80961L22.3508 9.13661L22.4136 9.47619L21.9485 9.65226L21.8857 9.9038L21.2195 9.80319L21.6594 8.82219L21.5966 8.36942L20.7544 7.95438L20.2768 7.03626L19.8117 6.57092L19.3592 6.36969L19.4598 5.84146L19.0953 5.47672L17.6749 5.30065L17.411 5.42642L17.4738 6.01753L16.9333 6.60865L17.0842 6.82246L17.6749 7.33811L17.6875 7.66511L18.3537 7.72799L18.4542 7.86634L19.1833 8.23107L19.0576 8.58323L16.7322 7.81603L15.9026 7.60223L14.2937 7.40099L14.1429 7.6148L14.8845 8.00469L14.5451 8.45746L13.7407 8.05499L13.1122 8.33169L12.1569 8.34426L11.893 8.58323L11.2268 8.50776L11.541 8.09272L11.1388 8.06757L9.59275 8.64611L8.63747 8.97311L8.68775 9.4133L7.93358 9.56422L7.43081 9.32526L7.27997 8.94796L7.90844 8.85992L7.45594 8.48261L5.92247 8.25623L6.46295 8.68384L6.3624 9.0863L6.95317 9.50134L6.8149 9.97926L6.23671 9.7403L5.73393 9.70257L4.72837 10.3817L5.25629 10.8974L4.85406 11.0735L4.79122 20.9338L5.06775 21.2733L5.09288 21.4243L5.92247 21.701L6.3624 21.5752L6.8149 21.9399L7.17942 21.9273L8.1347 22.1789L8.18497 22.4178L8.02157 22.8203L8.24782 23.2479L8.21011 23.512L7.61935 23.5749L7.34282 23.7887L7.3931 24.1409L7.92101 24.0151L7.97129 24.1786L7.11657 24.5056L7.51879 24.8075L7.11657 25.4615L6.68921 25.5872L7.31768 26.04L8.09699 26.3418L9.02713 26.9833L9.30366 27.2222L9.68074 27.3103L10.1081 27.5995L10.3721 28.1278L10.3344 28.4673L9.64303 28.8698L9.0774 28.7943L8.34838 28.9201L7.36796 28.6183L6.14872 28.0649L5.08031 28.09L4.36385 28.3038L3.65996 28.8069L2.41559 28.7063L2.21448 29.31L1.22149 29.3352L0.580444 30.1023L1.03294 30.4797L0.781555 31.1085L1.30947 31.5613L1.77454 32.3662L2.50357 32.3536L3.18232 32.7938L3.63482 32.6932L3.74795 32.3536L4.46441 32.3788L5.04261 32.819L6.04816 32.7309L6.43782 32.2656L7.01601 32.4542L7.41824 32.3788L7.20456 32.6806L7.49365 33.0579L7.36796 33.3849L7.50622 34.0138L7.80789 34.0515L7.95872 34.3659L7.63192 34.6678L7.51879 35.108L7.34282 35.1205L7.29254 35.2589H7.06629L7.05372 35.2715L6.9783 35.4727L6.90289 36.0764L6.76462 36.4411L6.8149 36.4914L6.63893 36.7555L7.12914 37.9126L7.21712 38.1264L7.43081 36.8436L7.38053 36.5417L7.43081 36.8436L7.21712 38.1264L7.25483 38.2396L7.19198 38.554V38.8307L7.11657 39.2709H7.45594L7.85817 39.8243L8.32324 40.4657L8.63747 41.0568L8.85115 41.2455L9.06484 41.6605L9.0397 41.8366L9.30366 42.302L9.68074 42.4655L10.0327 42.7799L10.4852 43.6603V44.1382L10.5983 44.6916L11.1011 45.4588L11.4153 45.5845L11.9307 46.1379L12.1695 46.7919L12.5717 47.4585L12.9488 47.7478L13.0242 48.0622L13.2505 48.3012L13.3636 48.6533L13.6527 48.3892L13.3636 48.6533L13.4139 48.9929L13.3385 49.1564L13.4264 49.5211L13.2882 49.5589L13.5019 49.8858L13.6653 50.477L13.791 50.7159V51.1435L13.9921 51.6215L14.4823 51.6592L14.7085 51.546L15.0479 51.5712L15.1485 51.3573L15.337 51.307L15.4753 51.0932L15.6512 51.0429L16.242 51.0052L16.6819 50.8543L17.0716 50.5147L17.2853 50.565L17.5869 50.5273L18.1777 49.9613L19.2838 49.584L19.95 49.2444V48.9803L20.0631 48.6156L20.5533 48.4018L20.8676 48.364L21.3201 48.0873L21.7097 48.1628L22.024 47.9364L21.9988 47.622L22.2628 47.4208H22.6901L22.841 47.2573L22.8661 46.8674L23.2809 46.5655H23.6077L23.658 46.4649L23.5323 45.9367L23.6077 45.5342L23.7334 45.3456L24.0476 45.3833L24.2613 44.8299L24.5253 44.5784L24.6258 44.352L24.827 43.8741L24.8144 43.698L24.5504 43.5974L24.3493 43.3333L23.9848 42.8679L23.57 42.7296L23.0547 42.6164L22.6399 42.3271L22.2754 41.7863H21.9234H22.2754L22.1119 41.1575L22.1748 41.0065L22.1999 40.6795L22.1119 40.6041L21.9485 40.8808L21.5715 41.3713L21.1064 41.8869L20.6916 42.4277L20.2768 42.4026L19.6986 42.3774L19.1707 42.5032L19.133 42.2894L19.0073 42.3271L18.8565 42.0253L18.957 41.5473L18.8942 41.082L18.6553 40.8305L18.4794 40.9185L18.3411 41.3335L18.4417 41.9247L18.316 41.7234L18.2028 41.4593L17.9892 41.2329L17.8635 40.9688L17.9137 40.7047L17.8383 40.3651L17.3355 40.0381L17.1847 39.7488L16.8202 39.5728L16.4808 38.881L16.1792 38.2773L16.2169 38.0887L16.0409 37.7365L16.4431 37.7868L16.0158 37.3592L15.9529 36.9442H15.7392L15.7644 36.3657L15.3244 35.7494L14.4446 35.3218L13.8664 34.5546L13.9292 33.9257L14.2183 33.649L14.0926 33.1711L13.6276 32.9322L13.0368 31.9512L12.7477 32.0895L12.6723 32.0266L12.7477 32.0895L13.0368 31.9512L12.5717 31.2972L12.6597 31.0456L12.2952 30.1275L12.71 29.9011L12.4083 29.6622L11.8804 29.4735L12.4083 29.6622L12.71 29.9011L12.2952 30.1275L12.6597 31.0456L12.5717 31.2972L13.0368 31.9512L13.6276 32.9322L14.0926 33.1711L14.2183 33.649L13.9292 33.9257L13.8664 34.5546L14.4446 35.3218L15.3244 35.7494L15.7644 36.3657L15.7392 36.9442H15.9529L16.0158 37.3592L16.4431 37.7868L16.6568 37.4724L17.1219 37.7365L17.4738 37.6108L18.1149 38.6672L18.6553 39.4344L19.3467 39.6608L20.1134 40.2771L20.9807 40.5412L21.6217 40.1513L22.1245 40.013L22.4765 40.1513L22.8787 41.1323L23.6706 41.2329L24.4373 41.4216L25.7571 41.6605L26.7124 41.5473L27.8311 41.5348L29.0754 41.3838L29.6913 41.9875L29.9553 42.5661L30.4832 42.7673L30.8854 42.2391H32.3938L32.1675 41.5473L31.7276 41.1449L31.5642 40.5286L31.0614 40.1639L31.6773 39.3338L32.4818 39.3967L33.0474 38.554L33.3113 37.7365L33.8016 36.9442L33.6759 36.3782L34.1409 35.9129L33.5125 35.523L33.1479 34.9822L32.7457 34.2779L32.9845 33.9257L34.0529 34.127L34.7694 34.0012L35.2345 33.322L34.7694 34.0012L34.0529 34.127L32.9845 33.9257L32.7457 34.2779L33.1479 34.9822L33.5125 35.523L34.1409 35.9129L33.6759 36.3782L33.8016 36.9442L33.3113 37.7365L33.0474 38.554L32.4818 39.3967L31.6773 39.3338L31.0614 40.1639L31.5642 40.5286L31.7276 41.1449L32.1675 41.5473L32.3938 42.2391H30.8854L30.4832 42.7673L31.3756 43.4465L31.6145 43.7609L31.3128 44.0502L32.3184 45.0186L32.8211 45.1192L33.7764 44.6413L33.9901 45.3833L34.0907 46.3643L34.4049 47.383L34.8574 48.93L35.5864 50.0368L35.7498 50.5273L36.0012 51.5334L36.4286 52.3006L36.7051 52.6779L37.0193 53.4828L37.409 54.6022L38.1003 55.3568L38.3768 55.1304L38.5905 54.577L39.219 54.3507L38.9927 54.0865L39.2693 53.4828L39.6338 53.4451L39.5458 52.0868L39.7846 51.3196L39.6966 50.653L39.4578 49.6217L39.6087 49.0055L39.9229 48.9677L40.5262 48.6785L40.853 48.4772L40.8153 48.1125L41.4438 47.5843L41.9089 47.0812L42.575 46.1379L43.5052 45.6097L43.8069 45.1318L43.6937 44.5281L44.5233 44.3646L44.9884 44.3772L45.0512 44.0753L45.3278 44.1508L45.5414 44.2388L45.6169 44.0879L45.9311 44.2514L46.0945 43.8112L45.9814 43.4842L46.6224 43.5093L46.9744 43.9747L47.1629 44.3646L47.2635 44.767L47.5148 45.1821L47.3766 44.5407L47.5148 45.1821L48.093 45.8361L48.5204 45.9493L48.4701 46.226L49.1489 47.1567L49.3877 47.8987L49.2746 48.8923L49.7271 49.0809L50.1293 49.1564L50.8583 48.5778L51.2605 48.188L51.6502 48.842L51.9016 49.8607L52.2284 50.8165L52.5552 51.2316L52.5803 52.0994L52.8569 52.5773L52.6935 53.181L52.8066 53.7847L52.6432 54.5519L52.6055 55.0424L52.7563 55.4952L52.8443 55.0172L53.2088 55.4071L53.611 55.8473L53.7493 56.2498L54.051 56.5516L54.1641 56.4133L54.051 56.5516L54.2269 56.8912L54.1767 57.4823L54.4406 57.9099L54.5663 58.5765L54.9937 59.1173L55.0942 59.5198L55.9364 60.1486L56.6151 60.7523L57.1179 60.6894L57.1305 60.4253L56.8414 59.721L56.5774 59.4946L56.5146 59.0167L56.4392 58.7526L56.502 58.3878L56.4392 57.847L56.1124 57.3062L55.6724 56.8283L55.509 56.7528L55.2954 57.0799L54.8303 57.1805L55.2954 57.0799L55.509 56.7528L55.1194 56.3378L54.692 56.2372L54.2772 55.7844L54.1013 55.0927L53.7744 54.3632L53.3094 54.3381L53.2214 53.7595L53.3974 53.0552L53.6739 51.8856L53.6487 51.0052L54.2647 50.9926L54.2269 51.6215L54.8177 51.6089L55.4839 51.9736L55.2199 51.0052L55.597 50.3512L55.2199 51.0052L55.4839 51.9736L55.9113 52.8037L56.2381 53.2187L56.8288 53.3319L57.4196 53.0175L58.1486 52.9546L57.7967 52.4767L58.9154 51.8604L58.9028 50.892L58.6765 50.3638L58.0229 50.0745L58.6765 50.3638L58.9028 50.892L58.9154 51.8604L57.7967 52.4767L58.1486 52.9546L57.4196 53.0175L56.8288 53.3319L57.3944 53.7973L57.231 54.3381L57.5201 54.8412L58.3497 54.0991L58.8651 53.4325L59.6318 52.9169L60.1723 52.3887L60.122 50.98L59.6192 49.5085L59.1039 48.8671L58.4 48.364L57.5956 47.3202L56.9294 46.4775L56.9922 45.9241L57.4573 45.1695L58.2743 44.4778L58.576 44.352L59.5438 44.6035L59.4307 44.918L59.7072 45.4965L60.0843 45.4462L60.1849 44.6035L60.8888 44.4903L61.7938 44.0879L62.108 43.6854L62.2086 43.7735L62.196 43.786V43.8112L62.2337 43.8363L62.2714 43.8238L62.3091 43.8615L62.196 43.8992L62.1834 43.937V43.9495L62.2086 43.9621H62.2965L62.284 43.8992L62.3091 43.8615L62.3971 43.9495L62.4097 43.937L62.4348 43.9747L62.4599 43.9621V43.937V43.9118L62.4474 43.8992L62.4725 43.8741H62.4851V43.8615L62.7616 43.5722L63.5284 43.4842L64.3579 42.8176L65.1498 42.0756L65.5646 41.1197L65.8537 40.0633L66.1177 39.1955L66.4696 39.1326L66.457 38.4912L66.3565 37.8497L65.8788 37.5982L65.5646 37.1706L65.9166 36.9568L65.7154 36.3657L65.0367 35.7494L64.3579 35.0199L63.7797 34.2276L62.8873 33.7874L63.0004 33.2088L63.4781 32.8064L63.6038 32.3662L64.4459 32.1398L64.1443 31.7122L63.7169 31.687L62.9879 31.3726L62.4977 31.9512L61.8818 31.7122L61.6932 31.3475L61.1024 31.2217L60.5117 30.6683L60.6625 30.291L61.291 30.2533L61.4418 29.7376L61.8943 29.1842L62.3217 28.9075L62.8747 29.3226L62.6359 29.8508L62.925 30.1652L62.749 30.5425L63.3524 30.3162L63.654 29.9514L64.4459 29.7125L64.7099 29.2094L65.1875 28.7818L65.3132 28.2284L65.1875 28.7818L64.7099 29.2094L64.4459 29.7125L64.8607 29.9263L65.2881 30.0143L65.3886 30.1401L65.4389 30.5803L65.5772 30.7312L65.464 30.8192L65.4515 31.184L65.6903 31.3097L65.8914 31.3852L65.992 31.5361L66.1554 31.4732V31.3097L66.545 31.4732L67.3243 32.165L66.897 32.3033L67.5506 33.1585L67.6889 33.7622L67.9528 34.2024L68.5184 34.1395L68.9206 33.8L69.4486 33.649L69.5114 33.1963L69.0841 32.253L68.6693 31.7248L67.6386 30.7689L67.0981 30.4168L66.7713 30.291L66.7964 30.203L66.6456 29.8508L66.809 29.637L67.1735 29.5112L67.2992 29.2723L67.3369 29.1339L67.5757 28.9578L67.2238 28.3919L67.2615 28.1278L67.3746 27.8762L67.6511 27.914L67.4752 27.7756L67.2364 27.3857L67.4752 27.7756L67.6511 27.914L67.6009 27.6624L68.1036 27.0965L68.7447 27.4738L69.1469 27.4612L69.7 27.0084L69.8257 26.5431L70.0896 25.6501L70.3284 24.7446L70.165 24.2038L70.2907 23.0718L69.6371 21.8267L68.9458 20.9086L68.7824 20.1288L68.1916 19.4874L66.5953 18.6448L65.8914 18.5945L65.8537 18.9718L65.1121 18.8208L64.3956 18.3429L63.3901 18.2549L64.006 16.4815L64.4459 15.0352L66.0925 14.8088L67.9654 14.9346L68.2796 14.5824L69.2726 14.683L69.8131 15.2238L70.6175 15.1484L71.6734 14.9471L70.7055 14.507V13.2744L71.8493 13.0355L73.3702 13.9284L73.8227 13.1235L73.4205 12.5324L74.0113 12.4695L74.8283 13.4882L74.5266 14.0668L74.4261 14.8214L74.4638 15.7646L73.7473 15.9282L74.0993 16.2677L74.0867 16.7205L74.8912 17.7644L76.9023 19.4497L78.2221 20.5565L78.9385 21.0973L79.1396 20.3804L78.574 19.6006L79.2905 19.412L78.6117 18.5441L79.2402 18.1543L78.6494 17.8273L78.2221 17.1984L78.7374 17.1733L77.6062 16.0916L76.764 15.9156L76.3995 15.6137L76.2612 14.9094L75.8716 14.4189L76.7514 14.5195L76.9148 14.2051L77.5056 14.4818L78.2723 13.9033L79.7053 14.4063L79.4916 14.0793L79.743 13.6266L79.9315 13.1235L80.3212 13.0355L81.1382 12.4946L82.37 12.6456L82.2569 12.4569ZM36.2275 35.6362L36.7428 35.7494L36.2275 35.6362ZM29.7542 31.4984L29.6788 31.6116L29.7542 31.4984L29.729 31.1714L29.9427 30.8821L29.729 31.1714L29.7542 31.4984ZM18.7559 28.0649L18.2783 27.8511L18.7559 28.0649L19.3718 28.6812L18.7559 28.0649ZM19.686 28.6434L18.9067 25.7759L19.686 28.6434L20.4151 28.6308L19.686 28.6434ZM35.4104 23.9648L36.7554 24.2163L35.4104 23.9648ZM30.4078 30.2407L29.5154 29.9892L28.8366 30.052L28.7612 29.5867L28.8366 30.052L29.5154 29.9892L30.4078 30.2407L31.6019 30.1275L30.4078 30.2407ZM29.9553 28.568L29.5531 28.7692L29.9553 28.568ZM27.6677 30.0017L28.2207 30.0395L27.6677 30.0017ZM28.4721 29.0962L29.2765 28.9075L29.2514 29.2723L29.4148 29.4987L29.6788 29.4735L30.1941 29.549L29.6788 29.4735L29.4148 29.4987L29.2514 29.2723L29.2765 28.9075L28.4721 29.0962ZM29.6159 29.5615L29.5028 29.725L29.6159 29.5615ZM32.4943 29.222L32.0921 29.3729L32.4943 29.222L33.2108 29.3352L32.4943 29.222ZM33.2862 28.8321L34.0907 28.7315L33.2862 28.8321ZM34.2164 28.4296L35.0711 28.002L34.2164 28.4296ZM20.0254 21.223L20.8927 21.2608L20.0254 21.223ZM25.38 33.3975L25.4303 33.0202L25.38 33.3975ZM26.2347 32.0015L26.2473 32.6555L25.9331 32.907L25.4806 33.0076L25.9331 32.907L26.2473 32.6555L26.2347 32.0015L26.7501 31.8505L26.7878 31.5613L26.7501 31.8505L26.2347 32.0015ZM27.2529 31.2972L26.285 30.9576L25.5057 30.5551L24.9778 30.1778L24.0979 29.6244L23.5574 28.8195L23.306 28.6686L22.6147 28.7063L22.3256 28.5428L22.0868 27.9265L21.1064 27.5115L22.0868 27.9265L22.3256 28.5428L22.6147 28.7063L23.306 28.6686L23.5574 28.8195L24.0979 29.6244L24.9778 30.1778L25.5057 30.5551L26.285 30.9576L27.2529 31.2972L27.3534 31.8002H27.7179L28.2584 31.9763L27.7179 31.8002H27.3534L27.2529 31.2972ZM28.8995 31.8128L28.4847 32.0769L28.8995 31.8128ZM29.1634 31.9763L29.2765 31.599L29.1634 31.9763ZM31.1871 32.1398L31.4511 32.0518L31.7653 31.687L31.4511 32.0518L31.1871 32.1398L30.9986 32.3033L31.1871 32.1398ZM37.5598 22.4178L37.9746 22.9712L38.6911 23.3863L39.7092 23.6755L40.4382 24.3044L40.6016 25.2225L40.9787 25.5621L41.7832 25.6878L42.6882 25.801L43.6812 26.279L44.1085 26.367L44.7244 27.0839L45.3152 27.5366L44.7244 27.0839L44.1085 26.367L43.6812 26.279L42.6882 25.801L41.7832 25.6878L40.9787 25.5621L40.6016 25.2225L40.4382 24.3044L39.7092 23.6755L38.6911 23.3863L37.9746 22.9712L37.5598 22.4178ZM44.2468 40.0381L44.9381 40.3525L44.2468 40.0381L44.2091 39.8872L44.5359 39.2835L44.8627 39.0823L44.5359 39.2835L44.2091 39.8872L44.2468 40.0381ZM44.7747 40.9059L44.1714 40.5663L44.7747 40.9059ZM44.0205 39.2458L43.6686 39.4093L44.0205 39.2458ZM44.5987 41.5348L44.2971 41.3084L44.5987 41.5348ZM45.3403 40.2268L45.9311 40.2771L46.4841 40.2519L45.9311 40.2771L45.3403 40.2268ZM46.6224 39.4093L47.1126 38.8056L47.7788 38.3025L47.1126 38.8056L46.6224 39.4093ZM48.9101 27.7002L48.2187 27.587L47.4143 27.6876L46.0065 27.5241L45.3403 27.5366L46.0065 27.5241L47.4143 27.6876L48.2187 27.587L48.9101 27.7002L50.079 28.1781L48.9101 27.7002ZM48.7969 38.1642L48.3947 38.4912L48.7969 38.1642ZM50.8583 28.1655L50.1042 28.1781L50.8583 28.1655L51.2605 28.417L50.8583 28.1655ZM51.8136 28.002L52.7186 27.7253L53.6613 27.7002L54.2772 27.4235L53.6613 27.7002L52.7186 27.7253L51.8136 28.002ZM56.1501 43.044L55.6347 43.4716L56.1501 43.044ZM56.6026 25.2099L56.414 25.2854L56.6026 25.2099ZM55.5467 23.6504L55.8484 23.5498L55.5467 23.6504ZM55.421 25.9268L54.6794 25.7633L54.2772 25.7004L54.6794 25.7633L55.421 25.9268ZM52.1907 45.9241L51.7005 45.9618L52.1907 45.9241ZM53.4602 44.2514L52.9826 44.4778L53.4602 44.2514ZM53.9881 44.7796L53.7493 43.8741L54.0887 43.7483L54.4281 43.5597L54.0887 43.7483L53.7493 43.8741L53.9881 44.7796ZM56.5272 23.6755L56.8414 23.3863L56.5272 23.6755ZM53.9127 21.7638L54.4029 22.028L55.0942 21.9651L56.0118 22.2543L55.0942 21.9651L54.4029 22.028L53.9127 21.7638L53.4979 21.6758L53.9127 21.7638ZM48.9101 21.6632L49.7271 22.0405L50.343 22.4304H50.9086L51.7508 22.5562L50.9086 22.4304H50.343L49.7271 22.0405L48.9101 21.6632L48.2313 21.5626L48.9101 21.6632ZM44.0708 20.6068L44.6741 20.7074L45.5037 20.896L45.9688 21.4746L47.0246 21.8016L45.9688 21.4746L45.5037 20.896L44.6741 20.7074L44.0708 20.6068L43.2035 20.2923L44.0708 20.6068ZM40.388 21.4872L41.029 21.4997L41.6198 21.8645L42.2482 21.8896L43.2412 22.0908L42.2482 21.8896L41.6198 21.8645L41.029 21.4997L40.388 21.4872L39.7218 21.2482L40.388 21.4872ZM33.4496 21.2482L34.2289 21.047L34.6311 21.1853L35.1465 21.6381L35.6367 21.789L36.0515 22.116L36.8057 22.0028L37.3461 22.4807L36.8057 22.0028L36.0515 22.116L35.6367 21.789L35.1465 21.6381L34.6311 21.1853L34.2289 21.047L33.4496 21.2482L32.4063 20.7954L33.4496 21.2482ZM29.993 19.261L32.2681 21.2105L29.993 19.261L28.9497 18.6699L29.0503 18.431L28.9497 18.6699L29.993 19.261ZM25.2417 17.9153L25.7822 18.7077L26.3227 18.519L27.2026 18.7831L27.3534 19.1982L27.9065 19.1478L27.3534 19.1982L27.2026 18.7831L26.3227 18.519L25.7822 18.7077L25.2417 17.9153L24.1105 17.7518L25.2417 17.9153ZM23.7208 18.0662L22.3633 18.3429L23.7208 18.0662ZM22.1497 18.5316L20.038 18.7957L22.1497 18.5316ZM19.0073 21.047L19.9249 21.4494L19.0073 21.047L18.052 21.0721L19.0073 21.047ZM15.1862 20.5439L16.6819 21.0847L17.5115 21.3865L16.6819 21.0847L15.1862 20.5439L14.2435 20.569L15.1862 20.5439ZM13.3133 21.9777L12.5591 21.5249L13.3133 21.9777ZM12.71 27.7127L12.9739 28.0272L13.4139 28.2032L13.6024 28.2284L14.1429 28.7063L14.4446 28.7566L14.1429 28.7063L13.6024 28.2284L13.4139 28.2032L12.9739 28.0272L12.71 27.7127L12.0689 27.5492L12.71 27.7127ZM13.6778 28.744L13.2756 28.3164L13.6778 28.744ZM13.0368 29.0333L12.9488 29.222L13.0368 29.0333ZM13.3385 29.4987L13.2128 29.7502L13.3385 29.4987ZM13.351 30.0898L13.3762 30.2155L13.7281 30.6809L13.3762 30.2155L13.351 30.0898ZM9.6556 27.0336L9.08998 26.8952L9.6556 27.0336L10.6235 27.1593L11.5662 27.5241L11.7044 27.675L11.5662 27.5241L10.6235 27.1593L9.6556 27.0336ZM7.79532 32.6932L7.78275 32.2404L7.79532 32.6932ZM7.06629 36.2399L7.15428 35.6991L7.06629 36.2399L7.24226 36.3279L7.09143 36.4285L7.07886 36.6423L7.09143 36.4285L7.24226 36.3279L7.06629 36.2399ZM8.4615 36.5166L9.22824 37.3215L8.4615 36.5166ZM9.4922 35.0325L8.28553 35.8752L7.49365 35.5607L7.40567 35.8123L7.49365 35.5607H7.48108L7.5565 35.435L7.53136 35.2086L7.5565 35.435L7.48108 35.5607H7.49365L8.28553 35.8752L9.4922 35.0325L10.8748 34.1898L10.988 33.2088L10.8371 32.6177L11.1765 32.4165L11.4405 31.9008L11.7044 31.7751L11.4405 31.9008L11.1765 32.4165L10.8371 32.6177L10.988 33.2088L10.8748 34.1898L9.4922 35.0325L9.88185 36.0009L9.76873 36.1267L9.88185 36.0009L9.4922 35.0325ZM22.0491 42.4152L21.7474 42.5787L22.0491 42.4152ZM16.5939 48.037L17.0339 47.1944L17.6624 46.8297L19.6358 46.5278L21.6594 45.7229L19.6358 46.5278L17.6624 46.8297L17.0339 47.1944L16.5939 48.037L16.2797 48.1628L16.0786 47.8987L15.8146 47.9364L15.1359 47.861L15.0102 47.7729L14.2057 47.7981L14.0172 47.8735L13.7155 47.6597L13.5647 48.0496L13.7155 47.6597L14.0172 47.8735L14.2057 47.7981L15.0102 47.7729L15.1359 47.861L15.8146 47.9364L16.0786 47.8987L16.2797 48.1628L16.5939 48.037ZM15.5758 37.6737L15.1736 38.4408L15.2364 38.4534L15.1736 38.4408L15.5758 37.6737ZM11.8804 29.0836L11.717 28.8069L11.8804 29.0836ZM13.0619 30.0898L12.8357 29.876L13.0619 30.0898ZM13.4139 30.6054L13.7281 30.6809L13.4139 30.6054ZM14.9473 30.6306L15.0982 30.2407L14.8594 30.0017L15.0982 30.2407L14.9473 30.6306L15.425 31.0582L14.9473 30.6306ZM18.052 32.341L17.0967 32.2027L16.5562 31.7877L15.9026 31.6242L15.5884 31.0205L15.4878 30.618L15.7015 30.4293L15.7518 30.1527L15.7392 29.5238L16.2671 29.4609L16.0158 29.2471L15.7015 29.222L15.2616 28.656L14.8342 28.2535L13.9167 27.3354L13.8664 26.8198L13.1248 26.0777L13.5647 25.2854L14.1429 25.147L14.3189 24.6817L14.8719 24.5182L15.5004 24.1786L16.0912 24.3673L16.7071 24.3295L16.9459 24.82L17.0213 25.5747L16.4431 25.4615L15.9403 25.5872L16.0535 26.1532L15.425 26.0777L15.5004 26.3293L15.9026 26.5305L16.3677 27.2222L17.1721 27.4863L17.3607 27.7505L17.2727 28.0775L17.3607 28.2661L17.6749 28.7692L17.6121 28.2032L18.0771 28.002L18.3788 28.4548L18.957 28.9201L18.4542 29.1717L17.788 28.983L17.8006 29.637L18.2406 29.6873L18.1903 30.2407L18.7559 30.5048L18.8439 31.36L19.0701 31.926L19.045 32.1272L18.052 32.341ZM19.6232 31.7751L20.0003 31.3097L19.6232 31.7751ZM20.4402 31.3349L20.7042 31.184L20.4402 31.3349ZM27.0895 38.2522L27.2026 38.0761L27.0895 38.2522ZM28.5098 37.812L28.4093 37.1328L28.6983 36.6801L28.4093 37.1328L28.5098 37.812ZM29.2011 36.6801L29.2263 36.4663L29.2011 36.6801ZM30.257 35.2463L30.0684 35.7242L30.2067 36.2022L29.993 36.4285L30.2067 36.2022L30.0684 35.7242L30.257 35.2463L30.6341 35.0451L30.257 34.5168L30.6341 35.0451L30.257 35.2463ZM30.9106 33.9383L31.0111 34.2527L30.898 34.542L31.0111 34.2527L30.9106 33.9383L31.162 33.5987L30.986 33.1963L30.7472 32.8441L31.0488 32.492L30.7472 32.8441L30.986 33.1963L31.162 33.5987L30.9106 33.9383ZM43.2538 40.6041L42.3991 40.4154L41.8586 40.34L41.3809 39.9375L40.4257 39.8243L39.4578 39.3841L38.7288 38.9942L38.0123 38.6798L38.1255 37.9378L38.4774 37.573L38.7162 37.3844L38.4774 37.573L38.1255 37.9378L38.0123 38.6798L38.7288 38.9942L39.4578 39.3841L40.4257 39.8243L41.3809 39.9375L41.8586 40.34L42.3991 40.4154L43.2538 40.6041L43.832 40.5915L43.2538 40.6041ZM44.1085 42.1259L44.5736 42.3397L44.1085 42.1259ZM45.1141 40.9562L45.2649 41.5096L45.1141 40.9562ZM46.4967 42.4655L46.7984 42.4152L46.9995 41.7486L46.7984 42.4152L46.4967 42.4655L46.3585 42.9182L46.4967 42.4655ZM47.8794 43.8992L47.5777 44.0879L47.6405 44.6664L47.5777 44.0879L47.0121 42.8176L47.5777 44.0879L47.8794 43.8992L47.7662 43.5597L47.8794 43.2955L47.7662 42.4655L47.8794 43.2955L47.7662 43.5597L47.8794 43.8992ZM48.6461 40.4657L48.7592 40.9185L48.4953 41.5977L48.533 41.9875L48.3444 42.6415L48.533 41.9875L48.4953 41.5977L48.7592 40.9185L48.6461 40.4657L49.4128 39.9123L48.6461 40.4657ZM49.9282 40.0507L49.7648 39.5602L49.9659 39.4093L49.8528 39.1074H49.8779H49.8528L49.9659 39.4093L49.7648 39.5602L49.9282 40.0507ZM50.7452 42.6038L51.4491 42.478L50.7452 42.6038ZM53.787 46.9932L53.8373 46.1505L53.3596 46.1128L53.2465 45.6348L52.9197 45.3959L53.2465 45.6348L53.3596 46.1128L53.8373 46.1505L53.787 46.9932L53.9127 47.71L53.787 46.9932ZM54.8051 47.383L54.5789 47.2321L54.8051 47.383L55.2074 47.3579L54.8051 47.383ZM57.1556 50.3135L57.3442 49.9487L57.2813 49.2696L56.6277 48.5778L56.4643 47.7855L55.8484 47.1315L55.3079 47.0812L55.8484 47.1315L56.4643 47.7855L56.6277 48.5778L57.2813 49.2696L57.3442 49.9487L57.1556 50.3135L57.7715 50.6153L57.1556 50.3135ZM57.9349 24.3673L58.4754 24.4553L57.9349 24.3673ZM66.3313 28.5177L65.992 28.1026L66.3313 28.5177ZM66.7838 27.7756L66.7713 27.3354L66.7838 27.7756ZM67.538 27.3857L67.0604 26.4676L66.4696 25.801L66.8341 25.5243L66.4696 25.801L67.0604 26.4676L67.538 27.3857ZM67.1484 23.0593L67.3118 23.7636L67.2615 24.0528L67.6134 24.9081L67.6889 25.6627L67.6134 24.9081L67.2615 24.0528L67.3118 23.7636L67.1484 23.0593L66.2811 23.2857L67.1484 23.0593ZM64.2574 22.8706L65.0116 23.6001H65.9543H65.0116L64.2574 22.8706L63.1387 22.3047L61.8943 22.0657L61.1276 21.2985L60.5745 20.8332L60.0969 20.4936L59.129 19.7264L58.3874 19.4371L57.319 19.2107L56.5397 19.2359L57.319 19.2107L58.3874 19.4371L59.129 19.7264L60.0969 20.4936L60.5745 20.8332L61.1276 21.2985L61.8943 22.0657L63.1387 22.3047L64.2574 22.8706Z" fill="#C6C6C6"/>
<path d="M73.961 6.74741L73.2069 6.29425L73.0309 6.57118L73.4708 6.77258L73.961 6.74741Z" fill="#C6C6C6"/>
<path d="M54.1013 4.20679L54.956 4.25714L55.0943 4.0054L53.6237 3.84177L52.593 3.75366L52.8066 3.95505L54.1013 4.20679Z" fill="#C6C6C6"/>
<path d="M69.0966 20.3804L70.0771 21.135L70.8815 22.1789L71.1832 22.7574L71.8745 23.6127L72.3521 24.3673L72.9303 25.0213L72.9178 24.4176L73.7348 24.8955L73.3577 24.3421L72.1636 23.5498L71.6985 22.4179L72.8172 22.6694L71.1078 21.2985L70.2027 20.5187L69.5617 19.7641L68.707 19.0346L68.0911 18.5316L67.9277 18.6322L68.4807 18.9843L68.2419 19.3365L69.0966 20.3804Z" fill="#C6C6C6"/>
<path d="M60.3608 45.66L59.9586 45.6475L59.2296 45.874L58.9531 46.2263L59.0788 46.9184L59.6947 47.17L60.2352 46.78L60.3106 46.327L60.562 45.9746L60.3608 45.66Z" fill="#C6C6C6"/>
<path d="M58.1989 65.1793L58.4126 64.1732L58.0858 63.6701L57.5704 63.6072L57.3316 63.1545L57.2185 62.6011L56.9671 62.5759L56.5649 62.2992L56.854 61.6452L56.3135 61.2805L55.8987 60.6139L55.2954 60.0605L54.5789 60.048L53.8876 59.1927L53.4854 58.8532L52.9197 58.3124L52.2661 57.5326L51.16 57.3817L50.7075 57.3439L50.7829 57.7464L51.5497 58.6268L52.1027 59.0795L52.4924 59.7713L53.1334 60.2743L53.41 60.8906L53.6236 61.5823L54.2395 62.2489L54.7549 63.3683L55.0943 63.9719L55.6096 64.6259L55.8861 65.1039L56.766 65.7579L57.3316 66.4244L58.1109 66.4119L58.1989 65.1793Z" fill="#C6C6C6"/>
<path d="M63.0884 67.8079L62.8622 67.2922L61.5675 66.9024L61.4041 67.2294L60.0592 67.1539L59.9712 66.8646L59.6821 66.8017L59.129 66.4999L58.2743 66.4496L57.759 67.2168L58.4 67.2671L58.5006 67.6192L59.7575 67.9462L60.0592 67.8456L60.5745 67.9211L61.3664 68.2229L62.02 68.3739L62.7491 68.4367L63.3901 68.4116L64.1317 68.726L64.9613 68.4242L64.1317 67.9462L63.0884 67.8079Z" fill="#C6C6C6"/>
<path d="M67.5631 61.0039L66.7461 60.2618L66.8592 59.8971L66.3187 59.1424L66.6958 58.413L67.1986 58.1489L67.0478 57.759L67.5254 57.7087L67.5631 57.4068L66.9598 57.1553L66.4821 56.9415L66.4319 56.5893L66.0422 56.1868H65.7531L65.4389 56.8157L64.9235 57.3691L64.911 57.759L64.8984 58.2746L64.559 58.2495L64.4207 58.5262L64.0814 58.1111L63.7546 58.6142L63.2769 59.2431L62.4348 59.4191L62.1331 59.5701L62.02 60.2492L61.4669 60.4001L60.9516 60.1235L60.5368 60.6517L60.4614 61.3937L60.5619 62.098L60.8887 62.7772L61.2407 63.0036L61.3287 64.0727L61.9069 64.1733L62.3594 64.123L62.6107 64.5128L63.4529 64.2236L63.8048 64.4751L64.3076 64.5254L64.559 65.0159L65.376 64.6512L65.4766 64.9405L65.7908 63.7205L65.8285 62.9156L66.5199 62.3747L66.4947 61.6453L66.721 61.1045L67.5631 61.0039Z" fill="#C6C6C6"/>
<path d="M71.1455 60.9912L70.3285 61.0289L69.436 60.9157L68.883 60.6768L68.2922 61.2805L68.1414 61.6075L67.7769 62.8148L67.6637 63.4437L67.3621 63.9719L67.5632 64.5127L67.8523 64.5253L67.9277 65.2924L67.6889 66.0345L67.978 66.2734L68.4305 66.1477L68.4682 65.0032L68.443 64.0725L68.9207 63.8335L68.8327 64.6133L69.3229 65.0786L69.2223 65.3931L69.3857 65.6069L70.0896 65.305L69.7126 65.959L69.9765 66.2357L70.3662 65.9967L70.4039 65.4811L69.8131 64.5504L69.9514 64.2737L69.3103 63.255L69.9388 62.9406L70.2656 62.4752L70.5673 62.5884L70.6301 62.2237L69.3103 62.4878L68.9207 62.8526L68.2922 62.1483L68.4053 61.5446L69.0212 61.4188L70.1902 61.3811L70.8689 61.5446L71.4094 61.3811L71.9625 60.5887L71.8368 60.4127L71.1455 60.9912Z" fill="#C6C6C6"/>
<path d="M72.9051 34.2401L72.7669 34.5799L72.3521 34.4792L72.1887 34.9574L72.3395 35.3349L72.8674 35.5614L72.8548 35.0958L73.1188 34.907L73.5085 35.1713L73.6719 34.6805L73.4708 34.4037L72.9051 34.2401Z" fill="#C6C6C6"/>
<path d="M75.7836 27.3354L76.5881 27.1216L75.8339 26.2537L75.6202 26.5808L75.0546 26.4172L74.3884 26.1531L73.0812 25.3482L73.32 25.9519L73.8605 27.0209L73.2069 27.0713L73.2823 27.6624L73.8605 28.4296H74.5769L74.3758 27.5743L75.7333 28.1026L75.7836 27.3354Z" fill="#C6C6C6"/>
<path d="M76.5378 31.9763L76.0853 31.1337L76.2487 30.3287L75.8967 29.6747L74.8786 28.5806L74.2753 28.7315L74.3004 29.222L74.9415 30.1149L75.0672 31.1085L74.8535 31.4229L74.2879 32.2404L73.6594 31.8505V33.2969L72.8675 33.1334L71.6608 33.3723L71.422 33.9257L70.9318 34.3408L70.7935 34.8438L70.2531 35.0954L70.7558 35.6362L71.2712 35.8751L71.3843 36.592L71.8242 36.9064L72.1385 36.5669L72.0379 35.2086L71.1203 34.6174L71.8871 34.6049L72.5156 34.2276L73.5965 34.0515L73.8982 34.6552L74.4764 34.957L75.0295 34.0389L76.1733 33.9886L76.852 33.6113L76.9274 33.0328L76.6132 32.6303L76.5378 31.9763Z" fill="#C6C6C6"/>
<path d="M70.253 54.2752L70.4289 53.7721L70.6552 53.508V52.7408L70.2027 53.508L70.2655 52.9797L69.8885 53.0175L69.8507 53.5206L69.6999 53.747L69.5742 53.9608L70.0519 54.5142L70.253 54.2752Z" fill="#C6C6C6"/>
<path d="M69.2601 53.3702L69.6749 53.1312L69.9765 52.7914L69.9514 52.4642H69.4989L69.059 52.2126L69.2098 52.5901L69.1972 53.0053L69.2601 53.3702Z" fill="#C6C6C6"/>
<path d="M67.3243 49.3953L67.4751 49.7475L67.8899 50.2128L67.9402 49.9235L68.1664 50.0996L67.9779 50.3134L67.9905 50.6404L68.355 50.8165L68.9835 50.7033L69.4862 51.1812L69.6245 50.8794L69.9387 51.307L70.5421 51.6969L70.5672 51.3322L70.3158 51.1309L70.3284 50.7033L69.3857 50.2506L69.0966 50.3512L68.7069 50.2631L68.4555 49.6217L68.4681 48.9803L68.8452 48.7162L68.9206 48.0496L68.5812 47.471L68.6315 47.1441L68.5435 46.9428L68.355 47.1441L67.8899 46.9177H67.4751L67.362 47.6471L67.5003 48.8922L67.1735 48.6407L67.3243 49.3953Z" fill="#C6C6C6"/>
<path d="M71.5728 51.9987L71.3465 51.6968L70.6678 51.6843L71.1706 52.2879L71.2083 52.5898L70.7935 52.5269L70.9443 53.0174L71.158 53.0551L71.246 53.6211L71.5602 53.445L71.3465 52.9419L71.2963 52.6778L71.8619 52.8916L71.5728 51.9987Z" fill="#C6C6C6"/>
<path d="M68.2419 51.559L68.5938 51.9617L68.6944 51.2696L68.4178 50.9801L67.8145 50.955L68.2419 51.559Z" fill="#C6C6C6"/>
<path d="M65.992 55.0298L66.8719 54.2752L67.1987 53.7218L67.626 53.2816L67.4375 52.6276L67.1358 53.4199L66.7713 53.9733L66.2937 54.4764L65.992 55.0298Z" fill="#C6C6C6"/>
<path d="M72.4778 54.9921L72.4024 54.7028L72.3019 54.3004L71.6985 53.9231L71.7991 54.5393L71.3089 54.5645L71.2209 54.9166L70.693 55.1304L70.4164 54.7783L70.0645 55.0801L69.6371 55.2939L69.3983 55.9731L69.5366 56.212L70.0268 55.7593L70.3662 55.797L70.5547 55.4574L71.0323 55.8347L70.8438 56.2246L71.0826 56.8031L71.9373 57.2684L72.1133 56.8911L71.8494 56.3L72.151 55.8976L72.4653 56.7025L72.6538 55.9731L72.5784 55.5329L72.4778 54.9921Z" fill="#C6C6C6"/>
<path d="M66.545 42.0881L66.3062 42.8805L66.4948 43.4716L66.9975 44.1508L67.1609 43.4968L67.3118 42.2139L67.3243 41.7234L66.9598 41.4844L66.545 42.0881Z" fill="#C6C6C6"/>
<path d="M6.27446 33.2592L6.22418 33.2844L6.1362 33.3347L5.8471 33.4354L5.74654 33.448H5.64599L5.52029 33.4354L5.40717 33.4102V33.4983L5.38203 33.5738L5.30661 33.599L5.2689 33.5864L5.2312 33.5738L5.16835 33.599L5.11807 33.6493L5.06779 33.6871L5.00494 33.6493L5.03008 33.7626L5.1055 33.901L5.13064 33.9387L5.16835 33.9639L5.30661 34.0017H5.34432H5.41974L5.44488 34.0142L5.47001 34.0646H5.52029V34.052V34.0142L5.54543 33.9891L5.58314 33.9639H5.62085L5.69627 33.9513L5.77168 33.9262L5.83453 33.8758L5.94766 33.75H5.98536H6.02307H6.09849L6.17391 33.7374L6.14877 33.6871L6.1362 33.6745L6.08592 33.6116L6.06078 33.5612L6.07335 33.4857L6.38759 33.2466L6.45044 33.1837L6.34988 33.2089L6.27446 33.2592Z" fill="#C6C6C6"/>
</svg>
