<svg width="1440" height="802" viewBox="0 0 1440 802" fill="none" xmlns="http://www.w3.org/2000/svg">
<g filter="url(#filter0_f)">
<rect y="15" width="1440" height="787" fill="#F4F5F7"/>
</g>
<path d="M1044 257L1439.5 467L0 798.5V417.5L1044 257Z" fill="#CACFD6"/>
<path d="M1044 257L1439.5 467L0 798.5V417.5L1044 257Z" fill="#CACFD6"/>
<path d="M1044 257L1439.5 467L0 798.5V417.5L1044 257Z" fill="#CACFD6"/>
<path d="M1044 257L1439.5 467L0 798.5V417.5L1044 257Z" fill="#CACFD6"/>
<path d="M1441.5 465.5V800H-2L1441.5 465.5Z" fill="#9FD8CB"/>
<path d="M1441.5 465.5V800H-2L1441.5 465.5Z" fill="#9FD8CB"/>
<path d="M1441.5 465.5V800H-2L1441.5 465.5Z" fill="#9FD8CB"/>
<path d="M1441.5 465.5V800H-2L1441.5 465.5Z" fill="#9FD8CB"/>
<path d="M1439.5 15V467L582.5 15H1439.5Z" fill="#D6E5E3"/>
<path d="M1439.5 15V467L582.5 15H1439.5Z" fill="#D6E5E3"/>
<defs>
<filter id="filter0_f" x="-15" y="0" width="1470" height="817" filterUnits="userSpaceOnUse" color-interpolation-filters="sRGB">
<feFlood flood-opacity="0" result="BackgroundImageFix"/>
<feBlend mode="normal" in="SourceGraphic" in2="BackgroundImageFix" result="shape"/>
<feGaussianBlur stdDeviation="7.5" result="effect1_foregroundBlur"/>
</filter>
</defs>
</svg>
