<svg width="80" height="82" viewBox="0 0 80 82" fill="none" xmlns="http://www.w3.org/2000/svg">
<path d="M20.213 36.1875L20.8883 35.4599L21.2519 35.8757L20.8104 36.5773L21.0701 36.9931L22.5505 37.279H22.5765L23.3816 38.2665L23.1738 39.1761L21.3298 39.0202L21.0701 40.0597L21.7454 40.9173L20.4208 41.411L20.7584 42.0347L22.7063 42.2946L21.5895 42.6324L19.6936 44.3216L20.3429 44.6335L21.2519 44.0358L22.4206 44.2177L23.2777 43.464L23.8491 43.7759L26.0048 43.3341L27.693 43.3601L28.8098 42.5025L28.3163 41.6969L28.9396 41.2291L29.0695 40.2156L27.5631 39.9037L27.2255 39.306L26.4723 37.5129L25.6412 37.253L24.5763 35.4079L24.4724 35.252L23.2258 35.148L24.3166 33.7707L24.6542 32.4973H23.3556L22.1349 32.7052L23.4335 31.042L22.0051 31.1719L21.0701 31.068L20.1091 32.3154L19.6157 33.9006L20.187 34.6802L20.213 36.1875Z" fill="#C6C6C6"/>
<path d="M16.2653 41.9047L18.5249 40.9692L19.5378 39.5659L19.356 38.4484L20.0572 37.3569L18.7846 36.3954L17.7717 36.4733L16.8107 37.201L15.0706 38.4224L15.616 40.0076L14.5252 41.6708L16.2653 41.9047Z" fill="#C6C6C6"/>
<path d="M38.6532 59.2124L37.926 59.1344L38.2637 60.07L38.3676 62.045L38.913 62.4868L39.4324 61.9411L40.0557 62.045L40.1596 59.8621L39.3025 58.7186L38.6532 59.2124Z" fill="#C6C6C6"/>
<path d="M47.0162 63.7601L45.6656 63.942L44.0554 63.7861L43.8995 64.6696L45.8474 65.5272L46.5487 65.7091L47.6395 66.3328L47.8733 65.4752L47.6395 64.9555L48.0551 63.6301L47.0162 63.7601Z" fill="#C6C6C6"/>
<path d="M78.0268 47.2061L77.6632 46.5305L78.0008 45.6989L77.897 45.2051L75.9231 44.6854L75.1699 44.7114L74.2349 43.9577L75.1699 44.7114L75.9231 44.6854L77.897 45.2051L78.0008 45.6989L77.6632 46.5305L78.0268 47.2061L78.9099 18.8539L77.4814 19.1397L76.4425 18.646L76.1309 17.8663L77.4295 17.6844L76.4945 16.9048L73.3259 16.437L74.4427 17.3206L74.2349 18.1522L75.4556 19.0098L75.1699 19.9973L73.9752 19.5035L72.9363 19.4256L70.8585 20.8289L71.9494 21.8944L71.1183 22.2582L68.1575 21.3486L67.612 21.8944L68.4691 22.5181L68.5211 23.2197L67.5341 22.8559L65.9758 22.4141L65.4823 20.9069L65.2226 20.2312L63.1449 19.1917L63.898 19.0098L69.1184 20.1013L70.7806 19.7114L71.7416 18.9578L71.326 18.0223L70.2872 17.3466L65.7161 15.7614L62.7033 15.4235L60.7295 14.5919L59.7945 15.0597L58.1323 15.6314L57.3012 15.7614L57.405 16.7229L59.275 17.6844L58.5478 18.7499L60.21 20.3871L59.7685 21.6345L61.0411 22.7L60.8074 23.6615L62.7033 24.675L62.4696 25.4287L61.6125 26.2863L59.5607 28.2093L60.9372 28.937L59.7685 29.7686L60.0022 30.0285L59.327 30.912L59.9763 32.3413L59.5607 32.8351L60.1841 33.1989L60.4438 33.9266L60.9892 34.8621L62.3397 35.2519L62.5994 35.6158L62.3397 35.2519L60.9892 34.8621L60.4438 33.9266L60.1841 33.1989L59.5607 32.8351L59.9763 32.3413L59.327 30.912L60.0022 30.0285L59.7685 29.7686L58.5738 29.8206L57.2492 29.5607L55.8208 29.7946L54.4183 30.2104L54.652 31.0939L55.5091 31.6397L55.8987 31.4318L55.9246 32.3413L55.8727 33.5368L54.9377 33.5627L53.7949 32.3933L52.7561 32.939L52.3145 33.9006L52.4444 35.07L52.8859 36.3694L51.2497 36.8891L51.0679 37.5648L52.6002 37.7467L54.8598 37.7207L52.6002 37.7467L51.0679 37.5648L49.8732 37.5388L49.7433 37.175L48.4966 36.8891L47.0162 37.4349L45.1722 38.1625L44.3671 38.6043L44.7307 39.4099L44.419 39.8257L44.9385 40.3974L45.3021 41.255L45.2761 41.8008L45.8735 42.8143L46.4968 43.308L47.4578 43.464L47.4318 43.9057L48.133 44.2176L47.4318 43.9057L47.4578 43.464L46.4968 43.308L45.8735 42.8143L45.5618 42.8922L45.8735 42.8143L45.2761 41.8008L45.3021 41.255L44.9385 40.3974L44.419 39.8257L44.7307 39.4099L44.3671 38.6043L43.7438 38.1105L42.3153 37.4868L41.666 37.9286L40.4453 38.2145L40.4194 37.6688L39.1467 37.3049L39.0948 36.7072L38.7052 35.9276L39.5103 34.8101L39.8739 34.9921L40.1337 34.3943L39.4584 34.1605L39.2766 33.7447L39.6142 33.2249L39.5883 32.4453L38.6533 32.8611L38.2637 33.3029L37.2248 33.4068L36.9131 33.8486L36.7313 34.2644L36.8352 35.8496L37.3806 36.7332L38.3156 36.9411L37.3806 36.7332L37.4845 37.6168L37.7962 38.1885L37.017 38.9681L36.7573 38.6303L35.7444 38.7083L35.5106 39.0461L34.4977 38.9941L32.8096 39.6698L31.7966 41.9827L31.1473 42.4245L30.1604 42.7363L30.3422 43.308L30.9136 43.334L31.5369 43.9577L32.42 44.7114L31.5369 43.9577L30.9136 43.334L30.3422 43.308L30.1604 42.7363L29.0436 43.0482L28.68 44.3735L25.7452 45.6209L24.5505 44.9452L24.9141 46.7644L22.7844 46.3486L21.1222 46.6864L21.226 47.8818L23.1739 48.5055L24.1089 49.3111L25.4335 51.0003L25.1738 54.1968L24.4725 55.1583L24.992 55.782L27.4333 56.5097L24.992 55.782L24.4725 55.1583L22.3428 55.1063L21.252 55.1843L19.8495 54.9244H18.0834L16.4732 54.6386L14.5512 55.808L15.0707 56.4837L14.9668 57.6271L15.4603 57.2113L16.0057 56.9774L15.4603 57.2113L14.9668 57.6271L14.9928 58.1728L15.2265 58.7446L15.2525 59.4462L14.9148 60.4338L14.811 61.0834L14.2396 61.6812L14.0837 62.7726L14.3954 63.3963L14.9928 63.5522L15.0966 64.5917L14.8369 65.9171L15.5641 65.7352L16.2654 65.9691L16.8368 65.5273L18.0834 65.7872L18.447 66.7487L18.9665 67.3204L19.6158 67.4763L20.1612 66.8267L21.0183 66.229L22.3169 66.2549H24.057L25.0439 64.9556L26.0568 64.6177L26.3685 63.5263L27.1477 62.7726L26.6282 61.8111L27.1477 60.4857L27.9528 59.5762L28.0827 59.0304L29.7968 58.6926L31.0435 57.6011L30.9655 56.6916L29.4072 56.8995L29.0696 56.7176L29.4072 56.8995L30.9655 56.6916L31.0954 55.73L33.0173 55.2103L35.6145 55.6261L36.7833 54.7425L37.3287 54.6126L38.0559 53.8849L38.6533 53.651L39.7441 54.1968L40.4194 54.3787L40.9128 55.9379L41.8478 56.8735L43.1204 57.913L44.2113 58.6406L45.2242 58.7446L45.8215 59.3943L46.7046 59.7061L47.1461 60.4078L47.7175 60.6157L48.185 61.4473L48.7823 62.4088L48.4966 62.7466L48.2889 63.6562L48.3148 64.1759L48.8603 64.046L49.5096 62.5907L50.055 62.4868L50.1589 61.6292L49.1459 61.0315L49.6394 59.966L50.8082 60.2259L51.6133 61.0055L51.8211 60.4078L51.6652 60.0959L50.4445 59.2643L49.4316 58.7706L48.185 58.1728L48.5486 57.861L48.185 57.4972L47.1461 57.5232L45.5878 56.2238L44.8346 54.8984L43.562 54.0928L43.0685 53.2872L43.1984 52.8194L43.0945 52.0398L44.1074 51.4681L45.1722 51.702L44.8086 51.0003L44.8865 50.2207L43.3802 49.8829L44.8865 50.2207L44.8086 51.0003L45.1722 51.702L44.8865 51.8319L45.7956 51.8839L44.8865 51.8319L44.8346 51.8579V52.4296L45.2761 52.9494L45.6138 52.2737L46.4708 52.5336L46.5487 53.0533L47.198 53.729L46.9383 53.8589L48.133 55.0284L49.3797 55.4961L50.1848 56.0679L51.4834 56.6656L52.0808 56.9774L52.4963 57.5232L52.782 57.6271L52.6522 57.1334L53.1716 56.3277L52.6522 57.1334L52.782 57.6271L53.0417 57.887L52.9119 58.3807L52.8859 59.4982L53.0677 60.2778L53.8469 60.8236L53.8988 61.1874L54.1585 61.2913L54.704 60.5117L54.7299 59.966L55.1455 59.7321V59.3163L54.5481 58.9005L54.3144 58.2248L54.4183 57.6791L54.6001 57.6271V57.5751V57.6791H54.4183L54.3144 58.2248L54.5481 58.9005L55.1455 59.3163V59.7321L54.7299 59.966L54.704 60.5117L54.1585 61.2913L54.2884 61.7851L55.0416 62.7206L55.639 63.5003L55.9766 64.6177L56.5739 65.9431L57.7687 66.6967L58.6517 66.6707L58.0284 65.1895L58.8854 65.0075L58.392 64.15L59.6906 64.5917L59.5867 63.6302L58.8854 63.1624L58.0543 62.3828L58.5218 62.019L57.7946 61.2394L57.3791 60.2518L57.6128 59.914L58.392 60.7456H59.1452L59.7945 60.4857L58.7816 59.5502L60.3659 59.1344L61.0671 59.2903L61.8982 59.3423L61.9761 59.7321L62.4176 60.4338L63.95 59.0564L65.5343 58.9525L65.7161 58.5627L64.3396 58.0169L64.2876 57.2893L64.1837 57.2633L63.7162 56.5097L64.0539 55.3662L64.6253 54.7165L63.8461 54.5346L62.8072 53.9629L63.8461 54.5346L64.6253 54.7165L64.7292 52.7934L65.1447 52.9234L65.7421 52.5856L65.6382 52.1698L66.4952 50.9743L66.8329 50.0908L68.0016 49.8829L68.1834 50.5066L70.2612 50.8964L70.7027 51.2602L69.534 51.8059L69.3522 52.1178L70.8585 52.5856L70.7027 53.3392L71.4819 53.677L73.1181 52.7415L74.4946 52.4556L74.6505 51.8839L73.3259 51.9878L72.6246 51.598L72.3649 50.5845L73.3778 49.9868L74.5725 49.9088L75.3517 49.3891L76.3646 49.2592L76.2607 48.5315L76.8321 48.0897L76.2607 48.5315L76.3646 49.2592L77.4554 48.9993L77.5593 49.3371L75.7932 50.0128L76.6243 50.6365L75.7932 51.9878L74.9102 52.2477L76.2088 53.1833L77.819 53.807L78.0008 47.9598H78.0528L78.1307 47.414L78.0268 47.2061ZM17.3302 57.5751L17.0965 57.783L17.3302 57.5751ZM28.8878 56.6396L27.9268 56.1718L28.8878 56.6396ZM64.4435 35.7977L64.7032 36.5513L64.5473 36.9671L65.5083 37.9806L66.0797 38.2665L66.0537 38.5523L66.9368 38.8382L67.3783 39.254L66.9627 39.5918L67.3783 39.254L66.9368 38.8382L66.0537 38.5523L66.0797 38.2665L65.5083 37.9806L64.5473 36.9671L64.7032 36.5513L64.4435 35.7977L63.1968 35.4338L64.4435 35.7977ZM57.457 57.4452L56.7298 56.9254L57.457 57.4452L57.483 57.5492L57.457 57.4452ZM46.6007 49.9608L47.7175 49.9348L47.9512 49.649L47.7175 49.9348L46.6007 49.9608L45.9774 50.3246L46.6007 49.9608ZM48.6005 47.0502L48.7823 47.596L49.4576 48.0118L49.9511 48.1937L51.0159 47.9858L51.0938 47.6739L51.5873 47.6219L52.1847 47.3621L52.3405 47.466L52.9119 47.2841L53.1716 46.8943L53.5872 46.7904L55.0156 47.2841L55.2234 47.1542L55.0156 47.2841L53.5872 46.7904L53.1716 46.8943L52.9119 47.2841L52.3405 47.466L52.1847 47.3621L51.5873 47.6219L51.0938 47.6739L51.0159 47.9858L49.9511 48.1937L49.4576 48.0118L48.7823 47.596L48.6005 47.0502ZM59.3529 36.3954L58.4439 36.9151L58.3141 37.7987L57.0674 38.3704L58.3141 37.7987L58.4439 36.9151L59.3529 36.3954L59.1192 35.7197L57.8206 34.9661L57.1713 34.8621L56.9375 34.5243L57.1713 34.8621L57.8206 34.9661L59.1192 35.7197L59.3529 36.3954ZM65.3265 42.4764L64.8071 42.3205L65.3265 42.4764ZM63.6903 42.3985L63.3007 42.0087L63.6903 42.3985ZM61.119 47.44L61.171 47.466L61.119 47.44ZM61.2229 47.3621L61.4047 47.2061L61.2229 47.3621ZM56.0545 53.4691L56.4181 53.1313L56.0545 53.4691ZM56.7557 53.8589L57.2232 54.5346L56.7557 53.8589ZM55.7948 34.6802H55.587H55.7948ZM50.3407 52.5336L49.3018 52.2997L50.3407 52.5336ZM48.3408 52.6375L47.8473 52.2737L48.3408 52.6375ZM51.873 52.8714L51.2497 52.5076L51.873 52.8714ZM51.4834 51.1822L51.0159 51.4161L51.4834 51.1822L52.4444 50.7664L51.4834 51.1822ZM54.2624 50.5325L54.9377 49.4151L55.4312 48.3236L56.1844 47.9858L56.6778 47.6479L56.1844 47.9858L55.4312 48.3236L54.9377 49.4151L54.2624 50.5325L53.2755 50.8184L54.0287 51.4681L54.2365 51.9619L55.0676 52.3517L55.0935 52.4296L55.0676 52.3517L54.2365 51.9619L54.0287 51.4681L53.2755 50.8184L54.2624 50.5325ZM54.1326 56.0159L54.1845 55.756L54.1326 56.0159L54.1066 56.0419L54.1326 56.0159ZM57.7167 54.4047L58.7556 54.6645L60.7035 54.7425L58.7556 54.6645L57.7167 54.4047ZM58.9634 48.2197L59.3789 47.9858L58.9634 48.2197ZM60.3139 47.8298L60.5736 47.44L60.3139 47.8298ZM65.5862 41.307L66.3394 41.255L65.5862 41.307ZM61.3788 42.0346L62.3657 42.0606L62.8851 42.2945L62.3657 42.0606L61.3788 42.0346L59.9243 41.6448L58.6257 41.5149L57.6648 41.5669L58.6257 41.5149L59.9243 41.6448L61.3788 42.0346ZM57.431 32.2634L58.5738 32.8351L57.431 32.2634L56.8856 32.0815L57.431 32.2634ZM55.7428 46.0367L56.0285 46.1407L55.7428 46.0367L54.4702 45.439L55.7428 46.0367ZM52.2366 45.8288L51.5354 45.2571L52.2366 45.8288ZM49.1719 43.9837L49.3537 44.5035L50.2887 44.5814L50.964 45.387L51.0419 45.491L50.964 45.387L50.2887 44.5814L49.3537 44.5035L49.1719 43.9837L48.2889 43.8278L49.1719 43.9837ZM48.6785 46.8423L48.6265 46.9982L48.6785 46.8423L48.0811 46.5305L48.6785 46.8423ZM47.4837 46.6084L46.4968 46.1407L47.4837 46.6084ZM44.9645 42.7883L44.6788 43.1001L44.9645 42.7883ZM43.7957 43.412L43.3542 43.8018L43.7957 43.412ZM37.952 48.0637L37.6923 48.4276L37.952 48.0637ZM35.9002 51.0523L36.4716 51.3901L35.9002 51.0523ZM35.6665 48.5315L36.2638 48.6874L35.6665 48.5315ZM34.7575 43.282L34.5237 41.8527L34.7575 43.282ZM34.5497 44.3995L34.3159 44.4255L34.5497 44.3995ZM34.212 45.3351L33.0693 44.6074L34.212 45.3351ZM35.225 41.6188L35.5106 41.0211L35.225 41.6188H34.4718H35.225ZM32.0823 42.5544L33.2251 42.2166L33.2511 42.2425L33.2251 42.2166L32.0823 42.5544ZM34.8094 50.5845L35.4327 50.3506L34.8094 50.5845ZM38.0299 51.0263L37.7962 50.7664L38.0299 51.0263L38.6533 50.9743L38.0299 51.0263ZM38.887 50.3246L39.8739 50.5325L38.887 50.3246ZM41.4323 49.519L41.3024 49.8309L41.4323 49.519L42.6789 49.2332L41.4323 49.519ZM43.7697 48.3756L43.51 47.3361L43.7697 48.3756ZM44.3411 46.3745L43.5879 45.6989L42.9127 45.3091L42.7309 44.6334L42.4711 44.1396L42.7309 44.6334L42.9127 45.3091L43.5879 45.6989L44.3411 46.3745L45.3281 46.8943L44.3411 46.3745ZM46.4708 51.8839L46.0033 51.624L46.4708 51.8839L46.9903 51.9099L46.4708 51.8839ZM52.9379 55.4961L52.7301 55.2882L52.3405 55.0024L52.1068 55.1583L51.7172 55.5221L51.6133 56.4057L51.7172 55.5221L52.1068 55.1583L52.3405 55.0024L52.6522 54.9244L52.782 54.1708L52.0808 53.5731L52.3405 52.8714L52.0808 53.5731L52.782 54.1708L52.6522 54.9244L52.3405 55.0024L52.7301 55.2882L52.9379 55.4961L53.4054 55.6781L53.9248 55.9899L53.8469 56.0939L53.9248 55.9899L53.4054 55.6781L52.9379 55.4961ZM53.1976 56.4317L53.2755 56.6396L53.1976 56.4317ZM57.1713 58.8485H57.2232H57.1713ZM60.6775 58.6666L59.6646 58.1209L60.6775 58.6666L61.8722 58.5107L60.6775 58.6666ZM64.4435 52.1438L65.0148 51.8839L64.4435 52.1438ZM65.6122 50.4806L64.833 50.4286L64.6772 50.1947L64.833 50.4286L65.6122 50.4806L65.9239 50.3506L65.6122 50.4806ZM66.6511 41.229L66.1316 40.2155L65.7421 39.6958L65.9498 39.5399L65.7421 39.6958L66.1316 40.2155L66.6511 41.229L67.1186 41.281L66.6511 41.229ZM67.3783 40.9172L67.7679 40.9952L67.3783 40.9172ZM71.6117 43.6459L71.5598 43.334L70.9884 42.6324L69.9495 42.5804L69.7677 42.0866L70.0015 41.7488L69.0145 40.8652L70.0015 41.7488L69.7677 42.0866L69.9495 42.5804L70.9884 42.6324L71.5598 43.334L71.6117 43.6459L73.3259 44.2176L71.6117 43.6459Z" fill="#C6C6C6"/>
<path d="M78.9358 17.9184L78.9098 18.8545L79.0396 18.8285L78.9358 17.9184Z" fill="#C6C6C6"/>
<path d="M40.1855 35.4599L40.4192 36.1096L41.7438 36.9932L42.3671 35.7198L41.9256 34.9401L40.1855 35.4599Z" fill="#C6C6C6"/>
<path d="M11.1488 19.4516L9.35678 19.3477L7.46082 20.1013L6.13625 19.7115L4.34418 20.4911L2.81183 19.5036L1.12365 19.7115L0.18866 20.673L2.44822 21.0109L2.42225 21.4267L0.396437 21.7125L2.68197 22.4142L1.48726 23.0639L4.52599 23.5317L5.98042 23.7396L6.99333 23.4797L10.3437 22.4662L11.928 21.3747L10.7852 20.3872L11.1488 19.4516Z" fill="#C6C6C6"/>
<path d="M39.3285 3.96349L40.8089 4.32731L40.0297 4.7691L42.2114 5.52274L43.3541 5.47076L43.5879 4.45725L44.367 4.22336L44.6787 3.33979L46.8863 2.87202L43.6398 2.01443L42.3932 1.59863L41.0686 1.65061L40.8089 2.04042H39.5103L38.9389 1.65061L36.5235 2.06641L37.3546 2.97597L39.3285 3.96349Z" fill="#C6C6C6"/>
<path d="M33.6926 31.12L35.3548 31.8996L36.9131 31.5358L39.1207 29.7686L39.9778 30.7042L41.0686 32.8871L42.2114 34.6283L42.7308 36.1096L44.1073 36.0316L44.6787 34.8102L46.1591 34.9401L46.6786 33.5108L46.8344 30.9121L48.0291 30.5742L48.8862 28.8591L47.6395 28.0015L46.7045 26.962L47.25 24.857L49.2498 23.5836L50.8341 22.4142L50.5224 21.5046L51.4055 20.4911L53.2235 20.1013L52.73 19.5296L52.2885 17.3466L50.4185 16.3851L48.8862 15.6834L50.4185 16.3851L52.2885 17.3466L52.73 19.5296L53.2235 20.1013L54.8857 20.777L55.1195 21.3747L54.4442 21.6865L52.1846 23.2718L51.3276 24.2073L50.938 25.0649L51.6912 26.4163L51.6652 27.8975L52.8859 28.3913L53.691 29.1969L55.535 28.8851L57.4829 28.3393L59.5607 28.2094L61.6125 26.2863L62.4695 25.4287L62.7033 24.6751L60.8073 23.6616L61.0411 22.7001L59.7684 21.6346L60.21 20.3872L58.5478 18.75L59.275 17.6845L57.405 16.7229L57.3011 15.7614L58.1322 15.6315L59.7944 15.0597L58.3919 14.2022L59.6386 13.8383L56.1064 12.8248L54.3143 13.1107L52.4184 13.0327L51.0938 14.1762L49.3537 14.0982L47.1461 14.6959L44.5229 16.4631L42.8607 17.5026L40.5751 20.2832L38.7311 22.3102L36.6274 23.8175L33.7185 25.0649L32.7056 26.0005L33.1991 29.4828L33.6926 31.12ZM57.3011 15.7614L57.5089 14.7739L57.3011 15.7614ZM45.9773 17.2427H46.0293H45.9773ZM47.7694 16.619L48.2369 16.671L47.7694 16.619ZM42.1854 22.9339L41.0686 22.9079L42.1854 22.9339Z" fill="#C6C6C6"/>
<path d="M48.2628 4.69153L50.2367 4.17146L48.7823 3.91142L48.2888 3.46936L46.4188 3.70339L47.0941 4.09345L46.5227 4.40549L48.2628 4.69153Z" fill="#C6C6C6"/>
<path d="M45.0943 1.83262L45.328 2.17065L48.081 2.35266L50.7042 2.22265L51.821 1.5986L49.9251 1.20857L47.5616 0.948547L46.7305 1.26057L45.354 1.00055L42.6529 1.31258L43.7697 1.83262H45.0943Z" fill="#C6C6C6"/>
<path d="M39.3285 58.4328L39.7181 57.1854L39.4324 55.834L38.6013 56.4317L38.3416 57.0294L38.7052 58.1209L39.3285 58.4328Z" fill="#C6C6C6"/>
<path d="M46.4188 67.2686L46.4449 67.2947L46.5229 67.3469L46.601 67.3208V67.2686L46.5229 67.2426L46.4188 67.2686Z" fill="#C6C6C6"/>
<path d="M46.7827 67.4504L46.6526 67.4243L46.6786 67.5808L46.7827 67.6851H46.9129L46.965 67.6329L46.9129 67.5808L46.7827 67.4504Z" fill="#C6C6C6"/>
<path d="M28.9398 62.7206L28.9137 62.7727L28.8877 62.8248V62.877H29.0178L29.122 62.903L29.148 62.877V62.8248H29.0178L28.9398 62.7206Z" fill="#C6C6C6"/>
<path d="M28.8098 62.2009L28.7579 62.279V62.357L28.68 62.383L28.654 62.487L28.68 62.5391L28.8877 62.5651L28.9397 62.461H29.0176L29.1734 62.279V62.2009L29.0955 62.1489L28.8098 62.2009Z" fill="#C6C6C6"/>
<path d="M32.4459 60.5637L32.1862 60.5897L32.1602 60.6157V60.7197L32.1862 60.7457L32.342 60.7717L32.7576 60.9537H32.7835L32.8095 60.8497V60.8237L32.6797 60.6417L32.4459 60.5637Z" fill="#C6C6C6"/>
<path d="M31.5629 61.0576L31.485 61.0316L31.3551 61.0836L31.2253 61.0316L31.2513 60.9536L31.2772 60.9016L31.3032 60.8756L31.2513 60.8236V60.7976L31.3032 60.7456L31.2513 60.7196L30.9136 60.8236L30.7318 60.9276L30.1864 61.3177V61.3957L30.2124 61.4477H30.3163L30.3682 61.5517L30.4721 61.4477L30.55 61.4217L30.6279 61.4477L30.7058 61.4997L30.7318 61.6557L30.7578 61.7077L30.9136 61.7337L31.1474 61.8377L31.2513 61.7857L31.3811 61.7077L31.4331 61.5517L31.511 61.4217L31.5889 61.2917L31.6668 61.1877L31.6408 61.0836L31.5629 61.0576Z" fill="#C6C6C6"/>
<path d="M8.03226 78.6249L7.98031 78.7289L7.82448 78.7809L7.61671 78.8849L7.56476 78.9629L7.51282 79.1969L7.61671 79.2229L7.69462 79.1189L7.92837 79.0409L8.05823 78.9629L8.0842 78.7289L8.13615 78.6509L8.0842 78.5729L8.03226 78.6249Z" fill="#C6C6C6"/>
<path d="M3.7468 79.9505L3.66888 79.9765L3.40916 80.0025H3.2793L3.17542 80.0545L3.22736 80.1325L3.33125 80.3925L3.51305 80.6265L3.66888 80.5745L3.7468 80.5225L3.85069 80.3665L3.98055 80.0025L4.29221 79.7424V79.6644L4.03249 79.6904L3.7468 79.9505Z" fill="#C6C6C6"/>
<path d="M1.53948 81.0162H1.3833L1.40933 81.0683L1.43536 81.1204L1.61757 81.2246L1.77375 80.938L1.72169 80.8859L1.53948 81.0162Z" fill="#C6C6C6"/>
<path d="M2.73425 80.2882H2.68219L2.63012 80.3403L2.57806 80.4445L2.65616 80.5748L2.70822 80.6008H2.76028L2.89043 80.4966V80.4445L2.8644 80.3664L2.73425 80.2882Z" fill="#C6C6C6"/>
<path d="M2.03268 79.3267L1.95476 79.2227H1.77296L1.66907 79.3787L1.8249 79.6908L1.85087 79.8208H1.87684L2.0067 79.6908L2.03268 79.6128L2.0067 79.4827L2.05865 79.4307L2.03268 79.3267Z" fill="#C6C6C6"/>
<path d="M7.4608 79.4045H7.35692L7.279 79.4565L7.25303 79.6126L7.07122 79.9506L6.94136 80.2626L6.75956 80.4186L6.57776 80.4706L6.60373 80.4966L6.78553 80.5226L6.99331 80.3406L7.38289 80.2106L7.4608 79.9506L7.53872 79.6646V79.4826L7.48678 79.4045H7.4608Z" fill="#C6C6C6"/>
<path d="M5.27921 80.3921V80.3661H5.25323L5.22726 80.3921L4.88963 80.3661L4.83768 80.5221L4.70782 80.6261V80.8081L4.83768 80.9901L4.9156 81.0161L5.04546 81.0421L5.22726 80.9381L5.27921 80.8341L5.30518 80.6261L5.27921 80.5221V80.3921Z" fill="#C6C6C6"/>
<path d="M62.3916 68.4643L61.3787 68.3343L60.3138 68.4383L59.5087 67.8662L59.3009 68.5943L61.0151 68.9063V69.1924L62.9889 69.0364L63.1188 68.5423L62.3916 68.7503V68.4643Z" fill="#C6C6C6"/>
</svg>
