<svg width="70" height="42" viewBox="0 0 70 42" fill="none" xmlns="http://www.w3.org/2000/svg">
<path d="M38.1238 17.776V31H35.3878V29.44C34.9558 29.984 34.3878 30.416 33.6838 30.736C32.9958 31.04 32.2598 31.192 31.4758 31.192C30.4358 31.192 29.4998 30.976 28.6678 30.544C27.8518 30.112 27.2038 29.472 26.7238 28.624C26.2598 27.776 26.0278 26.752 26.0278 25.552V17.776H28.7398V25.144C28.7398 26.328 29.0358 27.24 29.6278 27.88C30.2198 28.504 31.0278 28.816 32.0518 28.816C33.0758 28.816 33.8838 28.504 34.4758 27.88C35.0838 27.24 35.3878 26.328 35.3878 25.144V17.776H38.1238ZM47.5177 20.008H45.0697V31H42.3097V20.008H40.7497V17.776H42.3097V16.84C42.3097 15.32 42.7097 14.216 43.5097 13.528C44.3257 12.824 45.5977 12.472 47.3257 12.472V14.752C46.4937 14.752 45.9097 14.912 45.5737 15.232C45.2377 15.536 45.0697 16.072 45.0697 16.84V17.776H47.5177V20.008ZM51.6705 17.776L55.3905 27.856L59.2545 17.776H62.0865L53.9745 37.216H51.1425L53.8305 30.784L48.6225 17.776H51.6705Z" fill="#C24A4A"/>
<path d="M6.59857 36.7795H7.48545C8.7289 36.7795 9.95483 36.4864 11.0638 35.9239L12.2703 35.1675C12.4909 35.0292 12.7004 34.8738 12.8966 34.7026L13.6058 34.0841C13.9525 33.7817 14.1921 33.3754 14.2889 32.9256C14.3217 32.7731 14.3377 32.6175 14.3365 32.4614L14.1398 5.5332L14.4231 5.32258C15.055 4.85275 15.7729 4.51144 16.5362 4.31798C17.0857 4.17868 17.6522 4.1177 18.2188 4.13685L18.8049 4.15665C19.4962 4.18002 20.1826 4.2825 20.8506 4.46208L21.246 4.56836C21.7652 4.70794 22.2633 4.91646 22.7271 5.18837C23.8515 5.84752 24.7389 6.87164 25.2421 8.07388C25.6674 9.08998 25.817 10.2169 25.6633 11.3076L25.6379 11.4878C25.4836 12.5829 25.0307 13.6144 24.3287 14.4691L24.2463 14.5695C23.8945 14.998 23.4765 15.3675 23.0082 15.6643C22.1737 16.1931 21.2061 16.4738 20.2181 16.4738H19.2003L16.5708 16.2223C17.6336 17.1747 18.9764 17.7571 20.398 17.8822L20.5895 17.8991H21.7805C22.3076 17.8991 22.833 17.8357 23.345 17.7105C24.0822 17.5302 24.7828 17.2237 25.4155 16.8047C25.9982 16.4189 26.5156 15.9428 26.9485 15.3942L27.0113 15.3146C27.5868 14.5852 28.016 13.7516 28.2753 12.8595L28.2841 12.8294C28.4785 12.1605 28.5772 11.4673 28.5772 10.7707V10.4046C28.5772 9.89653 28.5347 9.38939 28.45 8.88847L28.4082 8.64159C28.1933 7.37034 27.6767 6.16916 26.9018 5.13874L26.8491 5.06874C25.6934 3.53198 24.0129 2.47389 22.1275 2.09591L20.8376 1.88632L19.3988 1.80248H18.3507C17.695 1.80248 17.0411 1.86916 16.3989 2.0015L15.3305 2.22166L14.3519 2.372C14.2859 2.38214 14.2216 2.34524 14.1971 2.28311C14.192 2.27016 14.1888 2.25653 14.1876 2.24266L14.1398 1.67673C14.1398 0.750696 13.3891 0 12.4631 0H11.9195C10.7071 0 9.7242 0.982856 9.7242 2.19527V6.9165L9.82343 27.0372L9.77816 27.5727C9.75057 27.899 9.42634 28.1147 9.11468 28.014C8.40086 27.7834 7.65534 27.666 6.9052 27.666H6.15205H5.01171C4.32394 27.666 3.64114 27.8083 3.0102 28.082C2.4323 28.3327 1.90486 28.6914 1.45988 29.1373L0.905975 29.6924C0.325824 30.2738 0 31.0615 0 31.8828C0 32.1169 0.026501 32.3502 0.0789965 32.5783L0.257054 33.352C0.316962 33.6123 0.410253 33.8638 0.53461 34.1002C0.673608 34.3645 0.850036 34.6072 1.05843 34.821L1.22787 34.9949C1.82078 35.6032 2.56529 36.0422 3.38454 36.2667L3.96906 36.4269L6.59857 36.7795Z" fill="#C24A4A"/>
</svg>
