<svg width="180" height="180" viewBox="0 0 180 180" fill="none" xmlns="http://www.w3.org/2000/svg">
<path d="M0 90C0 40.2944 40.2944 0 90 0C139.706 0 180 40.2944 180 90C180 139.706 139.706 180 90 180C40.2944 180 0 139.706 0 90Z" fill="#BFC3BA"/>
<path d="M179.938 100.8V86.4L156.506 93.96L37.5906 18L29.4832 23.76L138.923 100.44L53.8556 123.84L9.32317 50.04L5.36316 59.4L37.5906 127.8L13.2832 137.52L19.7632 146.16L65.0602 132.48L81.3232 178.56L92.53 180L74.4578 130.32L179.938 100.8Z" fill="#E8E9EB"/>
<path d="M96.8915 77.3396C90.5993 65.9882 94.7006 51.6852 106.052 45.393C117.403 39.1008 131.706 43.2021 137.999 54.5536L138.363 55.2118C144.95 67.0944 140.485 82.0728 128.472 88.4181L122.705 91.1974C121.288 91.8801 119.924 92.6666 118.623 93.5504C116.884 94.7317 115.267 96.0818 113.794 97.5811L111.209 100.212C111.119 100.303 111.038 100.4 110.964 100.504C109.723 102.24 107.008 101.659 106.588 99.5663L106.559 99.4213L106.058 96.7857C105.499 93.8467 104.556 90.994 103.253 88.3011L99.7655 82.5244L96.8915 77.3396Z" fill="#C24A4A"/>
<path d="M110.023 58.4443V61.2667V64.2162V72.5177C109.237 72.0647 108.316 71.7987 107.327 71.7987C104.469 71.7987 102.15 73.9797 102.15 76.6685C102.15 79.3586 104.468 81.5401 107.327 81.5401C110.184 81.5401 112.501 79.3609 112.502 76.6697V63.5462L125.671 59.9838V68.3157C124.885 67.8626 123.965 67.5966 122.975 67.5966C120.116 67.5966 117.797 69.777 117.797 72.4641C117.797 75.1541 120.115 77.3356 122.975 77.3356C125.668 77.3356 127.879 75.3973 128.125 72.9224H128.15V59.3132V57.222V53.5401L110.023 58.4443Z" fill="white"/>
</svg>
