<svg width="57" height="50" viewBox="0 0 57 50" fill="none" xmlns="http://www.w3.org/2000/svg">
<path d="M32.5184 31.6046L32.7613 31.047L32.9185 30.518V29.7888L32.5184 29.0597L32.2469 28.7023L31.8325 28.1447L31.9326 27.1867L31.7182 27.3297L31.4896 26.9294L31.1324 27.1295L31.0466 26.143L30.7323 25.5711L30.8752 25.3567L30.4322 24.9564L29.975 24.5274L29.2177 24.0556L29.0891 23.4408L29.2748 22.969L29.2177 22.1827L29.0319 22.0826L29.0033 21.6251L28.9748 20.8387L29.1319 20.4384L28.8033 20.081L28.6032 19.695L28.046 20.0381L27.8745 19.3232L27.946 18.9944L27.9602 18.4797L27.7316 18.0222L27.7459 17.6361L27.5602 17.5218L27.5744 16.9642L27.403 16.5067L27.0743 16.8498L27.0172 17.1071L26.8028 17.6075L26.5456 18.0937L26.6314 18.3939L26.4599 18.5798L26.2456 19.266L26.2599 19.795L26.1598 20.0524L26.2027 20.4956L25.8312 21.2105L25.6455 21.7109L25.4025 22.1255L25.1596 22.6116L24.5738 22.9118L23.8736 22.6116L23.8022 22.3257L23.445 22.0969H23.2163L22.7448 21.5536L22.3876 21.2391L21.8303 20.9531L21.2731 20.4527L21.2588 20.1954L21.616 19.7521L21.9161 19.2946L21.8732 18.9229L22.1447 18.8943L22.5019 18.5369L22.7877 18.0508L22.4733 17.5932L22.259 17.7648L21.9732 17.6933L21.4731 17.9507L21.0159 17.6647L20.7729 17.7648L20.1299 17.5361L19.7442 17.15L19.244 16.9356L18.8011 17.0642L19.3584 17.3645L19.3155 17.822L18.6296 17.9936L18.2295 17.8935L17.7151 18.208L17.3008 18.737L17.3865 18.9515L17.0007 19.1945L16.5149 19.9237L16.6006 20.4241L16.1148 20.3383H15.6147L15.2575 19.795L14.7288 19.3804L14.3287 19.4948L13.9572 19.6235L13.9143 19.8522L13.5714 19.7521L13.5285 20.0095L13.0998 20.1668L12.8569 20.5242L12.3568 20.9674L12.1568 21.6537L11.8281 21.4678L11.5138 21.911L11.7281 22.34L11.3566 22.5115L11.1565 21.7252L10.4707 22.4972L10.3564 22.9976L10.2564 23.3551L9.71338 23.8269L9.4276 24.313L8.92749 24.7133L8.05587 24.985L7.61292 24.9564L7.39858 25.0421L7.24141 25.2423L6.7413 25.3424L6.06972 25.6855L5.86967 25.5711L5.49817 25.6426L4.84087 25.9715L4.38364 26.3575L3.69776 26.6577L3.25481 27.2868L3.31197 26.6006L2.86901 27.2582L2.85473 27.7872L2.66897 28.2447L2.45464 28.4592L2.26888 28.9882L2.39748 29.2599L2.41177 29.5458L2.64039 30.2607L2.54037 30.7325L2.39748 30.375L2.06884 30.1177L2.12599 30.9612L1.88309 30.5609L1.89737 30.9612L2.15457 31.6761L2.06884 32.391L2.31175 32.7484L2.25459 33.02L2.3832 33.6062L2.19744 34.1209L2.15457 34.6356L2.25459 35.565L2.15457 36.094L1.84021 36.723L1.75448 37.0519L1.54015 37.2663L1.12577 37.3807L0.911438 37.9097L1.25437 38.0813L1.82593 38.6675H2.34032L2.88331 38.7104L3.35484 38.4101L3.84065 38.1528L4.0407 38.1957L4.6837 37.7096L5.22667 37.6667L5.81252 37.5666L6.41265 37.7382L6.92705 37.6524L7.58434 37.6238L8.013 37.252L8.34164 36.7802L9.08467 36.5658L10.0706 36.1083L10.785 36.1654L11.771 35.8652L12.8855 35.5364L14.2858 35.4506L14.8574 35.8938L15.3861 35.9224L16.1434 36.4657L15.9147 36.6802L16.1719 37.0233L16.3577 37.681L16.1291 38.1671L16.5435 38.5388L17.1579 37.8096L17.7723 37.5094L18.7296 36.723L18.501 37.395L18.0152 37.8525L17.658 38.3815L17.0293 38.8819L17.7723 38.7104L18.4439 38.0813L18.3153 38.7676L17.858 39.2108L18.5296 39.3252L18.7154 39.6969L18.6582 40.1687L18.4439 40.8693L18.6439 41.4412L19.2155 41.7128L19.6156 41.77L19.9585 41.913L20.4586 42.1703L21.4874 41.4983L21.9875 41.3268L21.6017 41.8129L21.9732 41.9702L22.359 42.3705L23.0306 41.9845L23.5736 41.627L24.4738 41.241L25.3311 41.2124L25.9312 40.8836L26.0598 40.5976L26.4885 39.9542L27.0458 39.268L27.5602 38.8105L28.1889 38.0098L28.6604 37.5666L29.2891 36.8517L30.0607 36.4085L30.7751 35.5793L31.2181 34.9359L31.4181 34.4212L31.9611 33.6062L32.2612 33.1916L32.6184 32.3767L32.5184 31.6046Z" fill="#C6C6C6"/>
<path d="M21.716 44.1434L21.2302 44.2721L20.7158 43.9575L20.2871 43.886L20.0157 44.3007L19.9299 45.0727L19.6299 45.6446L19.5584 46.4024L19.9871 46.431L20.1014 46.4739L21.0445 45.8591L21.1302 46.1021L21.7017 45.4016L22.159 45.087L22.802 44.0433L22.4019 43.9718L21.716 44.1434Z" fill="#C6C6C6"/>
<path d="M55.9092 21.7111L55.6377 21.754L55.1948 21.94L55.2233 22.2833L55.7806 22.0974L56.3379 21.8685L56.4379 21.425L55.9092 21.7111Z" fill="#C6C6C6"/>
<path d="M54.6375 22.7261L54.3089 22.6117L53.9231 22.9264L53.8945 23.327L54.3089 23.4414L54.8233 23.3127L55.0805 22.8406L54.8662 22.5831L54.6375 22.7261Z" fill="#C6C6C6"/>
<path d="M40.9917 44.0719L41.1203 43.7002L40.2915 44.1148L39.8057 44.6009L39.3485 44.8297L38.5054 45.4874L37.7052 45.9449L36.705 46.4024L35.9191 46.7455L35.3047 46.9028L33.6901 47.7749L32.7756 48.4326L32.6184 48.7614L33.3471 48.8186L33.5615 49.1189L34.2045 49.1332L34.776 48.8758L35.6762 48.4755L36.8336 47.5891L37.5052 47.0029L38.3911 46.674L38.9627 46.6597L39.0484 46.2451L39.7057 45.8877L40.7059 45.2443L41.306 44.8297L41.6061 44.458L41.6776 44.0862L40.8774 44.4437L40.9917 44.0719Z" fill="#C6C6C6"/>
<path d="M46.1785 41.384L45.7213 41.3125L45.3069 41.0123L45.6356 40.3117L45.4641 40.0544L45.0497 40.6834L45.1069 39.7112L45.3784 38.8963L44.9354 38.6532L44.8211 38.1385L44.4925 38.21L44.4353 38.8677L44.5496 39.6826L44.6782 40.0687L44.5496 40.2259L44.4639 40.855L44.1209 41.4412L43.5208 42.156L42.7635 42.4706L42.5206 42.8137L43.0493 43.1711L42.935 43.6715L41.949 44.4007L42.1491 44.5294L42.0919 44.7581L42.935 44.4007L43.778 43.8002L44.421 43.3141L44.6496 43.1425L44.864 42.7565L45.2641 42.4706L45.807 42.4992L46.4072 41.9559L47.1359 41.1409L46.8358 41.0266L46.1785 41.384Z" fill="#C6C6C6"/>
<path d="M26.3742 15.1055L27.1887 15.1341L27.6316 15.2914L28.2889 14.9769L28.2461 14.3049L28.7604 14.0046L29.4606 13.7473L30.4608 14.1476L30.8038 14.9483L31.2181 15.4487L31.7754 16.0206L32.5613 16.1635L33.2471 16.2636L33.4043 16.4924L33.9473 16.4352L34.0616 16.1778L33.2614 15.7918L33.5186 15.6202L32.9185 15.463L32.9899 15.0626L32.5327 15.0912L32.104 14.119L31.4325 13.5328L31.3039 12.9181L32.0469 12.818L31.8897 12.3462L30.5894 11.7743L30.5037 11.2453L30.0893 10.7878L29.5606 10.316L28.1032 9.80126L26.7314 9.17218L26.5885 12.1317L26.3742 15.1055Z" fill="#C6C6C6"/>
<path d="M35.4905 9.95849L35.8334 10.2587L36.0049 10.6019L36.1192 11.1451L36.3907 10.9021L36.3192 10.4303L36.0334 10.13L35.7334 9.75832L35.4047 9.54387L35.1332 9.34371L34.7189 9.08636L34.4902 9.30082L35.0475 9.57246L35.4905 9.95849Z" fill="#C6C6C6"/>
<path d="M37.891 12.7473L38.2053 13.1049L38.4339 13.0191L38.5625 12.7616L38.2196 12.4469L37.8624 11.8746L37.6338 11.6601L37.5623 11.3882L37.448 11.4884L37.5766 12.1751L37.891 12.7473Z" fill="#C6C6C6"/>
<path d="M33.5329 12.5605H33.9473L34.376 12.3461L34.8332 12.1173L34.9761 11.86L35.4047 11.7885L35.7048 11.2309L35.762 10.7305L35.6048 10.5875L35.119 10.6018L35.1761 11.1308L34.7046 11.4597L34.4617 11.7742L34.0044 11.8457L33.9473 11.3596L33.833 11.3739L33.6901 11.8171L33.2471 11.8886L32.5327 11.7599L32.447 12.0316L32.8899 12.2889L33.5329 12.5605Z" fill="#C6C6C6"/>
<path d="M46.2357 21.5109L46.4214 21.9115L46.7072 21.7827L46.3214 21.2676L46.2357 21.5109Z" fill="#C6C6C6"/>
<path d="M46.2071 21.0107L46.3928 21.1251L46.4214 20.3957L46.0928 20.1097L45.9642 20.8105L46.0356 21.0679L46.2071 21.0107Z" fill="#C6C6C6"/>
<path d="M45.6499 26.4577L45.6641 26.5006H45.6927L45.7927 26.472L45.8356 26.3147H45.7785L45.7499 26.3004L45.7356 26.2432L45.7499 26.2146L45.6927 26.2432L45.607 26.2718L45.6213 26.3862L45.607 26.4434L45.6499 26.4577Z" fill="#C6C6C6"/>
<path d="M45.0926 25.8429L45.1069 25.9144L45.1355 25.9717L45.2355 26.0003L45.2783 26.0575H45.3212L45.3641 25.986L45.3784 25.9574L45.3498 25.8572L45.3069 25.8143L45.3498 25.6712L45.3355 25.6426L45.2783 25.614L45.1497 25.6569L45.1355 25.6855L45.2069 25.6998L45.2355 25.7285L45.164 25.8286L45.0926 25.8429Z" fill="#C6C6C6"/>
<path d="M44.8068 25.5999L44.8497 25.5427L44.8354 25.5284V25.4855L44.864 25.4283L44.9068 25.414L44.8782 25.3854L44.8497 25.3711V25.414L44.8068 25.5141L44.7925 25.557L44.7211 25.6428H44.7639L44.8068 25.5999Z" fill="#C6C6C6"/>
<path d="M39.8486 24.3989L39.8629 24.3703L39.8914 24.313L39.9057 24.1986L39.8772 24.2558L39.8486 24.3989Z" fill="#C6C6C6"/>
<path d="M45.0644 27.4173L45.0931 27.3882V27.3446L45.0356 27.3155L45.0068 27.3882V27.4028L45.0356 27.4173H45.0644Z" fill="#C6C6C6"/>
<path d="M43.0921 25.2853L43.0064 25.2281L42.9207 25.128L42.9064 25.1566L42.8921 25.2138V25.2567L42.935 25.2853L42.9492 25.3139L42.935 25.3853V25.4425L43.0207 25.5712L43.035 25.6713L43.0778 25.7571L43.1493 25.8286L43.2064 25.9L43.3208 26.1002L43.3493 26.1717L43.4065 26.2146L43.5494 26.3862L43.6065 26.4433L43.6637 26.4719L43.7923 26.572L43.878 26.6149L43.9209 26.6864L44.0066 26.7293L44.1209 26.7865L44.1352 26.8151V26.858L44.1495 26.9009L44.221 26.958L44.3067 27.0009L44.321 27.0295L44.3353 27.0581L44.3781 27.0438L44.421 27.0581L44.5496 27.1582L44.6068 27.1439H44.6496L44.7211 27.1153L44.7639 27.0581L44.7496 26.9009L44.6782 26.8294L44.5782 26.7722L44.521 26.7007L44.4639 26.6292L44.3495 26.4862L44.1924 26.3433L44.1209 26.3147L44.0781 26.2575L44.0352 26.2432L44.0066 26.2003L43.9352 26.1574L43.8923 26.0716L43.8066 25.9858L43.7923 25.9429L43.8066 25.9L43.7923 25.8572L43.7351 25.8143L43.7065 25.7428L43.678 25.6999L43.6208 25.6713L43.5208 25.6141L43.2922 25.3424L43.1922 25.2567L43.0921 25.2853Z" fill="#C6C6C6"/>
<path d="M47.5932 7.25635L47.5789 7.28485L47.5932 7.2991L47.6076 7.31335L47.622 7.28485V7.25635H47.6076H47.5932Z" fill="#C6C6C6"/>
<path d="M40.1058 14.8348H40.1346L40.1777 14.806L40.1633 14.7772L40.149 14.7052L40.0914 14.806L40.1058 14.8348Z" fill="#C6C6C6"/>
<path d="M40.8774 14.9911H40.8488L40.8059 15.0197L40.7773 15.0627L40.7916 15.0913H40.8488L40.8917 15.1056L40.9345 15.077V15.0197H40.8917L40.8774 14.9911Z" fill="#C6C6C6"/>
<path d="M39.9057 14.6195L39.8914 14.691L39.92 14.7482L39.9771 14.7769L40.0629 14.7053V14.6767V14.6481L40.0343 14.6338L40.0915 14.5908L40.0772 14.5765L39.9914 14.5479L39.9629 14.5765L39.9343 14.5908L39.92 14.6052L39.9057 14.6195Z" fill="#C6C6C6"/>
<path d="M39.6343 14.0476L39.5914 14.0762L39.5057 14.1763L39.4771 14.2336L39.4056 14.2765L39.3914 14.3194V14.3766L39.4485 14.3909L39.4914 14.3337L39.62 14.3194L39.6628 14.3337V14.3909L39.6771 14.491L39.72 14.5339L39.7914 14.5626L39.8486 14.6484L39.8629 14.6055H39.8915L39.92 14.5482L39.8772 14.3766L39.8343 14.3051L39.7486 14.2765L39.72 14.2336V14.0905L39.6343 14.0476Z" fill="#C6C6C6"/>
<path d="M41.2777 14.4335L41.2489 14.4479L41.2346 14.4911L41.2489 14.5199L41.3065 14.5631L41.3496 14.5487L41.3209 14.4911V14.4623L41.2777 14.4335Z" fill="#C6C6C6"/>
<path d="M42.4634 16.0921L42.4491 16.1636V16.2065H42.5348L42.592 16.2352V16.321L42.6206 16.3496V16.4211L42.792 16.5499L42.8921 16.6071L42.9921 16.6214L43.0492 16.65L43.1207 16.6357L43.1921 16.6643L43.2493 16.65L43.1921 16.6071V16.5499L43.1207 16.3639L43.0778 16.321L43.0064 16.3353L42.9349 16.3067H42.8778L42.7777 16.2638L42.7635 16.2352L42.7349 16.2208L42.6063 16.1207L42.5348 16.0921H42.4634Z" fill="#C6C6C6"/>
<path d="M42.1205 14.6481L42.1777 14.9628L42.2348 15.1345L42.3491 15.249V15.2776L42.4634 15.3491L42.5492 15.5351L42.5777 15.5494L42.592 15.5208V15.4349L42.5206 15.2776L42.5349 15.1631L42.5063 15.1202V15.0773L42.4777 14.9628L42.392 14.8627L42.3491 14.8484L42.3205 14.8055L42.3491 14.7196L42.3777 14.691L42.392 14.6481L42.2062 14.3763H42.1777L42.1634 14.3906H42.1348H42.0919L42.0776 14.4192L42.1634 14.5766L42.1205 14.6481Z" fill="#C6C6C6"/>
<path d="M39.6342 14.7196H39.6056L39.5342 14.7339L39.5485 14.7483L39.6342 14.7913L39.6771 14.8056L39.6914 14.7769L39.6771 14.7483L39.6342 14.7196Z" fill="#C6C6C6"/>
<path d="M40.5202 13.7616L40.5345 13.8618L40.6059 13.919L40.6774 14.0048L40.7059 14.0191L40.7345 14.0477L40.7917 14.1192L40.906 14.1765L41.0203 14.2623L41.0631 14.2766L41.106 14.3195L41.3204 14.4197L41.3918 14.5198L41.4918 14.577L41.4775 14.5055L41.4347 14.4483L41.4918 14.3768L41.1775 14.1049L41.1346 14.0763L41.0774 14.062L41.006 14.0048L40.9346 13.9905L40.8631 13.9333L40.8345 13.8904L40.7488 13.8331L40.6631 13.7187L40.4487 13.6758L40.463 13.7044L40.5202 13.7616Z" fill="#C6C6C6"/>
<path d="M41.7347 15.1056L41.749 15.1485L41.7775 15.1342L41.8347 15.1628L41.8633 15.1199L41.8061 15.0483L41.749 15.0054H41.7347L41.6918 14.9911L41.6204 15.0197V15.0627L41.6775 15.077L41.7347 15.1056Z" fill="#C6C6C6"/>
<path d="M38.9341 13.9618L38.9627 13.9761L38.977 14.0333L38.9913 14.019L39.0198 13.9761L39.0913 13.876L39.1056 13.8331L39.0341 13.8045L38.977 13.733L38.9198 13.7044L38.877 13.7616V13.8188L38.9484 13.9046L38.9341 13.9618Z" fill="#C6C6C6"/>
<path d="M38.2482 13.2612L38.3054 13.2899L38.3768 13.2612L38.4054 13.2183L38.3054 13.1467L38.2768 13.1897L38.2482 13.2612Z" fill="#C6C6C6"/>
<path d="M42.0348 15.8207L42.1062 15.7921L42.1205 15.7777L42.1062 15.6919L42.0776 15.649L42.0205 15.6204L41.9919 15.5346L41.9204 15.4774L41.7918 15.3772H41.5632L41.4775 15.3915L41.3203 15.2485L41.2774 15.2342L41.2203 15.2771L41.206 15.32L41.1917 15.4201V15.4774L41.2346 15.5775L41.2774 15.649L41.3203 15.6919L41.3489 15.7205L41.4775 15.7348L41.7204 15.7491L41.849 15.8064L41.9776 15.835L42.0348 15.8207Z" fill="#C6C6C6"/>
<path d="M46.7076 17.4367L46.7795 17.4223L46.7508 17.3935L46.7364 17.3358H46.6932L46.6501 17.3502L46.6788 17.4367H46.7076Z" fill="#C6C6C6"/>
<path d="M41.6061 17.4503L41.3346 17.2644L41.2775 17.2501L41.2632 17.2644L41.2489 17.3073L41.2632 17.3359L41.3346 17.3502V17.3645L41.3775 17.3931L41.4775 17.4217L41.5347 17.4646L41.549 17.5362L41.5918 17.5505L41.6347 17.5648L41.6919 17.5362L41.6776 17.5076L41.6061 17.4503Z" fill="#C6C6C6"/>
<path d="M46.0357 16.6639L46.0642 16.6782L46.1357 16.6067H46.1786H46.1928L46.2643 16.5924L46.2929 16.5352L46.2643 16.5209L46.1928 16.5067L46.0928 16.5209L46.05 16.5495L46.0214 16.5924H45.9928V16.621L46.0071 16.6782L46.0357 16.6639Z" fill="#C6C6C6"/>
<path d="M42.6063 15.6203L42.6349 15.6489L42.6635 15.6203L42.7206 15.6918V15.6632V15.5631L42.6349 15.3343L42.6063 15.32L42.6206 15.4058L42.6349 15.463L42.6206 15.5345L42.6063 15.6203Z" fill="#C6C6C6"/>
<path d="M39.0769 13.0897L39.2341 13.3329L39.377 13.476L39.4913 13.4903H39.5485V13.5046L39.5627 13.5332L39.6342 13.5618L39.7056 13.5046L39.6771 13.476L39.6199 13.4617L39.5627 13.4331L39.4627 13.3186L39.4341 13.2757L39.4056 13.1327L39.3484 13.0754L39.1484 12.961L39.0341 12.8465L38.934 12.8179L38.9055 12.8465V12.9181L38.934 12.961L39.0769 13.0897Z" fill="#C6C6C6"/>
<path d="M39.3913 14.1049V14.0333L39.3627 13.9761L39.3342 13.9474L39.2627 13.9618L39.2056 14.0333V14.1049L39.2627 14.1907H39.3627L39.3913 14.1621V14.1049Z" fill="#C6C6C6"/>
<path d="M38.9198 14.1764L38.9055 14.0476L38.8769 14.0619V14.0905L38.8626 14.1478L38.9055 14.248L38.9198 14.1764Z" fill="#C6C6C6"/>
<path d="M39.4913 14.5909L39.5199 14.5193L39.5056 14.4621L39.477 14.4764L39.377 14.5623L39.3627 14.6052L39.4485 14.7196L39.4913 14.7339L39.4485 14.6767L39.4628 14.6052L39.4913 14.5909Z" fill="#C6C6C6"/>
<path d="M11.7852 14.6769L11.9424 14.1761L11.1994 14.5052L10.6564 14.5767L10.1706 14.3049L9.5276 14.4909L9.49902 14.8199L10.5564 14.9344L11.7852 14.6769Z" fill="#C6C6C6"/>
<path d="M1.52672 7.99975L1.9268 8.2571L2.02683 9.47238L2.68411 9.58676L3.19851 9.52957L3.48428 9.97278L4.44164 9.64395L4.84173 9.92989L5.41328 9.98708L5.69906 10.5447L6.62783 10.1301L6.74215 10.4589L7.09937 9.07205L7.14224 8.15702L7.92812 7.54223L7.89954 6.71299L8.15674 6.0982L9.1141 5.98382L8.18532 5.14028L8.31392 4.72566L7.6995 3.86781L8.12816 3.03857L8.69972 2.73832L8.52826 2.2951L9.07123 2.23791L9.1141 1.89478L8.42823 1.60883L7.88526 1.36578L7.8281 0.96545L7.38515 0.507935H7.0565L6.69928 1.2228L6.11344 1.85189L6.09915 2.2951L6.08486 2.88129L6.09915 2.2951L6.11344 1.85189L5.45615 2.35229L5.15608 2.69543L4.78458 3.26732L4.2416 3.98219L3.28425 4.18236L2.94131 4.35392L2.81272 5.12598L2.184 5.29755L1.59816 4.98301L1.12662 5.5835L1.04089 6.42704L1.1552 7.22769L1.52672 7.99975ZM5.69906 2.8527L5.54188 3.16724L5.69906 2.8527Z" fill="#C6C6C6"/>
<path d="M8.19876 14.4194L7.92728 14.1761L7.69865 14.4909L7.2557 14.5052L6.94135 15.0202L7.37001 15.0345L7.92728 14.9058L8.87034 14.7341L8.69887 14.3335L8.19876 14.4194Z" fill="#C6C6C6"/>
<path d="M10.0277 16.1211L10.0992 15.8779L9.84197 15.6061L9.44188 15.32L8.68457 15.506L9.68479 16.1354L10.0277 16.1211Z" fill="#C6C6C6"/>
<path d="M16.1862 9.90153L16.7435 9.93015L17.2007 9.87292L17.858 9.94445L18.5296 10.3164L18.2581 9.61541L17.3865 9.35791L16.4006 9.40083L16.1862 9.90153Z" fill="#C6C6C6"/>
<path d="M16.4148 7.62805L16.6434 7.51368L16.3148 7.04187L16.4434 6.48428L16.8578 6.57006L16.8863 5.78372L16.8006 5.41199L16.3291 5.32621L16.2576 4.82581L16.0004 5.15464L15.8575 5.8838L16.1005 7.05616L16.4148 7.62805Z" fill="#C6C6C6"/>
<path d="M19.4012 8.28569L19.7012 8.8147L20.8872 8.82899L20.9444 9.05775L20.3728 9.04345L19.4869 9.37229L20.087 9.81551L20.0728 10.2158L20.2442 10.5447L20.5443 10.4732L20.8015 10.03L21.9732 10.8735L22.6305 10.945L24.1451 11.7171L24.4737 12.4748L24.6166 13.4613L24.0879 13.7187L23.6878 14.4621L24.7023 14.4336L24.931 14.1762L25.7168 14.3621L26.3741 15.1055L26.5885 12.1317L26.7314 9.17213L25.874 9.00056L25.2882 8.67172L24.6166 8.35718H23.9022L22.9591 8.90048L22.2589 9.8727L21.4445 9.3294L21.2587 7.85677L21.1444 7.51364L19.8584 7.14191L19.444 7.44215L18.3581 7.65661L18.6867 8.11412L19.4012 8.28569Z" fill="#C6C6C6"/>
<path d="M9.11326 9.97279L9.4419 9.98708L9.52764 10.8592L9.25615 11.7028L9.58479 11.9744L10.0992 11.8315L10.1421 10.5304L10.1135 9.47238L10.6565 9.20073L10.5564 10.0872L11.1137 10.6162L10.9994 10.9736L11.1851 11.2167L11.9853 10.8735L11.5567 11.617L11.8567 11.9315L12.2997 11.6599L12.3425 11.0737L11.671 10.0157L11.8281 9.70114L11.0994 8.54304L11.8139 8.18561L12.1854 7.65661L12.5283 7.78528L12.5997 7.37066L11.0994 7.6709L10.6565 8.08553L9.94201 7.28487L10.0706 6.5986L10.7708 6.45562L12.0996 6.41273L12.8712 6.5986L13.4856 6.41273L14.1144 5.51199L13.9715 5.31183L13.1856 5.96951L12.2568 6.0124L11.2423 5.88373L10.6136 5.61207L9.94201 6.29835L9.77054 6.67008L9.35617 8.04263L9.22757 8.75751L8.88464 9.358L9.11326 9.97279Z" fill="#C6C6C6"/>
<path d="M21.0302 12.3894L21.073 13.076L21.5303 12.4609L21.5588 12.0318L21.3874 11.76L21.2016 12.0747L21.0302 12.3894Z" fill="#C6C6C6"/>
<path d="M15.3575 10.259L15.6719 9.95862L15.4718 9.6582L14.6573 9.70112L14.8002 10.0874L15.3575 10.259Z" fill="#C6C6C6"/>
<path d="M13.5285 14.8911L12.714 15.2628L12.314 15.8204L12.2139 16.1207L12.2997 16.235L13.0141 16.0349L13.5857 15.3486L14.2858 15.0913L15.1431 14.6909L15.4575 14.4479L15.1717 14.3335L14.9145 14.4479L14.343 14.4765L13.6428 14.6766L13.5285 14.8911Z" fill="#C6C6C6"/>
</svg>
