<svg width="13" height="12" viewBox="0 0 13 12" fill="none" xmlns="http://www.w3.org/2000/svg">
<path d="M12.277 1.29634V4.00114C12.277 4.45469 11.7284 4.677 11.4111 4.3598L10.6565 3.60513L5.50991 8.75172C5.31183 8.94981 4.9907 8.94981 4.79261 8.75172L4.31441 8.27353C4.11632 8.07544 4.11632 7.75429 4.31441 7.55622L9.46105 2.40959L8.7065 1.655C8.38799 1.33649 8.61357 0.789124 9.06516 0.789124H11.7698C12.0499 0.789124 12.277 1.01621 12.277 1.29634ZM8.70599 6.51206L8.36785 6.8502C8.32075 6.8973 8.28339 6.95322 8.2579 7.01476C8.23242 7.0763 8.2193 7.14225 8.2193 7.20886V10.2571H1.45645V3.49426H7.0358C7.17032 3.49426 7.29932 3.44082 7.39444 3.34571L7.73259 3.00757C8.05211 2.68803 7.82581 2.14169 7.37395 2.14169H1.11831C0.558049 2.14169 0.103882 2.59586 0.103882 3.15612V10.5953C0.103882 11.1555 0.558049 11.6097 1.11831 11.6097H8.55744C9.1177 11.6097 9.57187 11.1555 9.57187 10.5953V6.8707C9.57187 6.41882 9.02552 6.19251 8.70599 6.51206Z" fill="#909090"/>
</svg>
