<?xml version="1.0"?>
<svg xmlns="http://www.w3.org/2000/svg" viewBox="0 0 64 64" width="512" height="512"><g id="flat"><rect x="3" y="31" width="58" height="4" style="fill:#38495c"/><rect x="5" y="35" width="54" height="18" style="fill:#98a1a1"/><rect x="16" y="39" width="14" height="4" style="fill:#e4544f"/><rect x="21" y="43" width="4" height="14" style="fill:#38495c"/><path d="M20,57h6a2,2,0,0,1,2,2v2a0,0,0,0,1,0,0H18a0,0,0,0,1,0,0V59A2,2,0,0,1,20,57Z" style="fill:#98a1a1"/><rect x="34" y="39" width="14" height="4" style="fill:#e4544f"/><rect x="39" y="43" width="4" height="14" style="fill:#38495c"/><path d="M38,57h6a2,2,0,0,1,2,2v2a0,0,0,0,1,0,0H36a0,0,0,0,1,0,0V59A2,2,0,0,1,38,57Z" style="fill:#98a1a1"/><rect x="8" y="48" width="2" height="2" style="fill:#f4f4e6"/><rect x="3" y="3" width="58" height="12" style="fill:#38495c"/><rect x="52" y="7" width="4" height="8" style="fill:#7fcac9"/><path d="M47,9.779V7H43V9.779a3,3,0,1,0,4,0Z" style="fill:#7fcac9"/><polygon points="35 15 29 15 29 10 30 7 34 7 35 10 35 15" style="fill:#7fcac9"/><rect x="18" y="7" width="4" height="8" style="fill:#7fcac9"/><path d="M13,9.779V7H9V9.779a3,3,0,1,0,4,0Z" style="fill:#7fcac9"/><rect x="32" y="26" width="2" height="5" style="fill:#98a1a1"/><rect x="44" y="26" width="2" height="5" style="fill:#98a1a1"/><polygon points="56 50 52 50 52 48 54 48 54 44 56 44 56 50" style="fill:#f4f4e6"/><rect x="48" y="48" width="2" height="2" style="fill:#f4f4e6"/><path d="M37,21H29a1,1,0,0,0-.707,1.707l4,4a1,1,0,0,0,1.414,0l4-4A1,1,0,0,0,37,21Z" style="fill:#e4544f"/><path d="M49.924,21.617A1,1,0,0,0,49,21H41a1,1,0,0,0-.707,1.707l4,4a1,1,0,0,0,1.414,0l4-4A1,1,0,0,0,49.924,21.617Z" style="fill:#e4544f"/></g></svg>
